<svg xmlns="http://www.w3.org/2000/svg" viewBox="0 0 142.32 66.63"><defs><style>.cls-1{fill:#f50403;}.cls-2{fill:#b20404;}.cls-3{fill:#b69715;}.cls-4{fill:#373634;}.cls-5{fill:#fbcb06;}.cls-6{fill:#e5b90b;}</style></defs><title>casqueVelo</title><g id="Layer_2" data-name="Layer 2"><g id="Layer_1-2" data-name="Layer 1"><path class="cls-1" d="M0,50.69C.48,34.53,8.42,22.38,20.85,12.92,31.89,4.53,44.85.61,58.44.07,69.1-.35,79.83,1.15,90.53,1.79l7.31,3.8,2,1.22h0c1.78,4.46,3.57,8.91,5.55,13.84,1.5.3,3.76.77,6,1.19,5.58,1,11,6.6,11.33,12.32a105.2,105.2,0,0,1-.13,15c-.59,6.76-3.37,9.43-10.12,8.5-4.55-.63-8.88-3.07-13.2-4.94-3.32-1.44-6.46-3.27-9.68-4.92-2.77-5.45-10.44-9.55-15.39-8.67l10,5.61c-14.92-4.81-29.83-5-44.73.12C35.7,46.14,31.83,47.42,28,48.73l-.08-1.87V45.77c.07-1,.15-1.91.22-2.87l.52-1.41c2.88-3.66,5.21-8,8.75-10.86,8.67-7,19.42-9,30.09-10.81C74.19,18.7,81,18.09,87.75,17.26c-13.27-2.16-35.34,0-47.24,4.08C28.41,25.5,19.86,33.28,16.6,45.93c-.52,2,.82,4.49,1.3,6.75-1.2.37-2.47,1.23-3.57,1C9.53,52.87,4.77,51.73,0,50.69ZM105.33,31.28l4.09,5,.93-.8L106,30.68c-5.07-5.55-11.27-8.18-18.69-7.59ZM49.63,4.63c-19.8,1.72-50.95,27.16-45.87,38l3.82.53L6.58,42c4.13-6.33,7.69-13.14,12.5-18.88,8.2-9.78,19.63-14.45,31.73-17.58l16.86-2.3-.13-1ZM61.47,32.32c1-.14,2.05-.23,3.07-.42,14.89-2.73,27.56-.12,35.22,14.61.3.57.79,1.45,1.22,1.47,1.71.08,3.73.36,5-.42.73-.43.93-3.26.27-4.28C96.8,28.79,77.84,21.44,61.47,32.32Z"/><path class="cls-2" d="M0,50.69c4.77,1,9.53,2.18,14.33,3,1.1.19,2.37-.67,3.57-1,5.88,1.3,8.56.25,10.07-4,3.86-1.31,7.73-2.59,11.58-3.92,14.9-5.13,29.81-4.93,44.72-.12l5.39,3.06c3.22,1.65,6.36,3.48,9.68,4.92,4.32,1.87,8.65,4.31,13.2,4.94,6.75.93,9.53-1.74,10.12-8.5a105.2,105.2,0,0,0,.13-15c-.34-5.72-5.75-11.29-11.33-12.32-2.28-.42-4.54-.89-6-1.19-2-4.93-3.77-9.38-5.55-13.84,22,10.58,38.27,25.49,39.35,51.92-3.4,5.57-9,7.26-14.87,7.75-5.09.43-10.26-.15-15.38-.29l-5.84-.29L69.89,55.58l-3.46-.76-3.61-.58-3.72-.3c-12-1.73-22.9,2.17-33.83,6.11l-3.47,1c-3.79.22-7.62.84-11.37.57C3.83,61.19.64,57.57,0,50.69Z"/><path class="cls-3" d="M139.22,58.72C138.14,32.29,121.85,17.38,99.87,6.8h0l-2-1.22-7.31-3.8c16.61,3.45,31.86,9.68,43.41,22.66C142.79,34.4,144.77,48.93,139.22,58.72Z"/><path class="cls-4" d="M28,48.73c-1.51,4.2-4.19,5.25-10.07,4-.48-2.26-1.82-4.75-1.3-6.75C19.86,33.28,28.41,25.5,40.51,21.34c11.9-4.1,34-6.24,47.24-4.08-6.76.83-13.56,1.44-20.28,2.56C56.8,21.59,46.05,23.65,37.38,30.63c-3.54,2.85-5.87,7.2-8.74,10.87l-.53,1.4c-.07,1-.15,1.91-.22,2.87v1.09Z"/><path class="cls-4" d="M61.47,32.32c16.37-10.88,35.33-3.53,44.82,11,.66,1,.46,3.85-.27,4.28-1.31.78-3.33.5-5,.42-.43,0-.92-.9-1.22-1.47C92.1,31.78,79.43,29.17,64.54,31.9,63.52,32.09,62.49,32.18,61.47,32.32Z"/><path class="cls-5" d="M50.81,5.53c-12.1,3.13-23.53,7.8-31.73,17.58C14.27,28.85,10.71,35.66,6.58,42l1,1.16-3.82-.53c-5.08-10.83,26.07-36.27,45.87-38Z"/><path class="cls-5" d="M105.32,31.28l-18-8.19c7.42-.59,13.62,2,18.69,7.59Z"/><path class="cls-6" d="M89.66,47.75l-5.39-3.06-10-5.61C79.22,38.2,86.89,42.3,89.66,47.75Z"/><path class="cls-6" d="M50.81,5.53l-1.18-.9L67.54,2.24l.13,1Z"/><path class="cls-5" d="M106,30.68l4.34,4.83-.93.8-4.09-5C105.55,31.08,105.77,30.88,106,30.68Z"/><path class="cls-2" d="M97.84,5.59l2,1.22Z"/><path class="cls-2" d="M27.89,46.86v0Z"/><path class="cls-2" d="M28.11,42.9l.53-1.4C28.46,42,28.29,42.43,28.11,42.9Z"/></g></g></svg>