<svg xmlns="http://www.w3.org/2000/svg" viewBox="0 0 164.06 118.03"><defs><style>.cls-1{fill:#19203b;}.cls-2{fill:#313958;}.cls-3{fill:#333b5b;}.cls-4{fill:#869ea2;}.cls-5{fill:#0d1227;}.cls-6{fill:#5c6d75;}.cls-7{fill:#252b4a;}.cls-8{fill:#4b686d;}.cls-9{fill:#648283;}.cls-10{fill:#2f3859;}.cls-11{fill:#3d4b6a;}.cls-12{fill:#7a9193;}</style></defs><title>frein</title><g id="Layer_2" data-name="Layer 2"><g id="Layer_1-2" data-name="Layer 1"><path class="cls-1" d="M110.65,86.68c-6.21,7.9-12.09,16.1-18.8,23.54-2.9,3.22-7.53,4.88-11.37,7.25-3.06-2.72-7.69-4.89-8.91-8.28C67.46,97.8,65.19,85.93,69.4,73.86l1-.48c.42,3,2.12,3.57,4.59,2.19,3.17-1.78,5.56-.17,7.35,2.05a19.61,19.61,0,0,1,3.39,6.56C89.59,96.89,100,95,106.18,89.25,107.42,88.11,109.15,87.52,110.65,86.68ZM82.89,85.15l-5.09-5.3c-1.36,1.62-3.69,3.2-3.77,4.89-.08,1.5,2.09,3.81,3.76,4.43C78.68,89.5,80.62,87,82.89,85.15Z"/><path class="cls-2" d="M151.49,1.32c5.49-2.61,8.68-1.46,11,4.44.94,2.4,1.07,5.12,1.58,7.7-9.41,1.57-18.92,2.7-28.2,4.81-11.56,2.64-22.94,6.08-34.39,9.18a73.44,73.44,0,0,0-2.25-8.39c-1.18-3-.33-4,2.72-4.72,11.37-2.79,22.65-5.91,34-8.9Z"/><path class="cls-3" d="M110.65,86.68c-1.5.84-3.23,1.43-4.47,2.57C100,95,89.59,96.89,85.78,84.18a19.61,19.61,0,0,0-3.39-6.56C80.6,75.4,78.21,73.79,75,75.57c-2.47,1.38-4.17.85-4.59-2.19,6.89-3.79,12.06-.36,17,4,.52,2,1.13,4.07,1.56,6.14,1.4,6.81,1.53,6.9,8.21,4.78l3.06-2.17-.07.08c1.6,0,3.67.56,2.42-2.35l.31-.31c1.41-.87,3.47-1.4,4.13-2.67A42.9,42.9,0,0,1,121.6,64.25c1.24-.81,1.91-2.5,2.85-3.78,6.68-2.18,13.35-4.39,20.06-6.49a4,4,0,0,1,2.92.1c2.07,1.25,4,2.82,5.92,4.26l-4.93,6c-6.94-3.74-13.91-2.08-20.15,1.14-4.39,2.27-9.26,5.21-9.72,11.34-.21.23-.41.47-.61.7-3-.16-3.63,1.67-3.42,4.16l-.59.84c-2.94-.08-3.73,1.55-3.3,4.16Z"/><path class="cls-4" d="M87.46,77.42c-4.95-4.4-10.12-7.83-17-4l-1,.48c-4.6,2.91-5.13,7.8-6.05,12.5L58.28,61.47a44.74,44.74,0,0,1,6.27-3c5.32-1.59,10.73-2.89,16.11-4.3,3.23,0,4.56,1.59,4.81,4.78C86,65.14,86.78,71.27,87.46,77.42Z"/><path class="cls-5" d="M163.33,19.42c-.88,5.29-3.7,8.13-9.17,9.5-3.95,1-7.36,4.08-11,6.21l-3.71-2.71-9.09,2.17-.4-.15-.43,0-9.14,2.06h-1.79l-19.29,4-4.89-.06c0-.32,0-.64,0-1l2-2,3.89-4.11c1.09.15,2.27.65,3.26.39C114.38,31,125,27.88,135.76,25.27,144.88,23.05,154.13,21.35,163.33,19.42Z"/><path class="cls-6" d="M58.28,61.47l5.07,24.89c1.32,7,2.72,13.93,3.9,20.93.22,1.3,0,3.48-.84,4a5.91,5.91,0,0,1-4.49,0c-4.15-1.59-5-5.41-5.51-9.28-1-7.36-2-14.74-3.17-22.08-.14-.91-1.19-1.68-1.81-2.51.29-1.29.58-2.57.86-3.86,1-1.38,2.65-2.68,2.83-4.17.1-.8-2.25-1.91-3.49-2.88-.49-3.55-.85-7.12-1.51-10.64a51.22,51.22,0,0,0-1.91-6.06l5.19-2.64c0,1.43.05,2.87.07,4.3C53.63,55.48,52.24,60.25,58.28,61.47Z"/><path class="cls-1" d="M163.33,19.42c-9.2,1.93-18.45,3.63-27.57,5.85C125,27.88,114.38,31,103.67,33.75c-1,.26-2.17-.24-3.26-.39q.54-3,1.06-5.91c11.45-3.1,22.83-6.54,34.39-9.18,9.28-2.11,18.79-3.24,28.2-4.81Q163.69,16.45,163.33,19.42Z"/><path class="cls-4" d="M83.75,18.35l1.17-.08c.16.41.32.81.47,1.21l1,3c.34,3,.69,5.94,1,8.9-6.68,1.66-13.38,3.28-20,5-3.63.93-7.21,2-10.81,3-.06-.64-.11-1.28-.17-1.92.15-.66.29-1.32.44-2V27Z"/><path class="cls-7" d="M51.63,66.48c1.24,1,3.59,2.08,3.49,2.88-.18,1.49-1.8,2.79-2.83,4.17-11.21.65-22.41,1.56-33.63,1.81-3.49.08-7.14-1.33-10.48-2.67a7.35,7.35,0,0,1-3.71-4.14c-1-3.11,1-4.59,4.05-3.48,12.61,4.54,25.55,5.27,38.69,3.31C48.74,68.13,50.16,67.13,51.63,66.48Z"/><path class="cls-5" d="M51.43,77.39c.62.83,1.67,1.6,1.81,2.51,1.15,7.34,2.14,14.72,3.17,22.08.55,3.87,1.36,7.69,5.51,9.28a5.91,5.91,0,0,0,4.49,0c.8-.48,1.06-2.66.84-4-1.18-7-2.58-14-3.9-20.93.92-4.7,1.45-9.59,6.05-12.5-4.21,12.07-1.94,23.94,2.17,35.33,1.22,3.39,5.85,5.56,8.91,8.28-15.21,2.41-23.65-3.1-26.66-13.69a128.65,128.65,0,0,1-4-17.44C49.43,83.48,50.84,80.38,51.43,77.39Z"/><path class="cls-8" d="M56.61,39.33c3.6-1,7.18-2.08,10.81-3,6.67-1.7,13.37-3.32,20-5l-.07.19.06,5.88-2,3.82-3.9,2.25a26.47,26.47,0,0,0-4.4.56c-7.93,2.4-15.82,4.92-23.72,7.4,0-1.43,0-2.87-.07-4.3l1.73-2.78c.16-.65.32-1.3.49-2l-.29.05C55.76,41.42,56.18,40.37,56.61,39.33Z"/><path class="cls-7" d="M85.39,19.48c-.15-.4-.31-.8-.47-1.21,1.44-3.72,4.14-5.69,8.08-6.45C112,8.17,130.92,4.4,149.89.72c.48-.09,1.07.38,1.6.6L135.91,5.44c-11.32,3-22.6,6.11-34,8.9-3,.75-3.9,1.7-2.72,4.72a73.44,73.44,0,0,1,2.25,8.39q-.52,3-1.06,5.91l-3.89,4.11V35.52l1.72-6.22c-1.31-3.45.46-8.38-4.79-9.94Z"/><path class="cls-9" d="M53.47,51.44c7.9-2.48,15.79-5,23.72-7.4a26.47,26.47,0,0,1,4.4-.56L80.66,54.2c-5.38,1.41-10.79,2.71-16.11,4.3a44.74,44.74,0,0,0-6.27,3C52.24,60.25,53.63,55.48,53.47,51.44Z"/><path class="cls-5" d="M55.13,44.36,53.4,47.14l-5.19,2.64-31.62,6c-2.12.4-4.22.82-6.33,1.24l.15-4.66c1-2.33,2-4.65,3-7l0,.05c.19,6.37.09,5.92,6.18,4.49,11.84-2.8,23.81-5,35.73-7.49l.29-.05C55.45,43.06,55.29,43.71,55.13,44.36Z"/><path class="cls-9" d="M83.75,18.35,56.88,27v8.47l-5.11-7.35-7.45-.81C46.25,25.81,48,23.64,50.14,23c8.85-2.6,17.79-5,26.82-6.85C79,15.73,81.48,17.56,83.75,18.35Z"/><path class="cls-1" d="M10.41,52.39l-.15,4.66c-5.66,1.1-8-.26-9.48-5.55-2.61-9.2,1.43-15.36,10.64-16.23.05,1.07.11,2.15.17,3.22,0,.66-.05,1.33-.07,2a30.51,30.51,0,0,0-4.7-1.33C5.89,39,4,39.56,4,39.88c-.2,3.38-.73,7,.19,10.1C4.59,51.28,8.24,51.61,10.41,52.39Z"/><path class="cls-7" d="M11.59,38.49c-.06-1.07-.12-2.15-.17-3.22,9-2,18-3.92,26.92-6a61.82,61.82,0,0,0,6-2l7.45.81c-2.12.76-4.19,1.72-6.36,2.26C34.15,33.12,22.86,35.79,11.59,38.49Z"/><path class="cls-1" d="M118.55,76.81c.46-6.13,5.33-9.07,9.72-11.34,6.24-3.22,13.21-4.88,20.15-1.14-2.71.55-5.64,2-8.11,1.47-7.6-1.67-12.73,2-17.59,6.79C121.32,74,119.94,75.41,118.55,76.81Z"/><path class="cls-2" d="M99.34,40.49l19.29-4c-.51,1.12-.87,3.09-1.56,3.2-2.52.44-5.53,4.08-7.07-.73-1.62,2-3.06,5.05-4.27,5C103.53,43.77,101.46,41.74,99.34,40.49Z"/><path class="cls-7" d="M124.45,60.47c-.94,1.28-1.61,3-2.85,3.78a42.9,42.9,0,0,0-14.52,16.67c-.66,1.27-2.72,1.8-4.13,2.67,1.94-3.21,4.09-6.31,5.77-9.65C112.11,67.2,118,63.6,124.45,60.47Z"/><path class="cls-10" d="M120.42,36.52l9.14-2.06-3,5.5Z"/><path class="cls-11" d="M96.52,35.52v1.95l-2,2-4,1.76h-5l2-3.82Z"/><path class="cls-10" d="M130.39,34.59l9.09-2.17-4.89,7.13Z"/><path class="cls-1" d="M114.52,81.67c-.21-2.49.4-4.32,3.42-4.16Z"/><path class="cls-7" d="M90.48,41.22l4-1.76c0,.33,0,.65,0,1Z"/><path class="cls-1" d="M110.63,86.67c-.43-2.61.36-4.24,3.3-4.16Z"/><path class="cls-7" d="M102.64,83.9c1.25,2.91-.82,2.38-2.42,2.35Z"/><path class="cls-7" d="M100.29,86.17l-3.06,2.17Z"/><path class="cls-9" d="M82.89,85.15c-2.27,1.87-4.21,4.35-5.1,4C76.12,88.55,74,86.24,74,84.74c.08-1.69,2.41-3.27,3.77-4.89Z"/><path class="cls-10" d="M11.59,38.49c11.27-2.7,22.56-5.37,33.82-8.14,2.17-.54,4.24-1.5,6.36-2.26l5.11,7.35c-.15.65-.29,1.31-.44,2-7.29,1.15-14.62,2.15-21.87,3.51-7.09,1.32-14.1,3-21.15,4.54l0-.05c-.64-1.64-1.29-3.28-1.93-4.93C11.54,39.82,11.56,39.15,11.59,38.49Z"/><path class="cls-1" d="M13.42,45.46c7-1.53,14.06-3.22,21.15-4.54,7.25-1.36,14.58-2.36,21.87-3.51.06.64.11,1.28.17,1.92-.43,1-.85,2.09-1.28,3.13C43.41,44.92,31.44,47.15,19.6,50,13.51,51.38,13.61,51.83,13.42,45.46Z"/><path class="cls-12" d="M93.45,19.36c5.25,1.56,3.48,6.49,4.79,9.94L87.4,31.53l.07-.19c-.34-3-.69-5.93-1-8.9Z"/><path class="cls-6" d="M93.45,19.36l-7,3.08-1-3Z"/><path class="cls-6" d="M87.4,31.53,98.24,29.3l-1.72,6.22-9.06,1.89Z"/><path class="cls-6" d="M55.13,44.36c.16-.65.32-1.3.49-2C55.45,43.06,55.29,43.71,55.13,44.36Z"/><path class="cls-7" d="M11.52,40.48c.64,1.65,1.29,3.29,1.93,4.93-1,2.33-2,4.65-3,7C8.24,51.61,4.59,51.28,4.2,50c-.92-3.13-.39-6.72-.19-10.1,0-.32,1.88-.86,2.81-.73A30.51,30.51,0,0,1,11.52,40.48Z"/></g></g></svg>