<svg xmlns="http://www.w3.org/2000/svg" viewBox="0 0 78.17 158.47"><defs><style>.cls-1{fill:#2f2f2e;}.cls-2{fill:#333;}.cls-3{fill:#464646;}.cls-4{fill:#5b5a5a;}.cls-5{fill:#e5b90b;}.cls-6{fill:#fbcb06;}.cls-7{fill:#8c8c8c;}.cls-8{fill:#eac10a;}</style></defs><title>pompeColor</title><g id="Layer_2" data-name="Layer 2"><g id="Layer_1-2" data-name="Layer 1"><path class="cls-1" d="M36.84,48.48v87.68l-.09,5.54c.13,1.54.25,3.08.38,4.62-.14.88-.28,1.77-.43,2.65-.05,3.55-1.8,4.95-5.3,4.35a30.56,30.56,0,0,0-3.95-.2c.32-5.28,1-10.56.91-15.84-.12-11.44-.09-22.91-1.07-34.29-1.09-12.47-2.95-24.9-5.2-37.21-.45-2.45-4.2-4.29-6.42-6.41l-.27-11Z"/><path class="cls-2" d="M15.67,59.37c2.22,2.12,6,4,6.42,6.41,2.25,12.31,4.11,24.74,5.2,37.21,1,11.38.95,22.85,1.07,34.29.06,5.28-.59,10.56-.91,15.84l-12.12.23q.06-44,.14-88C15.48,63.34,15.6,61.35,15.67,59.37Z"/><path class="cls-3" d="M57.41,142.4h9c7.39,0,8.79-1.38,8.79-8.65q0-36.21,0-72.42c0-3.33-.12-6.66,0-10,0-1.1.8-2.17,1.23-3.25l1.38.31c.11,1.39.32,2.78.32,4.17q0,40.7,0,81.41c0,8.66-2.71,11.37-11.3,11.39H57.37C57.38,144.38,57.39,143.39,57.41,142.4Z"/><path class="cls-4" d="M15.33,153.35l12.12-.23a30.56,30.56,0,0,1,3.95.2c3.5.6,5.25-.8,5.3-4.35.28,1.28.55,2.57.81,3.8,4.59,2,11.65-2.58,14.58,5.7H.82L0,157c2.11-1.22,4.1-3,6.37-3.52C9.24,152.83,12.33,153.33,15.33,153.35Z"/><path class="cls-5" d="M23,6.43l-1.53-.75L31.44,0l2.28.59c0,1.59,0,3.19,0,4.78L29.31,6.82V38.36c-1-3.76-2.1-7.48-2.82-11.28C25.18,20.22,24.13,13.31,23,6.43Z"/><path class="cls-4" d="M36.84,48.48,15.4,48.39l-.18.16c3.22-1.44,6.4-3,9.67-4.29,3.47-1.39,7-2.58,10.54-3.87l6,0,1,1v6.5Z"/><path class="cls-6" d="M23,6.43c1.15,6.88,2.2,13.79,3.51,20.65.72,3.8,1.86,7.52,2.82,11.28l.18,1.58-5,.22-1-.19-.77,0Z"/><path class="cls-7" d="M24.47,40.16l5-.22,5.94.45c-3.52,1.29-7.07,2.48-10.54,3.87-3.27,1.32-6.45,2.85-9.67,4.29l-2.89-.45-2.17-3c-.09-1.42-.17-2.84-.32-5.15h12.9l.77,0Z"/><path class="cls-8" d="M57.41,142.4c0,1,0,2,0,3-4.95.31-9.9.65-14.85.92-1.8.1-3.6,0-5.39,0-.13-1.54-.25-3.08-.38-4.62a1.6,1.6,0,0,0,.72-.34c5.09,0,10.19,0,15.29.15A29.09,29.09,0,0,1,57.41,142.4Z"/><path class="cls-3" d="M33.68,5.37c0-1.59,0-3.19,0-4.78H50.59c.08,1.53.16,2.91.27,4.78Z"/><path class="cls-3" d="M18.51,5.38H1.79L1.39.55H18.46C18.48,2.16,18.49,3.77,18.51,5.38Z"/><path class="cls-6" d="M18.51,5.38c0-1.61,0-3.22-.05-4.83l13-.55-10,5.68Z"/><path class="cls-7" d="M75.38,19.88c3.39,6.66,2.39,21.81,0,24.26Z"/><path class="cls-4" d="M10.16,45.15l2.17,3Z"/><path class="cls-7" d="M37.47,141.36a1.6,1.6,0,0,1-.72.34l.09-5.54Z"/><path class="cls-7" d="M42.37,41.4l-1-1Z"/><path class="cls-5" d="M24.47,40.16l-1-.19Z"/></g></g></svg>