<svg xmlns="http://www.w3.org/2000/svg" viewBox="0 0 74.23 56.93"><defs><style>.cls-1{fill:#648283;}.cls-2{fill:#869ea2;}.cls-3{fill:#4b686d;}.cls-4{fill:#3d4b6a;}.cls-5{fill:#5c6d75;}.cls-6{fill:#e39e03;}</style></defs><title>sonette</title><g id="Layer_2" data-name="Layer 2"><g id="Layer_1-2" data-name="Layer 1"><path class="cls-1" d="M14,6C23-.43,32.69-1.65,43.06,2.14c-.52,3.17-2.49,4.19-5.48,3.73,0-.74.27-1.88-.11-2.17C34.74,1.55,28.58,2.12,25.32,6H37.18c-2.56.35-5.15.52-7.65,1.09-3.65.81-8.08.93-9.26,5.44s.42,8.56,4.28,11.41A15.2,15.2,0,0,0,28.48,26c9.4,3.33,24.2-1.66,30.71-10.3q1.94,3.68,3.89,7.35c0,1.31,0,2.62,0,3.93a55.62,55.62,0,0,1-5.89,3.46c-8.58,3.78-17.69,3.78-26.86,3.63C16.73,33.87,8.85,22.48,13.66,9.86,14.1,8.69,13.87,7.27,14,6Z"/><path class="cls-2" d="M37.58,5.87c3,.46,5-.56,5.48-3.73,7,2.62,12.8,6.63,16.13,13.59C52.68,24.37,37.88,29.36,28.48,26A15.2,15.2,0,0,1,24.55,24c-3.86-2.85-5.48-6.85-4.28-11.41s5.61-4.63,9.26-5.44C32,6.55,34.62,6.38,37.17,6Z"/><path class="cls-3" d="M14,6c-.08,1.29.15,2.71-.29,3.88-4.81,12.62,3.07,24,16.68,24.24,9.17.15,18.28.15,26.86-3.63A55.62,55.62,0,0,0,63.09,27c1.15,1.2,5.64-2.42,4,2.78L63.36,35c-9.73,3.82-20,4.72-30.28,5.05a16.35,16.35,0,0,0-4.14-.93A73,73,0,0,1,.9,35C-1.18,24.33,3.43,16.05,10.4,8.67A24.89,24.89,0,0,1,14,6Z"/><path class="cls-1" d="M45,56.93l-27,0,1.12-14.75L30.05,43l13.08-.93Z"/><path class="cls-2" d="M45,56.93q-1-7.43-1.91-14.83l20.52-4.18c.12,1.3.35,2.6.36,3.91.16,11.94-.08,12.24-12.13,14.33C49.62,56.55,47.32,56.68,45,56.93Z"/><path class="cls-3" d="M19.18,42.16q-.57,7.38-1.12,14.75c-1.16-.08-2.33-.06-3.46-.25C-.44,54.05-.87,53.47.51,38Z"/><path class="cls-4" d="M19.18,42.16.51,38,.9,35a73,73,0,0,0,28,4.13,16.35,16.35,0,0,1,4.14.93l-3,3Z"/><path class="cls-5" d="M30.05,43l3-3C43.4,39.73,53.63,38.83,63.36,35c.1,1,.19,1.94.29,2.91L43.13,42.1Z"/><path class="cls-2" d="M67.11,29.79c1.62-5.2-2.87-1.58-4-2.78,0-1.31,0-2.62,0-3.93,3.86-.61,8-2.73,11.15,2.24Z"/><path class="cls-6" d="M37.58,5.87,37.17,6H25.32c3.26-3.91,9.42-4.48,12.15-2.33C37.85,4,37.56,5.13,37.58,5.87Z"/></g></g></svg>