<svg xmlns="http://www.w3.org/2000/svg" viewBox="0 0 151.27 151.29"><defs><style>.cls-1{fill:#ef2917;}.cls-2{fill:#775a72;}.cls-3{fill:#7b6481;}.cls-4{fill:#fba017;}.cls-5{fill:#6a3b5f;}.cls-6{fill:#7a7894;}.cls-7{fill:#553157;}.cls-8{fill:#656385;}.cls-9{fill:#47496c;}.cls-10{fill:#3a3e64;}.cls-11{fill:#525376;}.cls-12{fill:#eff0ef;}.cls-13{fill:#262a4e;}.cls-14{fill:#2b315f;}</style></defs><title>STOPok</title><g id="Layer_2" data-name="Layer 2"><g id="Layer_1-2" data-name="Layer 1"><path class="cls-1" d="M104.13,5.47l2,.68,8,4.2L128,21.52l-1,.78c-9-7.77-18.92-14.13-30.51-17.46C76.77-.81,57.93,1.63,39.79,10.74L39,9.8C56.37-.39,74.86-2.16,94.2,2.31c1.28.3,2.58.54,3.87.81Z"/><path class="cls-1" d="M150,61.08q.51,3,1,6c.84,13.31-.4,26.29-6.18,38.55l-1-.91a82.2,82.2,0,0,0,5.3-36.15c-1.06-12-5.59-22.8-11.27-33.22l1-.92Z"/><path class="cls-1" d="M128,21.52l10.91,12.94-1,.92L127,22.3Z"/><path class="cls-1" d="M30,15.75l5.6-4.56,2.2-.79.8,1-7.73,5.24Z"/><path class="cls-1" d="M37.77,10.4,39,9.8l.77.94c-.4.23-.8.46-1.21.68Z"/><path class="cls-1" d="M104.67,145.72l-2.77,1.14c-18.5,6.12-36.89,6-55.14-1L29.81,135.56c.27-.33.55-.65.83-1,.85.52,1.72,1,2.54,1.56C48.89,146.91,66.13,151.3,85.1,149c11.94-1.49,22.64-6.17,32.78-12.37l.76,1Z"/><path class="cls-1" d="M135.28,121.08c-.65,1.33-1.31,2.65-2,4l-.12.1-.94.89-1.78,1.22-1-.82Z"/><path class="cls-1" d="M144.85,105.66l-3.38,6.6-1-.8,3.35-6.71Z"/><path class="cls-1" d="M121.72,135.77l-1.31.47-.91-.93,5-4,.93,1Z"/><path class="cls-2" d="M128.28,130.17c.62,2,.34,3.09-2.06,2,.41-.61.82-1.22,1.22-1.83A4.05,4.05,0,0,1,128.28,130.17Z"/><path class="cls-1" d="M140.05,115.66l-1.68.54,1.45-3.54,1,.87C140.54,114.24,140.3,115,140.05,115.66Z"/><path class="cls-1" d="M127.44,130.29c-.4.61-.81,1.22-1.22,1.83-.27,0-.54.06-.81.11l-.93-1,2.15-1.94Z"/><path class="cls-1" d="M141.47,112.26l-.69,1.27-.95-.87c.21-.4.42-.8.64-1.2Z"/><path class="cls-2" d="M132.25,126.05l.94-.89Z"/><path class="cls-1" d="M130.47,127.27l-1,1-.92-.9.93-1Z"/><path class="cls-1" d="M129.5,128.31l-1,1-.89-.87c.33-.33.65-.67,1-1Z"/><path class="cls-1" d="M128.28,130.17a4.05,4.05,0,0,0-.84.12l-.81-1,1-.92.89.87C128.41,129.58,128.34,129.87,128.28,130.17Z"/><path class="cls-1" d="M11.61,115.71,8.34,111c-.65-1.35-1.3-2.69-2-4Q3.2,94,0,81,0,74.07.1,67.1l6.54-23Q10.84,37.5,15,30.87c.31.27.61.55.91.83-5.71,8.64-10.27,17.77-12.51,28C-.88,79.3,2.85,97.54,12.57,114.8Z"/><path class="cls-1" d="M15.64,29.17l3.41-3.31.94.91-4,4.93c-.3-.28-.6-.56-.91-.83C15.24,30.3,15.44,29.73,15.64,29.17Z"/><path class="cls-1" d="M18.74,125.86q-2.32-3.33-4.67-6.64l.94-.87,15.63,16.23c-.28.33-.56.65-.83,1L21.61,129C20.65,127.93,19.7,126.89,18.74,125.86Z"/><polygon class="cls-3" points="27.31 139.3 27 139.03 27.37 138.9 27.31 139.3"/><path class="cls-1" d="M25,19.83,30,15.75l.87.91-5,4.13Z"/><path class="cls-1" d="M21,23.79l3-3,.92.8-3,3.08Z"/><path class="cls-1" d="M19.05,25.86,21,23.79l.9.88L20,26.77Z"/><path class="cls-1" d="M24,20.79l1.08-1,.82,1-1,.8Z"/><path class="cls-1" d="M120.41,136.24l-1.77,1.3-.76-1,1.62-1.27Z"/><path class="cls-1" d="M14.07,119.22l-2.46-3.51,1-.91c.81,1.19,1.62,2.37,2.44,3.55Z"/><path class="cls-4" d="M15,118.35c-.82-1.18-1.63-2.36-2.44-3.55C2.85,97.54-.88,79.3,3.43,59.68c2.24-10.21,6.8-19.34,12.51-28l4-4.93,1.88-2.1,3-3.08,1-.8,5-4.13,7.73-5.24c.41-.22.81-.45,1.21-.68,18.15-9.11,37-11.55,56.67-5.9C108,8.17,117.91,14.53,127,22.3l10.89,13.08c5.68,10.42,10.21,21.19,11.27,33.22a82.2,82.2,0,0,1-5.3,36.15l-3.35,6.71c-.22.4-.43.8-.64,1.2-.49,1.18-1,2.36-1.46,3.54l0-.11-1.05,2h0c-.67,1-1.34,2-2,3h0l-5.77,5.37-.93,1-1,1-1,.92-2.15,1.94-5,4-1.62,1.27C107.74,142.78,97,147.46,85.1,149c-19,2.35-36.21-2-51.92-12.81-.82-.56-1.69-1-2.54-1.56Zm11.74-93.9-1,1-2,2.09-2.8,3.23-1.28,1.61Q16.56,37,13.53,41.67l-.95,1.71-1,2c-12.2,21.66-8.35,56,8.32,74,1.25,1.46,2.5,2.93,3.75,4.38l3.08,3,.71.75,2.25,2.06,2.2,1.84c13.69,11.43,29.69,16,47.21,15.19,14.25-.63,27.38-4.83,38.56-14.1l6.09-4.94,4-4.07c24.62-22.81,25-70.82.78-94.77l-.93-1.09-3-3-1-1-1-1-9.8-7.23c-21.43-15.88-59.71-14-80.15,4l-4.87,4.12Z"/><path class="cls-1" d="M135.27,121.09c.68-1,1.35-2,2-3C136.62,119.08,136,120.09,135.27,121.09Z"/><path class="cls-1" d="M137.28,118.09l1.05-2Z"/><path class="cls-1" d="M128.56,28.77c24.23,24,23.83,72-.79,94.77l-.74-.67L140,101l3.15-11.14.35-1.58C146.7,74.36,144.7,61,139,48L127.6,29.63Z"/><path class="cls-1" d="M117.66,132.55c-11.18,9.27-24.31,13.47-38.56,14.1-17.52.77-33.52-3.76-47.21-15.19l.83-.9c9.46,6.74,19.67,11.7,31.26,13.58,19.38,3.15,36.9-1.51,53-12.44Z"/><path class="cls-1" d="M19.9,119.38c-16.67-18-20.52-52.33-8.32-74l.87.82Q9.69,56.63,6.92,67.06L6.49,81l.9,6.1c.27,1.35.53,2.69.8,4,1.64,10.3,6.71,19,12.63,27.33Z"/><path class="cls-1" d="M32.6,19.45c20.45-17.95,58.73-19.84,80.16-4-.25.28-.5.57-.74.86-1.48-.75-2.94-1.51-4.42-2.24C90.69,5.71,73.22,3.72,55.08,9.55a1.68,1.68,0,0,0-.81.43L33.4,20.25C33.14,20,32.87,19.72,32.6,19.45Z"/><path class="cls-1" d="M112.76,15.49l9.8,7.23-.85,1L112,16.35Z"/><path class="cls-1" d="M13.52,41.67q3-4.66,6.1-9.32l.78.84-5.94,9Z"/><path class="cls-1" d="M123.76,127.61l-6.1,4.94c-.24-.28-.48-.56-.71-.85l6-4.94Z"/><path class="cls-1" d="M27.74,23.57l4.86-4.12c.27.27.54.53.8.8l-4.9,4.09Z"/><path class="cls-1" d="M23.65,123.77l-3.75-4.39.92-.9,3.32,3.36.26,1.1Z"/><path class="cls-1" d="M127.77,123.54c-1.34,1.36-2.68,2.71-4,4.07l-.77-.85,4-3.89Z"/><path class="cls-1" d="M124.61,24.71l3,3-.78.85-3.15-3Z"/><path class="cls-1" d="M20.89,30.74l2.81-3.23.85.8-.71,1.53-2,1.78Z"/><path class="cls-1" d="M26.73,126.82l-3.08-3.06.75-.82,3,3Z"/><path class="cls-1" d="M31.89,131.46l-2.2-1.84.77-.8,2.26,1.74Z"/><path class="cls-1" d="M29.69,129.62l-2.25-2.06.93-.62,2.09,1.88Z"/><path class="cls-1" d="M23.7,27.51l2-2.09.72.86-1.91,2Z"/><path class="cls-1" d="M11.58,45.39c.34-.67.67-1.34,1-2l.87.83c-.33.67-.66,1.34-1,2Z"/><path class="cls-1" d="M12.58,43.38c.32-.57.63-1.14.94-1.71l.94.56-1,2Z"/><path class="cls-1" d="M19.62,32.35c.42-.54.85-1.08,1.28-1.61l.94.88L20.4,33.19Z"/><path class="cls-1" d="M122.56,22.72l1,1-.92.91-1-.92Z"/><path class="cls-1" d="M27.44,127.56l-.71-.75.67-.89,1,1Z"/><path class="cls-1" d="M127.62,27.68l.93,1.09-1,.86-.76-1.1Z"/><path class="cls-1" d="M25.74,25.42l1-1,.73.85-1,1Z"/><path class="cls-1" d="M123.6,23.72l1,1-.92.85-1-.93Z"/><path class="cls-1" d="M26.75,24.45l1-.88.76.77-1,1Z"/><path class="cls-5" d="M28.37,126.94l-1-1-3-3c-.09-.37-.18-.73-.26-1.1,3-9.57,1.57-12.72-7.44-16.47l8.48-.5c1.26.25,3.53.32,3.62.78.8,4.51,4.5,3.77,7.43,4.43q1.5,5.46,3,10.94c-2,8.21,6.28,3.13,8.4,6.56-2.77,3-1.11,4.15,2,5.37,2.17.84,4,2.69,5.91,4.09-.18.37-.36.74-.53,1.11l27.22,2.92v0c1.94-.25,4.13,0,5.78-.87,3.81-1.9,7.11-5.3,11.06-6.27,4.88-1.19,6.22-3.35,5.27-7.79,2.85,0,5.07-.66,4.86-4.18l6.09-2.06,6.52-7.42-6.29-4.38c2.74-.71,5-1.2,7.22-1.93a12.24,12.24,0,0,0,2.61-1.74l-2.2-2.35,1.22-2c2,0,4,0,6,.11,3.22.21,6.42.54,9.63.81l-13,21.84-4,3.89-6,4.94c-16.07,10.93-33.59,15.59-53,12.44-11.59-1.88-21.8-6.84-31.26-13.58l-2.26-1.74Z"/><path class="cls-5" d="M122.68,24.63l1,.93,3.15,3,.76,1.1L139,48l-11.79.09-2.1-.19c-2.89-6.9-4-15-13.21-18.33l8-1.81-8.49-7.18c-.88,4.42-2.86,3.06-6.12,1.22-5.94-3.35-12.22-7.73-18.64-8.26-9.7-.79-20.28-3.44-29.52,4.16-.79-3.13-1.43-5.64-2.06-8.16,18.14-5.83,35.61-3.84,52.52,4.56,1.48.73,2.94,1.49,4.42,2.24l9.69,7.36Z"/><path class="cls-2" d="M127.22,48.1,139,48c5.69,13,7.69,26.35,4.48,40.3-3.55-.39-7.12-.62-10.63-1.23a33.38,33.38,0,0,1-5.64-2c2.43-1.65,4.76-3.45,7.3-4.91,4.38-2.54,5.16-7.82,1.59-12L126.24,67c-.45-2.94-.9-5.87-1.34-8.81l1.28-4.14C126.53,52.09,126.87,50.09,127.22,48.1Z"/><path class="cls-2" d="M140,101c-3.21-.27-6.41-.6-9.63-.81-2-.13-4-.08-6-.11q-.54-3.27-1.09-6.56l2.92-2.47,16.94-1.19Z"/><path class="cls-6" d="M143.14,89.89,126.2,91.08q0-3,0-6l1,0a33.38,33.38,0,0,0,5.64,2c3.51.61,7.08.84,10.63,1.23Z"/><path class="cls-2" d="M20.4,33.19l1.44-1.57,2-1.78c2.89,6.85,2.18,12.8-5.9,17.65l6.29.62c-1.12,3.71-1.33,7.29,1.62,10.37L24.65,67l-17.73.1q2.76-10.43,5.53-20.85c.34-.66.67-1.33,1-2l1-2Z"/><path class="cls-3" d="M6.92,67.06,24.65,67q.08,12.08.16,24.14l-16.62.05c-.27-1.35-.53-2.69-.8-4H24.11C18.47,80.88,12.46,81,6.49,81Z"/><path class="cls-2" d="M8.19,91.15l16.62-.05,5.41,2.47c-.64,2.46-1.27,4.92-1.91,7.37l-3.13,3.93-8.48.5c9,3.75,10.48,6.9,7.44,16.47l-3.32-3.36C14.9,110.16,9.83,101.45,8.19,91.15Z"/><path class="cls-2" d="M6.49,81c6,0,12-.13,17.62,6.09H7.39Z"/><path class="cls-7" d="M55.08,9.55c.63,2.52,1.27,5,2.06,8.16,9.24-7.6,19.82-5,29.52-4.16,6.42.53,12.7,4.91,18.64,8.26,3.26,1.84,5.24,3.2,6.12-1.22l8.49,7.18-8,1.81c9.21,3.32,10.32,11.43,13.21,18.33l-12.89,0c1.46-7.65.16-14.11-7.55-17.93-.67-.33-1.06-1.24-1.58-1.89-1.22-1-2.29-2.56-3.66-2.89C80.86,20.77,62.49,21,44.5,28.09l-1.29,1L31.34,27.68c6.74-3.62,13.62-6.3,20.43-9.16a4.27,4.27,0,0,0,2.28-2.6A33.49,33.49,0,0,0,54.27,10,1.68,1.68,0,0,1,55.08,9.55Z"/><path class="cls-5" d="M54.27,10a33.49,33.49,0,0,1-.22,5.94,4.27,4.27,0,0,1-2.28,2.6C45,21.38,38.08,24.06,31.34,27.68l11.87,1.37c-.58.55-1.15,1.58-1.74,1.58-5.73.07-6.74,4.5-7.87,8.58A70.33,70.33,0,0,0,32.25,48l-8,.16-6.28-.62c8.08-4.85,8.79-10.8,5.9-17.65l.71-1.53,1.91-2,1-1,1-1,4.9-4.09Z"/><path class="cls-8" d="M28.31,100.94c.64-2.45,1.27-4.91,1.91-7.37,1.64-.13,3.29-.37,4.94-.38q35.12,0,70.23,0c6,0,11.93.24,17.89.37q.56,3.28,1.09,6.56l-1.21,2c-4-.39-8.68,1.56-10.62-3L107.26,102c-5.28-.2-10.56-.37-15.84-.61s-10.44-.81-15.65-.74c-4.44.06-8.87.88-13.31,1.27-3.37.3-6.48,0-6.55-3.7L42.22,102Z"/><path class="cls-7" d="M82.25,141.07,55,138.15c.17-.37.35-.74.53-1.11-2-1.4-3.74-3.25-5.91-4.09-3.14-1.22-4.8-2.42-2-5.37-2.12-3.43-10.36,1.65-8.4-6.56l10-1,5,1c.13,2.53.27,5.06.36,6.74,3-.64,5.41-1.56,7.82-1.6,12.62-.21,25.25-.19,37.87-.25l3.1,0c.24,0,.47,0,.71,0l.27.27c1,4.44-.39,6.6-5.27,7.79-4,1-7.25,4.37-11.06,6.27-1.65.83-3.84.62-5.78.87l1.14-.55Z"/><path class="cls-9" d="M42.22,102l13.69-3.78c.07,3.73,3.18,4,6.55,3.7,4.44-.39,8.87-1.21,13.31-1.27,5.21-.07,10.43.5,15.65.74s10.56.41,15.84.61c.89,1.23,2.82,3,2.51,3.61-2.72,5,1.24,4.82,4,5.46,3.27.74,4.84,2.15,2.79,5.56a20.6,20.6,0,0,0-1.29,3.22l-6.09,2.06c-3.85-1.36-8.43-2.11-5.46-8.22.33-.68-1.63-2.47-2.52-3.74-1.14-1-2.16-2.54-3.45-2.82a78.46,78.46,0,0,0-9.34-1l-17.35,0c-7.75.32-15.49.62-23.23,1C44.31,107.22,42.06,106,42.22,102Z"/><path class="cls-10" d="M101.23,110c.89,1.28,2.85,3.07,2.52,3.75-3,6.11,1.61,6.86,5.46,8.22.21,3.52-2,4.22-4.86,4.18l-.27-.27a.75.75,0,0,0-.71,0l-3.1,0c-2.18-.94-4.3-2.5-6.55-2.73-10.15-1-12.15-3.74-9.69-14.12Z"/><path class="cls-11" d="M42.22,102c-.16,4,2.09,5.19,5.64,5,7.74-.33,15.48-.63,23.23-1l11.1,1c0,1,0,2,0,2.92l-35,.06-11,0c-2.93-.66-6.63.08-7.43-4.43-.09-.46-2.36-.53-3.62-.78l3.13-3.93Z"/><path class="cls-11" d="M115.3,119.88a20.6,20.6,0,0,1,1.29-3.22c2-3.41.48-4.82-2.79-5.56-2.79-.64-6.75-.44-4-5.46.31-.58-1.62-2.38-2.51-3.61l5.28-2.93c1.94,4.52,6.64,2.57,10.62,3l2.2,2.35a12.24,12.24,0,0,1-2.61,1.74c-2.2.73-4.48,1.22-7.22,1.93l6.29,4.38Z"/><path class="cls-9" d="M36.23,110.08l11,0c.66,3.32,1.33,6.64,2,10l-10,1Q37.72,115.55,36.23,110.08Z"/><path class="cls-11" d="M112.23,48l12.89,0,2.1.19q-.52,3-1,6c-3.26.16-6.55.1-9.76.57-1.47.22-2.8,1.48-4.19,2.27l-1,1c-6.33.06-12.66.2-19,.17q-25-.11-49.95-.31c-.48-.83-.77-2.11-1.47-2.41-3.66-1.55-3.67-4.2-2.55-7.32L48.33,48l7.7,2c.66-.32,2.21-1.75,3.75-1.74,17.29.22,34.58.65,51.87,1C111.83,49.16,112,48.37,112.23,48Z"/><path class="cls-12" d="M42.29,57.78q25,.16,49.95.31c6.33,0,12.66-.11,19-.17l1,.09,12.64.22c.44,2.94.89,5.87,1.34,8.81l0,15,0,3q0,3,0,6l-2.92,2.47c-6-.13-11.92-.36-17.89-.37q-35.11-.06-70.23,0c-1.65,0-3.3.25-4.94.38L24.81,91.1Q24.74,79,24.65,67l1.2-8.48ZM120.4,68.1c1-3.49-.34-4.81-3.94-4.8-27.45.08-54.89,0-82.34.17-1.22,0-2.44,1.69-3.65,2.6q0,9,0,18c-1,4.33,2,4,4.72,4q40.05,0,80.1,0c1.62,0,3.23-.18,5.14-.29V82Z"/><path class="cls-3" d="M126.18,85.08l0-3c1.42-1.27,3.18-2.31,4.19-3.85,2.11-3.21,3.83-6.68,5.71-10,3.57,4.15,2.79,9.43-1.59,12-2.54,1.46-4.87,3.26-7.3,4.91Z"/><path class="cls-6" d="M136.11,68.18c-1.88,3.36-3.6,6.83-5.71,10-1,1.54-2.77,2.58-4.19,3.85l0-15Z"/><path class="cls-8" d="M124.9,58.23,112.26,58c0-.36,0-.72,0-1.08,1.39-.79,2.72-2,4.19-2.27,3.21-.47,6.5-.41,9.76-.57Z"/><path class="cls-8" d="M42.29,57.78l-16.44.7c-3-3.08-2.74-6.66-1.62-10.37l8-.16,6,.1c-1.12,3.12-1.11,5.77,2.55,7.32C41.52,55.67,41.81,57,42.29,57.78Z"/><path class="cls-10" d="M112.23,48c-.2.42-.4,1.21-.58,1.21-17.29-.32-34.58-.75-51.87-1-1.54,0-3.09,1.42-3.75,1.74l-7.7-2A16.38,16.38,0,0,0,47.69,45c-3-7.36-1.27-11.26,6.21-14.07a51.33,51.33,0,0,0,5.18-2.62c5.48.24,11,.6,16.44.66,3.47,0,6.63.11,6.64,3.77,1.83-1.22,3.55-3.23,5.53-3.54,5.07-.77,10.26-.79,15.41-1.11.52.65.91,1.56,1.58,1.89C112.39,33.84,113.69,40.3,112.23,48Z"/><path class="cls-13" d="M103.1,28.13c-5.15.32-10.34.34-15.41,1.11-2,.31-3.7,2.32-5.53,3.54C82.15,29.12,79,29,75.52,29c-5.48-.06-11-.42-16.44-.66L44.5,28.09c18-7.12,36.36-7.32,54.94-2.85C100.81,25.57,101.88,27.14,103.1,28.13Z"/><path class="cls-9" d="M44.5,28.09l14.58.26A51.33,51.33,0,0,1,53.9,31c-7.48,2.81-9.22,6.71-6.21,14.07A16.38,16.38,0,0,1,48.33,48l-10.06.1-6-.1a70.33,70.33,0,0,1,1.35-8.74c1.13-4.08,2.14-8.51,7.87-8.58.59,0,1.16-1,1.74-1.58Z"/><path class="cls-13" d="M82.17,110c0-1,0-1.94,0-2.92H84c0,.66,0,1.32,0,2-2.46,10.38-.46,13.1,9.69,14.12,2.25.23,4.37,1.79,6.55,2.73-12.62.06-25.25,0-37.87.25-2.41,0-4.8,1-7.82,1.6-.09-1.68-.23-4.21-.36-6.74l2.05,0c6-.14,12-.87,17.88-.28,7.81.79,7.93,1.1,8.07-6.67Z"/><path class="cls-10" d="M82.17,110c0,1.35,0,2.7,0,4-6.54.43-13.17.39-19.59,1.51-2.36.41-4.25,3.55-6.36,5.44l-2.05,0-5-1c-.66-3.32-1.33-6.64-2-10Z"/><path class="cls-5" d="M82.25,141.07l1.13-.57-1.14.55Z"/><path class="cls-13" d="M103.37,125.88a.75.75,0,0,1,.71,0C103.84,125.87,103.61,125.88,103.37,125.88Z"/><path class="cls-11" d="M84,109.05c0-.66,0-1.32,0-2l4.4-.94a78.46,78.46,0,0,1,9.34,1c1.29.28,2.31,1.84,3.45,2.82Q92.64,109.5,84,109.05Z"/><path class="cls-10" d="M88.44,106.13l-4.4.94H82.19l-11.1-1Z"/><path class="cls-6" d="M112.24,56.93c0,.36,0,.72,0,1.08l-1-.09Z"/><path class="cls-8" d="M120.42,82v5.76c-1.91.11-3.52.29-5.14.29q-40.05,0-80.1,0c-2.75,0-5.7.29-4.72-4,2-.65,3.92-1.7,5.93-1.86,4.45-.36,9,0,13.41-.44,3.23-.3,6.68-1.5,6.17-5.65-.47-3.92,1.3-5.14,4.59-5.33,2.45-.13,4.91,0,7.37-.06H80.31l.1-2c-2.12-.19-4.25-.47-6.38-.54-13.57-.44-27.14-.81-40.71-1.27a12.07,12.07,0,0,1-2.85-.81c1.21-.91,2.43-2.59,3.65-2.6,27.45-.16,54.89-.09,82.34-.17,3.6,0,4.93,1.31,3.94,4.8-10.61,0-21.21-.06-31.82,0-1.66,0-3.31.79-5,1.22l-.5,1.84c5.62-.15,7.9,3.06,9.29,7.36a3.36,3.36,0,0,0,2.3,1.75c5.08.87,10.18,1.8,15.32,2.2C113.46,82.78,117,82.21,120.42,82Z"/><path class="cls-6" d="M30.47,66.07a12.07,12.07,0,0,0,2.85.81c13.57.46,27.14.83,40.71,1.27,2.13.07,4.26.35,6.38.54l-.1,2H67.93c-2.46,0-4.92-.07-7.37.06-3.29.19-5.06,1.41-4.59,5.33.51,4.15-2.94,5.35-6.17,5.65-4.44.42-9,.08-13.41.44-2,.16-4,1.21-5.93,1.86Q30.46,75,30.47,66.07Z"/><path class="cls-6" d="M120.42,82c-3.47.19-7,.76-10.39.49-5.14-.4-10.24-1.33-15.32-2.2a3.36,3.36,0,0,1-2.3-1.75c-1.39-4.3-3.67-7.51-9.29-7.36l.5-1.84c1.65-.43,3.3-1.2,5-1.22,10.61-.1,21.21,0,31.82,0Z"/><path class="cls-14" d="M56.27,121c2.11-1.89,4-5,6.36-5.44,6.42-1.12,13.05-1.08,19.59-1.51-.14,7.77-.26,7.46-8.07,6.67C68.26,120.11,62.24,120.84,56.27,121Z"/></g></g></svg>