<svg xmlns="http://www.w3.org/2000/svg" viewBox="0 0 40.76 112.83"><defs><style>.cls-1{fill:#89b7e4;}.cls-2{fill:#99ccfd;}.cls-3{fill:#7ba3c9;}.cls-4{fill:#fbcb06;}</style></defs><title>bouteilleColor</title><g id="Layer_2" data-name="Layer 2"><g id="Layer_1-2" data-name="Layer 1"><path class="cls-1" d="M37.77,48c1,1.39,2.82,2.78,2.83,4.19.2,17.28.19,34.58.09,51.87,0,5.31-3.09,8.47-8.33,8.6-8,.2-16,.17-23.94,0-3.67-.09-6.9-1.32-7.7-5.62L.12,106q0-5.48.07-11c3.29-.24,6.7,0,9.85-.8,10.22-2.58,15.18-10.63,17.5-19.82,2.08-8.23,2.25-17,3.26-25.45Z"/><path class="cls-2" d="M30.8,49c-1,8.5-1.18,17.22-3.26,25.45C25.22,83.59,20.26,91.64,10,94.22c-3.15.8-6.56.56-9.85.8C.1,80.64-.08,66.25,0,51.87c0-1.28,1.85-2.56,2.84-3.83a17.68,17.68,0,0,0,3.71.83c7.1.07,14.2,0,21.29,0Z"/><path class="cls-2" d="M30.85,15.86l2,.7c2.38,8,1.8,11-8.43,13.2-7.11,1.55-14.7.92-22.08,1.26-.13-2-.42-4-.37-5.94.15-6.38,2.09-8.41,8.57-9.25Z"/><path class="cls-1" d="M27.89,48.86c-7.1,0-14.2.08-21.3,0A17.68,17.68,0,0,1,2.88,48c5.73-4.77,6.06-6.37,2.71-13,6.29,1.8,12.42,4.12,19.29,2.16,1.31-.37,4,2.11,5.16,3.86.67,1-.26,3.19-.69,4.78A17.38,17.38,0,0,1,27.89,48.86Z"/><path class="cls-1" d="M2.35,31c7.38-.34,15,.29,22.08-1.26,10.23-2.23,10.81-5.24,8.43-13.2,3.59.33,5.81,2.81,5.54,5.88C38,26.61,41.51,31.8,35.85,34.9A42.85,42.85,0,0,0,29.16,34c-8.08.14-16.15.5-24.23.78Z"/><path class="cls-3" d="M4.93,34.76c8.08-.28,16.15-.64,24.23-.78a42.85,42.85,0,0,1,6.69.92c-4,6-3.72,8.19,1.92,13.13l-7,.92-2.92-.09a16.74,16.74,0,0,0,1.47-3c.43-1.59,1.36-3.79.69-4.78-1.19-1.75-3.85-4.23-5.16-3.86-6.87,2-13-.36-19.29-2.16A1.24,1.24,0,0,1,4.93,34.76Z"/><path class="cls-3" d="M30.85,15.86l-20.3,0,3.15-5.19,1.79.68V7.1l8.73.16c1.15,1.49,2.22,4.15,3.49,4.25C31,11.78,30.94,13.61,30.85,15.86Z"/><path class="cls-4" d="M24.22,7.26,15.49,7.1c-2.51.07-3.18-1.49-1.65-3C15.69,2.32,18.13.33,20.51.05c4-.47,6.14,2.44,7.08,6.48Z"/><path class="cls-2" d="M.12,106l.6,1.1Z"/></g></g></svg>