<svg xmlns="http://www.w3.org/2000/svg" viewBox="0 0 145.88 82.93"><defs><style>.cls-1{fill:#373634;}.cls-2{fill:#eac10a;}.cls-3{fill:#b69715;}.cls-4{fill:#2a2929;}.cls-5{fill:#d6aa0c;}.cls-6{fill:#fbcb06;}.cls-7{fill:#c80809;}.cls-8{fill:#e21208;}.cls-9{fill:#464646;}.cls-10{fill:#e5b90b;}</style></defs><title>gant</title><g id="Layer_2" data-name="Layer 2"><g id="Layer_1-2" data-name="Layer 1"><path class="cls-1" d="M17.94,24.51V.8L29.18.26V15.72l1.85.06c.15-2.24.42-4.47.44-6.71.08-9.34,1-10.06,11.32-8V15.75l1.92.06c.15-2.39.42-4.77.43-7.16,0-9.08,1.35-10,11.29-7.33V15.64l1.9.09c.21-4.67.41-9.34.64-14.6L64.1.51a66.24,66.24,0,0,1,0,8.57c-1,8.3-2.32,16.57-3.5,24.85-.62.16-1.66.18-1.79.52-3.59,10-12.36,11.54-21.13,13a34.82,34.82,0,0,1-5.87,0c8.06,2.86,15.24,1.19,25.24-5.09-.59,1.42-.91,3-1.81,4.21C48.16,56,38.33,60.29,27,61.76c-1,.13-1.88,1.28-2.82,2l-6.33-.95C16,49,8.87,37.66,0,26.31l7-3.85L17.51,31.4l1.26-1.13Q18.37,27.39,17.94,24.51ZM38.45,42.22h4.63c1-1.43,1.42-2.94,2.14-3.06a20.3,20.3,0,0,1,4.85.15c.13-1.53.31-3.56.4-4.66L38,38.62C38.16,39.67,38.29,40.79,38.45,42.22Z"/><path class="cls-2" d="M79.05,49.79C75,34.54,76.34,19,76.56,3.51l9.63.79c.28,1.67.7,3.34.82,5,.18,2.35.14,4.72.2,7.08l2.63-.05q.18-6.21.37-12.44c3.06.08,6.12.18,9.17.21a4.18,4.18,0,0,0,1.35-.52l.6,12.64,1.64.06q.32-6.31.62-12.64l9.67.69c.2,1.74,1.1,3.8.47,5.14-1.53,3.25.5,4.78,1.78,6.79l1.7-.13v-12L123.06,3a24.66,24.66,0,0,1,0,5.3c-.74,3.33-.83,7.85-3,9.63-7.75,6.31-9.37,8.45-9.9,16.86-.19,3.11-1.39,6.16-2,8.71l-4-1,1,4.07c-1.33.12-3.46-.34-4.36.51-4.62,4.38-14.21,5.77-20.53,2.58l3.65-2.24-1.36-1.38L80.19,49.7Z"/><path class="cls-1" d="M80.15,63.51l.07-4.89c11.48,1.11,23,2.23,35-.39V38.14l6.74-7.53c5.19,1.77,8.25.29,8.54-4a4.92,4.92,0,0,0,1.91-.41c1.73-1.27,3.62-4,5-3.77,2.88.55,5.46,2.64,8.54,4.31C137,38.13,129.9,49.57,128,63.47L116.8,65.29a48.2,48.2,0,0,1-6,.35C100.59,65,90.38,64.23,80.15,63.51Z"/><path class="cls-3" d="M130.45,26.65c-.29,4.25-3.35,5.73-8.54,4l-6.74,7.53V58.23c-12,2.62-23.47,1.5-34.95.39l-1.17-8.83,1.14-.09,0,0c6.32,3.19,15.91,1.8,20.53-2.58.9-.85,3-.39,4.36-.51l-1-4.07,4,1c.61-2.55,1.81-5.6,2-8.71.53-8.41,2.15-10.55,9.9-16.86,2.19-1.78,2.28-6.3,3-9.63a24.66,24.66,0,0,0,0-5.3l4.69.41c.09,6.11,0,12.23.4,18.33C128.25,23.4,129.65,25,130.45,26.65Z"/><path class="cls-4" d="M24.15,63.72c.94-.68,1.81-1.83,2.82-2C38.33,60.29,48.16,56,55.25,46.63c.9-1.18,1.22-2.79,1.81-4.21q1.77-4.24,3.55-8.49c1.18-8.28,2.48-16.55,3.5-24.85a66.24,66.24,0,0,0,0-8.57h6.27C69.48,16,68.69,31,67.7,46c-.37,5.63-1.19,11.22-1.8,16.83C52.07,67.24,38.12,65.89,24.15,63.72Z"/><path class="cls-5" d="M24.15,63.72c14,2.17,27.92,3.52,41.75-.92q0,6.9,0,13.8c-9.13,1-18.24,2.73-27.38,2.87-6.81.1-13.64-1.83-20.46-2.86q-.11-6.92-.22-13.84Z"/><path class="cls-5" d="M116.8,65.29,128,63.47q-.08,7.25-.16,14.47C112,81.23,96.2,82.24,80.37,78l-.16-3.25c6.9.28,13.92,1.44,20.66.54,5.27-.7,10.25-3.83,15.21-6.2C116.76,68.75,116.58,66.59,116.8,65.29Z"/><path class="cls-6" d="M116.8,65.29c-.22,1.3,0,3.46-.72,3.78-5,2.37-9.94,5.5-15.21,6.2-6.74.9-13.76-.26-20.66-.54l-.06-11.22c10.23.72,20.44,1.48,30.67,2.13A48.2,48.2,0,0,0,116.8,65.29Z"/><path class="cls-7" d="M18,76.61c6.82,1,13.65,3,20.46,2.86,9.14-.14,18.25-1.84,27.38-2.87-.88,1.1-1.58,2.88-2.68,3.18-14.36,4-28.78,3.18-43.12-.17C19.21,79.41,18.71,77.65,18,76.61Z"/><path class="cls-8" d="M80.37,78c15.83,4.26,31.66,3.25,47.49,0-.78.83-1.44,2.2-2.36,2.4-14.08,3-28.21,3.76-42.32.21C82.1,80.28,81.3,78.86,80.37,78Z"/><path class="cls-2" d="M17.94,24.51q.42,2.88.83,5.76L17.51,31.4,7,22.46c1.48.28,3.67,0,4.33.94C13.34,26.15,15.35,26.37,17.94,24.51Z"/><path class="cls-9" d="M86.19,4.3l-9.63-.79C78.24-1.56,82.09,1,85.13,1.22,87.14,1.35,88.19,2.46,86.19,4.3Z"/><path class="cls-9" d="M100.73,3.61a4.18,4.18,0,0,1-1.35.52c-3,0-6.11-.13-9.17-.21,1-1.07,2-3,3-3C95.89.83,99.53-.78,100.73,3.61Z"/><path class="cls-9" d="M113.26,4.36l-9.67-.69c1.5-5.34,5.51-2.59,8.54-2.48C114.19,1.27,115.14,2.5,113.26,4.36Z"/><path class="cls-9" d="M127.75,3.38,123.06,3l-5.85,1.2C118,3.05,118.69,1,119.54,1,122.44.78,126-.62,127.75,3.38Z"/><path class="cls-10" d="M60.61,33.93q-1.78,4.24-3.55,8.49c-10,6.28-17.18,7.95-25.24,5.09a34.82,34.82,0,0,0,5.87,0c8.77-1.47,17.54-3,21.13-13C59,34.11,60,34.09,60.61,33.93Z"/><path class="cls-3" d="M38.45,42.22c-.16-1.43-.29-2.55-.41-3.6l12.43-4c-.09,1.1-.27,3.13-.4,4.66a20.3,20.3,0,0,0-4.85-.15c-.72.12-1.19,1.63-2.14,3.06Z"/><path class="cls-3" d="M80.19,49.7l2.26-3.65,1.36,1.38-3.65,2.24Z"/></g></g></svg>