<svg xmlns="http://www.w3.org/2000/svg" viewBox="0 0 363.25 248.65"><defs><style>.cls-1{fill:#0e2f40;}.cls-2{fill:#d13a56;}.cls-3{fill:#626775;}.cls-4{fill:#8ba6ae;}.cls-5{fill:#a10a29;}.cls-6{fill:#f1b77e;}.cls-7{fill:#20447c;}.cls-8{fill:#295fb8;}.cls-9{fill:#afc4a3;}.cls-10{fill:#f57519;}.cls-11{fill:#e1dcc4;}.cls-12{fill:#31b1e1;}.cls-13{fill:#8e9781;}.cls-14{fill:#f2e2a8;}.cls-15{fill:#fdfbe3;}.cls-16{fill:#c6cf62;}.cls-17{fill:#a2af9a;}.cls-18{fill:#c6b98c;}.cls-19{fill:#bfac51;}.cls-20{fill:#5b8138;}</style></defs><title>ParentKid4</title><g id="Layer_2" data-name="Layer 2"><g id="Layer_1-2" data-name="Layer 1"><path class="cls-1" d="M1.33,173c6.29-18,18-30.53,37.12-34.25,6.92-1.34,14.39.08,21.61.24-.46,1.37-.91,2.74-1.36,4.11a44,44,0,1,0,31.08,57.5A43.7,43.7,0,0,0,64.4,144.9l1.23-4.06c14.69,5.64,24,16.32,29,31,.31,1.44.63,2.88.94,4.33l.84,2.79c1.48,18.89-4.68,34.46-20,46.09l-16.08,7.82-1.93.26-1.51.16-21.13-.72-1.46-.38-1.9-.42-9.17-4.6C5.86,215.82-1.45,199.6.24,179.06Q.78,176,1.33,173Z"/><path class="cls-2" d="M58.7,143.09c.45-1.37.9-2.74,1.36-4.11.12-.6.25-1.21.37-1.83l.84-2.32,4.29-12.94h4.83c3,4,7.36,1.56,11.06,2.27l1-.11.1,0,23.75.78,10,.53c-.32,4.53-2.86,6.16-7.24,5.93-6.56-.34-13.14-.41-19.71-.59a86.23,86.23,0,0,0-9.84-.88c-3.59.07-4.63,2.6-2.1,5.34,9.9,10.73,20,21.3,30,31.93l6.29,6.87,4.87,4.15,1.89,2.16-5.19,9.07-7.74-8.85-4-4.89-3.85-4.88c-4.09-5.32-8.09-10.71-12.29-15.94-2.15-2.67-4.65-5.05-7-7.57L78.47,145l0,0a92.81,92.81,0,0,0-6.21-7.29c-2.44-2.35-4.72-2.22-5.83,1.49l-.77,1.69L64.4,144.9,63.31,148l-9,24.78q-1,2.61-2,5.22l-2.07,5.46-3.78-1.68,1.23-3.51c.53-1.79,1.07-3.59,1.61-5.38q4.17-13.32,8.33-26.65Z"/><path class="cls-3" d="M40.2,100.68a20.11,20.11,0,0,0-3-1.06c-1.69-.33-3.42-.46-5.08-.67l23-12.81,6.44,5.06L59.45,96a30.5,30.5,0,0,0-4.39.12,19,19,0,0,0-3.45,1.23l2,3C49.23,103,44.74,102.58,40.2,100.68Z"/><path class="cls-1" d="M53.63,100.3l-2-3a19,19,0,0,1,3.45-1.23A30.5,30.5,0,0,1,59.45,96c2.64-.62,5.27-1.72,7.92-1.75,6-.07,12,.39,18,.63,0,1.14,0,2.28,0,3.42l-3,.08-1.71.08-9.87.68-.45,4.66-4.94,1.37-4.78-6Z"/><path class="cls-4" d="M65.4,105.12l4.94-1.37.06,13-4.84,0C65.51,112.89,65.45,109,65.4,105.12Z"/><path class="cls-1" d="M65.56,116.77l4.84,0c0,1.7,0,3.4,0,5.1H65.56Z"/><path class="cls-1" d="M334,248.49l-4.14-.05-2.49-.22-2.92-.33-13.87-8.09c-2.28-3.44-5.11-6.64-6.67-10.38-1.32-3.16-3-3.74-5.95-3.5-3.3.27-6.63.08-10,.09,1.31-.2,3,0,3.85-.69,1.64-1.33,3.56-3.06,4-4.93.28-1.26-1.54-3.89-2.95-4.38-1.74-.6-4,.39-6.33.74,3.11.83,5.42,1.24,7.45,2.21.34.16-.29,4-.87,4.11-2,.39-4.23-.1-6.55-.26l.11,2c-2.09-.55-5.45-2.17-6.05-1.46-2.73,3.24-5.34,3.82-7.8,1.84L262.34,241l-12.93,6.94-2.91.35-3.42.41-6.6-.46-1.08-.1-1.93-.31L220.55,241l-6.1-8.05-3-7.06c-3.05,1.18-5.63,2.34-8.3,3.18-12.87,4-25.26,2.23-37.33-3.21-10.42-6.55-18.52-15-22.65-26.88l-.81-.73-2-.29,5.54-3.27c.83,2,1.48,3.46,2.1,5a44.14,44.14,0,0,0,58.77,23.59c2.46-1.09,4.59-2.14,3.46-5.41q1.23-20,19.06-29c6.12-3.85,12.6-3.42,19.19-1.62l-.92,4.17c-2.14-.19-4.28-.55-6.43-.54-13.8.07-24.66,10.06-26.41,24.22-1.55,12.51,7.38,25.32,20.1,28.34,15.8,3.75,31.48-5.92,33.66-24.37,1.17.54,2.32,1.09,3.49,1.61,1.82.79,5.14,2.39,5.25,2.19,1.78-3.17,8.13-2.48,6.94-8l1.83-2,5.42.2,6.65.79c1.28-.77,3.09-1.24,3.76-2.38,3.19-5.41,6.09-11,9.09-16.54l3.48,3.06c-4.28,4.15-7.37,8.94-8.06,15l4.15,1.7c-2.47.34-5.73-.3-4.93,4h-7.76c-.23,1.63-.47,3.32-.84,5.82l9.3-2c1.51.4,3,.91,4.53,1.16s3.15.23,4.73.33l-.05.57L307.47,226c4.56,13.28,18,20.65,30.92,17.33,10.61-2.73,17.57-9.48,19.75-20.22,2.29-11.32-1.32-20.94-11-27.38-10-6.62-20.33-6.3-30.33.51L314,193c7.66-6.16,16.45-7.59,25.7-5.3,13.26,3.27,20.5,12.48,23.55,25.4l-1.2,13.65L352,241.87l-11,5.64-3.5.63Z"/><path class="cls-5" d="M308.05,149.78q-2.16,8.68-4.3,17.38c-.41,1.59-.81,3.18-1.22,4.77l-4.79,1.55-10.81-1.81c-1,2.81-1.85,5.08-2.68,7.35l-1.41-.12-11.28-4.24-.35-1.83,3.14-3a47.65,47.65,0,0,0,5.9-4.37c.88-.87.91-2.58,1.33-3.91l3.92-6.16,11.11-15c6.13.36,9.65,3.9,11.47,9.49Z"/><path class="cls-6" d="M61.57,91.2l-6.44-5.06q3.27-5.44,6.53-10.88l2.84-2.19c5.73-2.47,11-5.53,14-11.36,5.88-.27,7.8,4.2,10,8.34-.41.89-.83,1.77-1.24,2.66L84.39,75C77.83,81.85,70.49,87.64,61.57,91.2Z"/><path class="cls-4" d="M145.81,40.08l1.28.25,10.45,18.46,6,13.26c.39,1,.79,2,1.18,3l1.83,7.31.78,8.73-6.07,2.79-3.89,2L150.9,94c.52-2,1.09-4.09,1.55-6.16.42-1.89,1.53-4.12.94-5.67-2.39-6.34-5.32-12.48-8-18.69q.16-9.76.34-19.54Z"/><path class="cls-7" d="M88.47,70.05c-2.18-4.14-4.1-8.61-10-8.34l1.05-2.89L83.32,54A50.38,50.38,0,0,1,86,48.19C88,45.05,90.16,42.08,92.25,39A40.74,40.74,0,0,0,99.8,59.87Z"/><path class="cls-4" d="M63.31,148l1.09-3.09a43.7,43.7,0,0,1,25.38,55.69,44.06,44.06,0,1,1-31.08-57.5c-.33,1-.67,2.09-1,3.14-8.53-1.7-16.95-1.4-24.94,2.22-10.89,4.93-19.36,12.22-22.24,24.5-.68,2-1.36,4-2,6,.21,5.61-.59,11.49.82,16.79,4.11,15.56,14.39,25.72,30.14,29.29,16.44,3.71,30.33-1.6,40.82-14.6,7.42-9.2,10.31-19.89,7.26-31.71-.4-2-.8-3.93-1.21-5.9C82.75,160.77,74.39,153.12,63.31,148Z"/><path class="cls-4" d="M107.47,180.45l-11-1.47-.84-2.79,7.85-.63Z"/><path class="cls-7" d="M103.46,175.56l-7.85.63c-.31-1.45-.63-2.89-.94-4.33l4.94-1.18Z"/><path class="cls-6" d="M89.3,130.66c6.57.18,13.15.25,19.71.59,4.38.23,6.92-1.4,7.23-5.93l4.19-6.34,3-4,8.76,5.23,1.92,2,2.55,3.82-11,9.29,10.81,4.47,5,4.48q2.74,3.87,5.48,7.73l1.2,3.75-9.21,9.35-4.28-2.9L122.34,151l.07,0L121,149.74c-1.58-3.25-3.45-4.22-7-2-2.55,1.63-5.81,2.14-8.76,3.15Z"/><path class="cls-6" d="M82.52,124c-.52-1.39-1.14-2.76-1.55-4.18a8,8,0,0,1,5.31-10.07c5.31-1.88,10.58-3.85,15.87-5.78l8.53,15.89-6.78,1.7-.53,1.42,2.9,1.8Z"/><path class="cls-7" d="M107.35,167.05l5.74-3.14c-.22-1.26-.42-2.48-.63-3.7,1.92.47,4.31.37,5.68,1.51,4,3.34,5.75,3.37,9.77-.95l4.36,7.31c-.21.51-.41,1-.61,1.54l-18,4.3Z"/><path class="cls-1" d="M132.29,198.81c-10.63,3.62-16.16.54-17.08-9.51l5.19-9.07,7.59-.08c6.38,1.9,10.5.73,11.54-3.26.64-2.46,1.34-4.9,2-7.36l4.79,4.44.08-.06c-.34,1.36-.68,2.71-1,4.06l-4.73,7c-.94-5.56-3.88-2.2-7.56-1.44l4.36,4.8a.7.7,0,0,0-.51.59l-4-.95c-1.09-4.28-4.19-6-8.2-5.58s-7.28,3.06-7,7.08a11.15,11.15,0,0,0,4.62,7.78c2,1.18,5.55-.31,8.41-.62Z"/><path class="cls-4" d="M52.37,178l1.81,1c.41,1.09.84,2.17,1.23,3.26,1.91,5.19-.39,10.46-5.31,12.21s-10.73-.68-11.84-6c-.61-2.94.91-6.32,1.47-9.5l8-.68-1.23,3.51c-3.07.5-4.63,2.53-3.37,5.21.65,1.4,3.46,2.92,4.89,2.6,3-.67,4.05-3.14,2.26-6.13Z"/><path class="cls-4" d="M113.64,173.92l18-4.29-2.06,5.4-1.07,1.08.31,0,.07.3-10.39,1.63Z"/><path class="cls-1" d="M50.3,183.45c1.79,3,.77,5.46-2.26,6.13-1.43.32-4.24-1.2-4.89-2.6-1.26-2.68.3-4.71,3.37-5.21Z"/><path class="cls-6" d="M81.45,124.17a4.51,4.51,0,0,1,1-.11Z"/><path class="cls-3" d="M85.37,94.83c1.1-1.26,2-3,3.36-3.69,4.82-2.23,9.83-4.07,14.76-6l4.92,9.06-3,3.74c-.15-1.42-.29-2.83-.57-5.55l-7,3.55,4.72,2.32c-3.34,3.54-10.45,5.57-14.43,3.7-1.21-.57-1.84-2.41-2.73-3.66C85.4,97.11,85.38,96,85.37,94.83Z"/><path class="cls-3" d="M82.37,98.33l-1.71.08Z"/><path class="cls-8" d="M145.81,40.08c-.05,1.29-.09,2.58-.13,3.88-.42,4-.83,8-1.26,12-.23,2.09-.49,4.18-.73,6.27-4.36-6.33-6.71-7.23-14.23-5.46,2.81-5.78-1-10.38-2.69-15.36,2.39-6.15,5.13-7.71,12.65-7.22L143.2,36c.49.74,1,1.49,1.45,2.23l0,.44.39.18Z"/><path class="cls-3" d="M101.41.86l3.41,1.53,5.49,5.77-3,.89L100.48,5l-.07-.06L93.57.09Z"/><path class="cls-7" d="M107.35,9.05l3-.89,1.57,2.35c.83,2.47,1.67,5,2.51,7.42Z"/><path class="cls-3" d="M84.37,26l-4.75-3.16C78.81,19.92,78,17,77.2,14c0-.39-.06-.78-.1-1.16A.68.68,0,0,0,77,12.1c.43-1.44.87-2.88,1.31-4.32A9.35,9.35,0,0,1,88.89,9.83c4.84,4.85,9.2,10.19,13.76,15.33l-.12,2.58L100.41,27l.21-.21-.16.25-8.78-.2-3.2.14Z"/><path class="cls-3" d="M80.93,3.28l4.41-1.44,15.07,3.1.07.06L113.1,20.91,105.31,25c-3.11-4-6.07-8.16-9.37-12-4.11-4.77-9.23-7.88-15.78-8Z"/><path class="cls-9" d="M80.16,5c6.55.16,11.67,3.27,15.78,8,3.3,3.85,6.26,8,9.37,12l-2.66.12C98.09,20,93.73,14.68,88.89,9.83a9.35,9.35,0,0,0-10.54-2C79,6.85,79.56,5.92,80.16,5Z"/><path class="cls-9" d="M100.41,4.94,85.34,1.84c0-.61.07-1.23.1-1.84l8.13.09Z"/><path class="cls-4" d="M121.09,28.14l18.57,5.14a4.59,4.59,0,0,1-.24.9c-7.52-.49-10.26,1.07-12.65,7.22l-.36,1.35-9-5.16a51.45,51.45,0,0,0,3-5.36A17.6,17.6,0,0,0,121.09,28.14Z"/><path class="cls-4" d="M268.56,219.1c-2.19,18.45-17.87,28.12-33.67,24.37-12.72-3-21.65-15.83-20.1-28.34C216.54,201,227.4,191,241.2,190.91c2.15,0,4.29.35,6.43.54-.22.84-.45,1.69-.68,2.53H235.68c-3,.12-4.35,1.61-5.76,4.36a90.34,90.34,0,0,1-10.11,15.72c-1.87,2.32-3.06,4.13-2.33,7,.07,5.14,2.43,7.26,7.79,7.07s10.8.63,16.2,1l-.06,1.6L223,232.45a23.19,23.19,0,0,0,1.59,2.39c7.15,7.94,16.6,7.55,25.43,5.39,8.6-2.12,13.5-9.08,15.52-17.86.38-1.68,1.73-3.13,2.64-4.69l.39.24Z"/><path class="cls-10" d="M328.05,218.09l-21.73,4.5-9.3,2c.37-2.5.61-4.19.84-5.82h7.76l21.33-4,2.42-.57-2-2.27L314.46,198,311,195l-4.19-4.72c-3.11,8.5-5.88,16.07-8.66,23.64l-6.65-.79c1.17-2.68,2.33-5.35,3.5-8,2.19-4.72,4.45-9.4,6.55-14.16.86-2,1.37-4.12,2.22-6.74l-7.09-.42.42-4.78,10.32.17,3,.32c2.92,2.75-.61,4.33-1.16,6.45l.11,0,0,1.64,2.11,2.63L314,193l2.77,3.24,13,14.09C334.05,216,334.05,216,328.05,218.09Z"/><path class="cls-10" d="M247,194c.23-.84.46-1.69.68-2.53.31-1.39.62-2.78.92-4.18l1-2.16c.65-2,1.31-4,2-6,1.19-.75,2.38-2.15,3.55-2.14,4.33,0,8.64.55,13,.88l14.81,1.08,1.41.12-1.74,4-16.12-.93h-6.7l-1.08,1.39,20.1,21.38-3.4,6.07-1.89-1.26c-4.89-6.37-9.4-13.09-14.8-19-4-4.35-5.63-3.5-7.34,2.31l-7.2,19.76L241,218.09l-1.19-.8,1.47-5.42Z"/><path class="cls-4" d="M151.55,198c4.72,13.85,19.33,24.45,33.84,25.28a49.52,49.52,0,0,0,24.91-5.38c1.13,3.27-1,4.32-3.46,5.41a44.14,44.14,0,0,1-58.77-23.59c-.62-1.51-1.27-3-2.1-5L140.43,198l-8.14.82-1.46-2.16c0-.55-.08-1.09-.11-1.63,5,1.8,9.15-.15,13.52-2.46,8.52-4.48,17.28-8.5,25.94-12.71l1,.27L169.05,184l-6.33,2.85c-4.21,1.89-8.47,3.69-12.62,5.7-2,.95-2.34,2.06.39,2.47C150.85,196,151.2,197,151.55,198Z"/><path class="cls-11" d="M273.42,209.71l1.89,1.26c.88.54,2.26.89,2.54,1.65,1.28,3.49,3.46,3.75,6.38,2.26,1.19,5.54-5.16,4.85-6.94,8-.11.2-3.43-1.4-5.25-2.19-1.17-.52-2.32-1.07-3.49-1.61,0-.39,0-.78,0-1.18,4-.51,1.1-2.31.52-3.42a26.58,26.58,0,0,0-2.59-3.55l.11-.12Z"/><path class="cls-12" d="M284.23,214.88c-2.92,1.49-5.1,1.23-6.38-2.26-.28-.76-1.66-1.11-2.54-1.65l3.4-6.07,1.69-2.36,6.28,2.55c.22.83.45,1.66.67,2.48l-1.29,5.31Z"/><path class="cls-3" d="M286.06,212.88l1.29-5.31a16.42,16.42,0,0,1,3.22-1.87,25.61,25.61,0,0,1,4.41-.64c-1.17,2.67-2.33,5.34-3.5,8Z"/><path class="cls-2" d="M288,226l-1.32-1.18c-.05-1-.11-1.92-.11-2,2.32.16,4.52.65,6.55.26.58-.12,1.21-3.95.87-4.11-2-1-4.34-1.38-7.45-2.21,2.3-.35,4.59-1.34,6.33-.74,1.41.49,3.23,3.12,2.95,4.38-.41,1.87-2.33,3.6-4,4.93C291,226,289.33,225.81,288,226Z"/><path class="cls-7" d="M327,214.76l-16.4,0L306.4,213l21-1.1,2,2.27Z"/><path class="cls-4" d="M143.21,199l-.81-.73Z"/><path class="cls-7" d="M310.43,179.45l-3-.32c-.1-2.21-.2-4.42-.3-6.77l-4.57-.43c.41-1.59.81-3.18,1.22-4.77,4.61-.31,9.23-.52,13.83-1,3.05-.3,4.77.7,5,3.87-3,.33-6.05.53-9,1.08-1,.19-1.92,1.24-2.87,1.9q-.06,3-.1,6.11Z"/><path class="cls-13" d="M311.46,190.19l-2.11-2.63,0-1.64-.11,0c2-.6,4-1.07,5.94-1.82,9.55-3.74,19.05-4.78,28.59.5C332.16,181.91,321.21,182.71,311.46,190.19Z"/><path class="cls-14" d="M285.47,135.25l4.95-.14a6.48,6.48,0,0,1,6.19,5.21l-11.11,15q-5.52,2.9-6.92-3.19l6-7.17h-4.12L279,136.56Z"/><path class="cls-14" d="M286.68,205.09l-6.28-2.55q1-5.65,2.05-11.31l.06-8.17,1.74-4c.83-2.27,1.66-4.54,2.68-7.35l10.81,1.81q-.35,2.73-.66,5.48l-.42,4.78c-1.07,2.08-2.22,4.12-3.2,6.25C291.15,195,288.93,200.05,286.68,205.09Z"/><path class="cls-3" d="M278.58,152.16q1.4,6.08,6.92,3.19-2,3.08-3.92,6.15a57.12,57.12,0,0,1-6.22,2.75c-3.8,1.18-7.76,2.54-11-1.3a42.67,42.67,0,0,0,6.5-.11c.31,0,.73-3.32.35-3.5a46.64,46.64,0,0,0-6.75-2.18l9.23-2.39,1.65-.76.19-.14.83-.83.11-.16Z"/><path class="cls-6" d="M268,177.82l3.53-3.16,11.28,4.24Z"/><path class="cls-8" d="M124.23,95.06c-.75-1.76-1.51-3.51-2.26-5.26L128.69,87l10.08,3.92c-2.56,0-4.05,0-5.53,0s-3,.15-4.42.22c0,.66,0,1.31,0,2l22.06,1,6.42,1.86c-1.33,1.39-2.61,2.82-4,4.15q-10.53,10.14-21.1,20.22L123.48,115,138.6,97.56Z"/><path class="cls-12" d="M150.9,94l-22.06-1c0-.66,0-1.31,0-2,1.47-.07,3-.18,4.42-.22s3,0,5.53,0L128.7,86.94a21.1,21.1,0,0,1,2.86-1.89c5.84-2.66,9.26-7,9.95-13.5.27-2.58,1.31-5.07,2-7.6l1.83-.45c2.73,6.21,5.66,12.35,8,18.69.59,1.55-.52,3.78-.94,5.67C152,89.93,151.42,92,150.9,94Z"/><path class="cls-8" d="M167.28,91.08q-.43,6.92-.89,13.84l-8,5.57L155.91,113,156,113l-4.73,4.17-8.91,8.8-3.89,2.7c-.59-.86-1.17-1.73-1.75-2.6l-2.55-3.83c7.32-7,14.74-13.81,21.9-20.93,2.1-2.08,3.46-4.91,5.15-7.4Z"/><path class="cls-15" d="M161.21,93.87c-1.69,2.49-3.05,5.32-5.15,7.4-7.16,7.12-14.58,14-21.9,20.93l-1.92-2q10.55-10.11,21.09-20.22c1.38-1.33,2.66-2.76,4-4.15Z"/><path class="cls-7" d="M145.34,63.5l-1.83.45.18-1.73c.24-2.09.5-4.18.73-6.27.43-4,.84-8,1.26-12Q145.51,53.72,145.34,63.5Z"/><path class="cls-12" d="M115.29,75.05l-1.56-2.12c-.15-.65-.3-1.3-.46-2l12.87-4.72H109.26L99.8,59.87A40.74,40.74,0,0,1,92.25,39Q93.9,37.49,95.56,36l3.9,1.79,1.16,1.47,4.29,10,3.16,5.66c2-3.77,3.28-6.36,4.66-8.91,1.51-2.8,3.08-5.57,4.62-8.35l9.06,5.16q1,7.65,1.9,15.28c-.31,4.45-.63,8.9-1,13.52l-9,5.67Z"/><path class="cls-2" d="M138.46,128.63l3.89-2.7,9,.27,4.38.12c2.77,2.81,2.84,5.25-.73,7.55-2.18,1.4-3.48,3.26-.82,5.54,1,1.18,2.05,2.36,3.08,3.53l2,2,2.91,3.22,2.09,2.46,3.92,4.29L172,159l2.95,3.17,6.4,7c1.61,1.73,3.23,3.45,4.85,5.18a4.31,4.31,0,0,0,.43.89c6.17,8.19,6.17,8.19-3.41,11.27l-7.77,1.63a1.21,1.21,0,0,0-.93.11l-8.06,1.84-4,.2c.09-1.13.18-2.25.28-3.38l6.34-2.85c4.5-1.05,9.77.56,13.28-3.89,2.7-4.57-2-5.67-3.82-8.08q-8.85-9.17-17.69-18.32l-2.36-2.37-3-3.24-5-5.23c-1.35,3.64-2.37,6.37-3.39,9.11l-5.48-7.74q1.63-4.89,3.25-9.77l-6.33-1.63C135.62,131.51,137.75,130.06,138.46,128.63Z"/><path class="cls-7" d="M124.23,95.06l14.37,2.5L123.48,115l-3,4-9.75.89L102.15,104c6-2.2,11.94-4.37,17.87-6.65A34.27,34.27,0,0,0,124.23,95.06Z"/><path class="cls-4" d="M158.47,151.37l2.36,2.37c-.88,1-1.75,2-2.64,3-4.87,5.45-4.71,6.71,1.47,11.29-1.18,6.31-2.16,6.89-8.47,5.68-1.54-.29-3.24.17-4.86.28l-4.79-4.44-2.46-4.43,9.21-9.35a6,6,0,0,1,.84-.07l2.4,3.24Z"/><path class="cls-4" d="M127.92,160.77c-4,4.32-5.78,4.29-9.78.95-1.37-1.14-3.76-1-5.68-1.51l-7.2-9.28c2.95-1,6.21-1.52,8.76-3.15,3.5-2.26,5.37-1.29,7,2l1.44,1.31-.07,0Z"/><path class="cls-2" d="M139.08,165.1l2.46,4.43c-.67,2.46-1.37,4.9-2,7.36-1,4-5.16,5.16-11.54,3.26.3-1.24.6-2.48.91-3.71l-.07-.3-.31,0,1.07-1.08,2.06-5.4c.21-.52.41-1,.62-1.55l2.53-5.88Z"/><path class="cls-16" d="M122.41,151.06,121,149.75Z"/><path class="cls-6" d="M118.37,77.22l9-5.67c.33-4.62.65-9.07,1-13.52l1.14-1.27c7.52-1.77,9.87-.87,14.23,5.46L143.51,64c-.69,2.53-1.73,5-2,7.6-.69,6.54-4.11,10.84-9.95,13.5a21.1,21.1,0,0,0-2.86,1.89L122,89.8,112.48,92l-4.17-7.81Z"/><path class="cls-1" d="M108.31,84.18,112.48,92l-4.07,2.16-4.92-9.06Z"/><path class="cls-1" d="M102.57,98.21l-4.72-2.32,7-3.55c.28,2.72.42,4.13.57,5.55Z"/><path class="cls-7" d="M146.33,174c1.62-.11,3.32-.57,4.86-.28,6.31,1.21,7.29.63,8.47-5.68l6.81,4.9,3.71,6.94c-8.66,4.21-17.42,8.23-25.94,12.71-4.37,2.31-8.53,4.26-13.52,2.46l-.24-1a3.58,3.58,0,0,1,.23-.79l6.25-4.31a.7.7,0,0,1,.51-.59l3.2-3.36,4.73-7c.33-1.35.67-2.7,1-4.06Z"/><path class="cls-2" d="M130.48,194l.24,1c0,.54.07,1.08.11,1.63-2.86.31-6.42,1.8-8.41.62a11.15,11.15,0,0,1-4.62-7.78c-.32-4,2.9-6.69,7-7.08s7.11,1.3,8.2,5.58l-2.26.08c-1.94-3.66-5.29-4.63-8.17-2.24-1.58,1.32-2.49,5.29-1.69,7.21,1.51,3.6,5,3.84,8.37,1.73C129.62,194.51,130.06,194.28,130.48,194Z"/><path class="cls-3" d="M130.7,188.07,133,188l4,.95-6.25,4.3C129.39,191.52,126.87,189.8,130.7,188.07Z"/><path class="cls-4" d="M146.41,173.91c-.34,1.36-.68,2.71-1,4.06C145.73,176.62,146.07,175.27,146.41,173.91Z"/><path class="cls-17" d="M129.59,175l-1.07,1.08Z"/><path class="cls-7" d="M129.46,56.76,128.32,58q-1-7.64-1.91-15.28l.36-1.35C128.45,46.38,132.27,51,129.46,56.76Z"/><path class="cls-6" d="M100.62,39.22l-1.16-1.47L91.68,26.82l8.78.2,0,0,2.12.76.12-2.58,2.66-.12,7.79-4.13,1.44.06,6.55,7.16a17.59,17.59,0,0,1-.73,4.1,51.45,51.45,0,0,1-3,5.36c-1.55,2.78-3.12,5.55-4.63,8.35-1.38,2.55-2.7,5.14-4.66,8.91l-3.16-5.66,6.21-6.53Z"/><path class="cls-9" d="M114.54,21l-1.44-.06L100.48,5l6.87,4.05,7,8.88Z"/><path class="cls-1" d="M91.68,26.82l7.78,10.93L95.56,36c-2.75-.5-2.81-2.81-3.61-4.85-.63-1.59-2.28-2.78-3.47-4.15Z"/><polygon class="cls-6" points="100.47 27.02 100.62 26.77 100.41 26.98 100.47 27.02"/><path class="cls-4" d="M164.27,150.66l-2.09-2.46c14.28-10.58,29.77-12.37,45.64-4.77,16.67,8,24.85,22,25.16,40.49-1.21.67-2.42,1.34-3.62,2,0-2.29,0-4.57,0-6.85l-1.29-6.47-2.42-5.85L218.46,156l-14-9.94C190.17,140,177,142.93,164.27,150.66Z"/><path class="cls-1" d="M191,173.2l7.5,5.8-2,11c-.11-.07,1.29.3,1.57,1.07a6.59,6.59,0,0,1-.18,3.53c-4.11.23-8.23.22-12.35.26a2.43,2.43,0,0,1,.08-.81l2.45-.26,1.39,0,2-.1h2.91l-2.78-1.94-8.38-5.23c9.58-3.09,9.58-3.09,3.41-11.28a4.31,4.31,0,0,1-.43-.89Z"/><path class="cls-1" d="M328.05,218.09c6-2.12,6-2.12,1.75-7.8,6.76-.91,8.89,1.66,7,8-.35,1.15.51,2.67,1,5.08l-15.71,1.15-.19-1.32,12.19-1Z"/><path class="cls-1" d="M235.68,194c-2.56,11.38-7.85,20.92-18.2,27.06-.73-2.85.46-4.66,2.33-7a90.34,90.34,0,0,0,10.11-15.72C231.33,195.6,232.73,194.11,235.68,194Z"/><path class="cls-3" d="M268.15,217.68l-7.21-5.89c.36-.48.71-1,1.06-1.46l4.47.62a26.58,26.58,0,0,1,2.59,3.55c.58,1.11,3.5,2.91-.52,3.42Z"/><path class="cls-11" d="M309.38,185.92l0,1.64Z"/><path class="cls-1" d="M266.58,210.83c-1.48-9.05-7.34-14.32-15.3-17.79,1.71-5.81,3.36-6.66,7.34-2.31,5.4,5.89,9.91,12.61,14.8,19Z"/><path class="cls-4" d="M244.08,212.8c3.37,4.37,2.85,8.86-1.42,9.84-1.83.42-4.56,0-5.85-1.18s-2.21-4.4-1.47-5.54c1.21-1.86,3.9-2.75,6-4l-1.47,5.42,1.19.8Z"/><path class="cls-6" d="M282.45,191.23l-16.06-9.1,16.12.93Z"/><path class="cls-1" d="M162.44,190.26l-11.95,4.79c-2.73-.41-2.36-1.52-.39-2.47,4.15-2,8.41-3.81,12.62-5.7C162.62,188,162.53,189.13,162.44,190.26Z"/><path class="cls-1" d="M237.41,179l-.15,5-4.28-.06c-.31-18.52-8.49-32.49-25.16-40.49-15.87-7.6-31.36-5.81-45.64,4.77L159.27,145c23-17.37,54-12.14,70.14,12,1.57,2.35,3.1,3.75,6,3.14,0,.72,0,1.43,0,2.15l-2,.26-.44.26.3.17c.73,2,1.45,4.05,2.18,6.07.36,1.32.71,2.64,1.07,4C236.8,175,237.11,177,237.41,179Z"/><path class="cls-5" d="M226.45,130.12c-1.54-6.4.74-11.47,5.83-15.2a16.79,16.79,0,0,1,18.75-1.4c5.38,2.85,8.51,7.81,10.07,13.6.37,1.38-.46,3.08-.74,4.63l-1.45.24-6.7.08-3.36.71c-1.67-.83-3.3-2.29-5-2.4C238.05,130,232.25,130.17,226.45,130.12Z"/><path class="cls-8" d="M258.92,132l1.44-.24,3.17,1.45c1.7,1.33,3.21,2.27,1.28,5-2.91,4.14-1.77,7,3,9.76a38.61,38.61,0,0,1,5.46,2,17.25,17.25,0,0,1,3.21,2.92l-.11.16-.83.83-.19.14-1.65.76-9.23,2.39c0,.36,0,.72,0,1.08l-13.55-2.54-6.79-7.29,8.18-2.29,2.31,3c1.25-5,2.26-8.94,3.28-12.93C258.2,134.76,258.56,133.37,258.92,132Z"/><path class="cls-3" d="M157.27,142.94c-1-1.17-2.05-2.35-3.08-3.53,23.63-18.26,60.26-11.12,72.27,8.19C204.07,128.85,181.24,126.1,157.27,142.94Z"/><path class="cls-12" d="M267.78,148c-4.74-2.74-5.88-5.62-3-9.76,1.93-2.73.42-3.67-1.28-5l21.94,2.05L279,136.56l1.45,8.43Z"/><path class="cls-14" d="M239.2,147.92c-9.53,2.07-9.36-6.24-12.4-11.18l4.65-3.87c2.66,3,3.87-1.19,5.92-1.19.16,4.54,3.61,3.06,6.1,3.33Q241.34,141.46,239.2,147.92Z"/><path class="cls-1" d="M237.37,131.68c-2.05,0-3.26,4.21-5.92,1.19l-5-2.75c5.8,0,11.6-.08,17.38.26,1.72.11,3.35,1.57,5,2.4l-1.23,1.36q-1.56,4.89-3.14,9.8l-1.11,3.74L239.7,150l-.5-2.08q2.15-6.45,4.27-12.91C244.22,128.82,239.93,131.82,237.37,131.68Z"/><path class="cls-3" d="M158.37,110.49l8-5.57c7.88,0,8,.16,8.1,5.88Z"/><path class="cls-1" d="M155.74,126.32l-4.38-.12c0-3-.07-6-.1-9.07L156,113Q155.86,119.64,155.74,126.32Z"/><path class="cls-6" d="M250.87,155.7l13.56,2.54-.24,1.44-15.64.15c-.16-.93-.32-1.86-.47-2.79Z"/><path class="cls-13" d="M235.37,162.22c0-.72,0-1.43,0-2.15l2.22-2.89,5.64,2.83c-.07.67-.14,1.34-.2,2l-6.83,1Z"/><path class="cls-1" d="M158.37,110.49l16.12.31c-1.14.72-2.26,2-3.44,2.08-5,.25-10.09.12-15.14.14Z"/><path class="cls-18" d="M243.37,147.68l1.11-3.74,9.71-1-1.93,3.18-8.18,2.29C243.85,148.16,243.61,147.92,243.37,147.68Z"/><path class="cls-3" d="M243.24,160l-5.64-2.83,10.48-.14c.15.93.31,1.86.47,2.79Z"/><path class="cls-7" d="M267.78,148l12.66-3h4.12l-6,7.17-2.13.72a17.25,17.25,0,0,0-3.21-2.92A38.61,38.61,0,0,0,267.78,148Z"/><path class="cls-1" d="M253.42,167.17c-2.67-.88-2-6.64-6.72-4.54L243,162c.06-.67.13-1.34.2-2l5.31-.18,15.65-.15-1.65,2.94-7,2.32Z"/><path class="cls-4" d="M262.55,162.62l1.65-2.94c.07-.48.15-1,.23-1.44s0-.72,0-1.08a46.64,46.64,0,0,1,6.75,2.18c.38.18,0,3.46-.35,3.5a42.67,42.67,0,0,1-6.5.11Z"/><path class="cls-7" d="M273.67,154.77l1.65-.76Z"/><path class="cls-7" d="M275.51,153.87l.83-.83C276.06,153.32,275.78,153.59,275.51,153.87Z"/><path class="cls-8" d="M109.26,66.26h16.88L113.27,71Q111.28,68.61,109.26,66.26Z"/><path class="cls-19" d="M100.62,39.22l10.5,3.44-6.21,6.53Z"/><path class="cls-1" d="M149.13,155.68l6.35-7.55,3,3.24-6.94,7.55Z"/><path class="cls-1" d="M130.7,188.07c-3.83,1.73-1.31,3.45,0,5.17a3.83,3.83,0,0,0-.23.8c-.42.24-.86.47-1.27.73-3.37,2.11-6.86,1.87-8.37-1.73-.8-1.92.11-5.89,1.69-7.21C125.41,183.44,128.76,184.41,130.7,188.07Z"/><path class="cls-6" d="M247.62,134.14l1.23-1.36,3.36-.71,3.7,4-.28,1.78C253,136.56,249,138.16,247.62,134.14Z"/><path class="cls-20" d="M255.91,136.06l-3.7-4,6.7-.08c-.35,1.38-.71,2.77-1.06,4.16Z"/><path class="cls-7" d="M255.91,136.06l1.94.09c-1,4-2,8-3.28,12.93l-2.31-3,1.93-3.18,1.44-5.1Z"/><path class="cls-18" d="M237.37,131.68c2.56.14,6.85-2.86,6.1,3.33C241,134.74,237.53,136.22,237.37,131.68Z"/><path class="cls-14" d="M255.63,137.84l-1.44,5.1-9.71,1q1.58-4.91,3.14-9.8C249,138.16,253,136.56,255.63,137.84Z"/><path class="cls-3" d="M243,162l3.66.61c-3.42,2.21-6.87,3.38-10.49.4Z"/></g></g></svg>