<svg xmlns="http://www.w3.org/2000/svg" viewBox="0 0 626 375.91"><defs><style>.cls-1{fill:#f35448;}.cls-2{fill:#cfc4b3;}.cls-3{fill:#e13d33;}.cls-4{fill:#272625;}.cls-5{fill:#515151;}.cls-6{fill:#9b8c7c;}.cls-7{fill:#3c3b37;}.cls-8{fill:#ea5c55;}.cls-9{fill:#b3a699;}.cls-10{fill:#b3b736;}.cls-11{fill:#2f2d2a;}.cls-12{fill:#989d2a;}.cls-13{fill:#363633;}.cls-14{fill:#3c3c3a;}.cls-15{fill:#f4c0ae;}.cls-16{fill:#d6cbbf;}.cls-17{fill:#f3f4ee;}.cls-18{fill:#494747;}.cls-19{fill:#ccc6b7;}.cls-20{fill:#d43330;}.cls-21{fill:#a1a92b;}.cls-22{fill:#ddd7c9;}.cls-23{fill:#bfcd51;}.cls-24{fill:#e5e0d2;}.cls-25{fill:#72362d;}.cls-26{fill:#eae7d8;}.cls-27{fill:#acb53e;}</style></defs><title>parkingVelo</title><g id="Layer_2" data-name="Layer 2"><g id="Layer_1-2" data-name="Layer 1"><path class="cls-1" d="M415.74,51.85c14.93,8.74,29.83,17.55,44.8,26.22Q527.76,117,595,155.78q13.83,8,27.74,15.88a19.36,19.36,0,0,0,3.23,1.16v9c-13.74-8-27.44-16.14-41.24-24.07-29.06-16.7-58.21-33.24-87.26-50q-54.57-31.41-109-63C367,32.42,345.48,20.16,324,7.84c-1.71.53-3.6.76-5.12,1.62-16.55,9.45-33,19.07-49.57,28.48-6.72,3.82-13.67,7.24-20.52,10.84.29-2.6.57-5.2.86-7.8,22.58-13,45.23-25.85,67.69-39,4.07-2.4,7-2.71,11.19-.16C343.1,10.66,358,19.06,372.78,27.61A29.11,29.11,0,0,0,376,29Z"/><path class="cls-2" d="M626,196.82c-7-3.85-14-7.58-20.85-11.56q-39.67-23-79.26-46.07c-21.21-12.41-42.33-25-63.52-37.45Q439.81,88.5,417.15,75.42A29,29,0,0,0,413,73.8h0a13,13,0,0,0-2.13-2Q368.71,47.13,326.52,22.5c-2.82-1.66-5-1.56-7.7.29-4.09,2.78-8.64,4.88-12.81,7.57-3.48,2.25-6.68,4.94-10,7.44-6.09-.79-9.47,3.21-12.83,7.25-.54-.27-1.32-.92-1.59-.76-3.89,2.38-7.71,4.86-11.55,7.32l-2.09,1.2-6.69,2L258,52l65-37.47c1.61.87,3.24,1.71,4.82,2.62q123.3,71.1,246.6,142.2C591.57,169.27,608.8,179,626,188.82Z"/><path class="cls-3" d="M626,188.82c-17.2-9.81-34.43-19.55-51.58-29.43Q451.11,88.32,327.82,17.19c-1.58-.91-3.21-1.75-4.82-2.62.33-2.24.65-4.48,1-6.73,21.5,12.32,43,24.58,64.47,37q54.56,31.46,109.05,63c29,16.73,58.2,33.27,87.26,50,13.8,7.93,27.5,16,41.24,24.07Z"/><path class="cls-1" d="M109,114.66c4.64,4.47,8.82,2.71,13.73-.14q58.78-34.23,117.84-68a32.89,32.89,0,0,1,5.52-2l.21,6.9q-17.46,10.08-34.93,20.16-28.93,16.65-57.91,33.24-19.2,11-38.46,21.94c-5.84-3.43-11.66-6.91-17.53-10.3Q62.6,96.34,27.67,76.25C18.51,71,9.23,66,0,60.82v-8c9.14,5,18.32,9.92,27.41,15C39.28,74.48,51.08,81.26,62.9,88Z"/><path class="cls-2" d="M246.72,65.86c-3.95,2-8,3.82-11.83,6.06-21.54,12.58-43,25.33-64.53,37.9-17.07,10-34.17,19.87-51.44,29.47a9.27,9.27,0,0,1-7.71-.07C95,130.14,78.93,120.68,62.86,111.3Q36,95.61,9.1,79.86c-3-1.75-6.06-3.37-9.1-5v-7c1.91,1,3.85,1.94,5.71,3q52.88,30.47,105.75,60.88c1.59.91,3.76.82,5.65,1.2,1.18-.6,2.4-1.14,3.54-1.8Q180.83,96.43,241,61.78c1.79-1,4-1.37,6-2C246.92,61.79,246.82,63.82,246.72,65.86Z"/><path class="cls-3" d="M117.11,132.91c-1.89-.38-4.06-.29-5.65-1.2Q58.54,101.37,5.71,70.83c-1.86-1.07-3.8-2-5.71-3v-7C9.23,66,18.51,71,27.67,76.25q34.95,20,69.8,40.25c5.87,3.39,11.69,6.87,17.53,10.3C115.71,128.84,116.41,130.87,117.11,132.91Z"/><path class="cls-4" d="M605.85,198.87c.08,5.48.23,11,.23,16.46q0,67.72,0,135.44c0,2,.17,4,.26,6,.44,4.31-1.59,6.75-5.43,8.66-6.45,3.2-12.62,7-18.91,10.51a52.25,52.25,0,0,1-1-7.3q-.09-77.92,0-155.83Zm-19,165.62c3.31-1.82,5.61-3.49,8.17-4.43,5.27-1.93,6.22-5.52,6.19-10.81-.22-44.12-.13-88.25-.13-132.37v-6.15c-3.17,1.75-5.48,3.39-8.05,4.36-5.17,1.95-6.34,5.45-6.31,10.8.23,44.13.13,88.25.13,132.38Z"/><path class="cls-5" d="M605.85,198.87,581,212.78l-47-27c0-.72-.22-1.74.16-2.11,1.55-1.51,3.3-2.82,5-4.2,3.44-1.81,7.15-3.24,10.26-5.5,4.78-3.48,9.31-5.15,14.4-.88l2.2.71a38.14,38.14,0,0,0,4.14,3.3c10.48,6.24,21,12.38,31.52,18.61A44.83,44.83,0,0,1,605.85,198.87Z"/><path class="cls-4" d="M257,248.73c.23-.71.45-1.42.68-2.13l10.57,5.94c3.15,3.63,9.21,5,9,11.32,0,.21.68.57,1.09.64,4.67.79,2.38,2.55.6,4.24l1.2,14.94v3l-2,13.75c-.44,2.22-.87,4.44-1.31,6.66q-1.19,8.1-2.38,16.21L266,326c-.52-1.74-1.38-3.46-1.48-5.23-.2-3.39,0-6.8.08-10.21.5-2.57.31-4.81-2.66-5.79.34-1.88,1.1-3.8.93-5.63-.39-4.09-1.25-8.14-1.91-12.21l1.86-2.87L260,276.81l-1.86-7.69L255.07,264l1.54-1.67Z"/><path class="cls-6" d="M386.09,261.89c-4.68-2.34-9.2-5.05-14-6.94-9.39-3.66-14.5-9.53-12.05-20.13a7.74,7.74,0,0,0,0-2c0-4.66-.27-9.34.09-14,.73-9.44,4.51-17.27,12.91-22.37,2.12-1.28,4.2-2.61,6.29-3.92,4.7-1.71,9.37-5,14.14-.15-3.67,2.23-7.23,4.69-11,6.64-7,3.58-12.89,8.68-13.92,16.51-1.23,9.46-.73,19.14-1,28.72L379.08,253V238.64c0-1.66-.07-3.32-.07-5,0-12.68,5.08-22.35,16.68-28.21a48.09,48.09,0,0,0,5.29-3.52l9-.13,4.3,3c-9,1.51-16.71,5.72-22,13-3,4.09-5.54,9.37-6,14.32C385.38,241.92,386.06,251.94,386.09,261.89Z"/><path class="cls-6" d="M425.15,283.94c-1,.18-2.38.85-3.11.45-6.65-3.73-13.34-7.44-19.7-11.63-1.7-1.11-2.91-3.76-3.28-5.89-.55-3.23-.17-6.62-.19-9.95,0-5,.17-10,.09-14.93-.12-7.19,2.12-13.47,7.6-18.16,4.22-3.61,8.93-6.66,13.42-10,4.13-1.35,8.2-2.12,11.93,1a31.78,31.78,0,0,1-4.82,3.28c-11.91,5.32-21,13-21.62,27.1-.31,7.16.44,14.36.71,21.55l11.59,9.1V261.11c.07-2.49.11-5,.22-7.46.38-9.41,3.21-17.49,12-22.49,3.43-2,6.69-4.21,10-6.32,4.07-1.49,8-2.18,11.13,1.86-3.09,1.58-6.18,3.13-9.25,4.72-9.73,5.06-16.4,12.52-16.89,23.87C424.57,264.82,425.06,274.39,425.15,283.94Z"/><path class="cls-7" d="M534,185.8l47,27q0,77.91,0,155.83a52.25,52.25,0,0,0,1,7.3c-1.42-.25-3-.14-4.23-.81-13.12-7.42-26.09-15.12-39.3-22.38-4.6-2.53-7.76-5.32-6.86-11q0-9.62,0-19.23c0-2.2,0-4.41,0-6.62l0-43.13-.09-21q0-4.42,0-8.85l-1.45-1.31-1.44-4c3.68-3.48,3.68-3.48,1.45-5.58-2.52-7-1.69-13.45,3.46-19.09.09,2.82.26,5.64.26,8.47,0,40.3.06,80.61-.08,120.92,0,3.62,1,5.65,4.27,7.41,9.36,5.09,18.49,10.59,27.72,15.89,4.12,2.37,8.28,4.66,12.8,7.19.16-1.32.29-1.95.3-2.57,0-50.63,0-101.26-.14-151.9,0-1.91-1.82-4.56-3.56-5.6-12.56-7.53-25.31-14.74-38-22a32.43,32.43,0,0,0-3.57-1.43v19.59l-5,.7c3.81-2.8,3.64-6.79,3.23-10.85-.08-6.9-1.89-8.11-8.75-5.87l-5.5-2.94C523.5,190.45,528.87,188.61,534,185.8Z"/><path class="cls-6" d="M201.51,151.63c.09-7.32.24-14.64.25-22,0-11.33,4.72-19.89,14.89-25.13,3.14-1.61,6.47-2.85,9.7-4.26L217,111.82l-1,2-.95,2c-1.31,1.39-3.15,2.55-3.83,4.19-4.52,11-3.69,22.38-2.45,33.8l11,7.46,1.1-.88-1-4.31.09-7c.34-1.78,1.09-3.58,1-5.32-1-13.34,4.36-23.09,16.27-29.21,1-2.94,2-5.88,3-8.81l3.84,4.91,4.87-2.46,4.1,4.21c-3.24,2.16-6.38,4.49-9.74,6.43-8.71,5-14.87,11.85-15.26,22.29-.36,9.89,0,19.8,0,29.71-1.3-.2-2.8-.06-3.89-.66-5.47-3-10.67-6.6-16.3-9.28C203.63,158.9,201.16,156.41,201.51,151.63Z"/><path class="cls-6" d="M463,307.79c-7.93-4.35-15.92-8.61-23.75-13.15-1.11-.64-1.91-2.61-2-4-.28-3.95-.13-7.92-.15-11.88,0-1.83.06-3.65,0-5.47-.82-15.77,4.1-28.27,19.64-34.81a12.93,12.93,0,0,0,2.37-1.73l3.35-.35-11.29,15.39c-1.69,2.49-3.91,4.77-5,7.49-3.9,10.05-1.77,20.55-1.79,30.88l12,8c.2-2.36.32-3.76.44-5.16l.17-4.74c0-1.83-.06-3.66.07-5.48.34-5.1.23-10.3,1.28-15.25,1.54-7.23,7.17-11.66,12.76-15.91l2,0,1.88-2.81,5.15-1.88c3.86.18,4.26-2.74,4.87-5.45,1.36,2.5,2.72,5,4.07,7.47a31.82,31.82,0,0,1-4.8,3.31c-15.16,6.9-22.37,18.4-21.26,35.2C463.39,294.15,463,301,463,307.79Z"/><path class="cls-8" d="M244.66,85.1q1.26-8.66,2.51-17.31l6.55,3c-.22,1.51-.44,3-.81,5.51,3.39-.67,6.14-1.31,8.92-1.76,3.69-.58,7.54-1.89,11.07-1.33,6.32,1,9.77-.35,11.72-6.52,1.09-3.47,1.89-7,2.82-10.56l4.32-.56c-.18,1.65-.37,3.3-.64,5.81l7.58-5.15,2.06-1.32c1.49-.73,3-1.51,4.49-2.17,3.93-1.7,3.44.52,2.59,3l-2,1-1.89.61c-4.8,3-9.73,5.93-14.32,9.28-1.05.77-1.76,3.75-1.12,4.66.79,1.13,3.14,1.16,4.82,1.67L297,75l3.11.35c2.93.85,5.84,1.78,8.8,2.52,1.81.46,3.7.63,5.56.93.12,1.51.24,3,.39,5-3.81-2.5-5.11-2-5.59,1.35L308,86.83l-11.32,5.94,1.07,1.67L308,86.8l3.87-1.9,2.84,2.59-6.8,4-2,1.25-1.79,1L300,96.54c-1,.67-2,1.33-3,2l-4.19,3.12-11.89,6c-.64-1.81-1.27-3.63-1.73-5H273c2.11-6.91,4.43-13.76,6.13-20.77.27-1.07-2.39-4.16-3.48-4.06-8.05.75-16,2.06-24.81,3.3L256.17,87l4.69,5,9.08,10,1.15,1,1.29,3L270.76,108l-7.66-7.19L250,86C248.05,86.72,245.91,88.53,244.66,85.1ZM297,78.8l-4.1-1.8c-3.87-1.3-7.18.08-8.42,3.58-2.25,6.28-3.66,12.86-5.42,19.31l.94,1.29L290,96.39l4.13-.53,2.25-5.9,11.09-6.35c-.08-.73-.17-1.47-.25-2.21L298,78.93A1.31,1.31,0,0,0,297,78.8Z"/><path class="cls-9" d="M459,236.73a12.93,12.93,0,0,1-2.37,1.73c-15.54,6.54-20.46,19-19.64,34.81.09,1.82,0,3.64,0,5.47l-11.91,5.2c-.08-9.55-.57-19.12-.16-28.65.49-11.35,7.16-18.81,16.89-23.87,3.07-1.59,6.16-3.14,9.25-4.72C456.82,227.63,458.32,231.86,459,236.73Z"/><path class="cls-9" d="M420,213.88c-4.49,3.29-9.2,6.34-13.42,10-5.48,4.69-7.72,11-7.6,18.16.08,5,0,10-.09,14.93l-12.78,5c0-9.95-.71-20,.19-29.84.45-5,3-10.23,6-14.32,5.33-7.24,13-11.45,22-13C418.68,206.26,420.12,209.58,420,213.88Z"/><path class="cls-8" d="M530.14,232c2.23,2.1,2.23,2.1-1.45,5.59l-1.79.85-.87.49-2.5,1.6-5.52,3.4H516.1c-2.81-3.36-5.65-5-8.65-.19a4.94,4.94,0,0,1-1.16.93l-7.38-7.83-13-14.12c-2,.85-4.22,2.41-5.33-1.12q1.28-8.64,2.57-17.28l5.67,1.39c1.55,2.74,3.11,5.47,4.71,8.3,5.38-4.36,9.83-5.2,15.61-4.27,3.23.52,8.18-2.31,10.44-5.16s2.4-7.76,3.46-11.75c6.86-2.24,8.67-1,8.75,5.87a58.55,58.55,0,0,0-5.42,3.37c-3.85,3-3.3,5.56,1.51,7.68l.37,4.06c-2.59-1.09-5.3-2-6.6,1.6-2.45,6.85-4.69,13.78-7,20.68l1.42,1.12,10-4.62Zm-31.09-2.2,0,0,7,9c1.67-1.5,4.14-2.68,4.86-4.54,2.1-5.36,3.49-11,5.26-16.86-1.6-1-3.11-2.67-4.51-2.59-8.17.49-16.32,1.4-25.56,2.28l6,6.24,4.91,5.67Z"/><path class="cls-10" d="M95.86,199.73l6.73-5.07c4.48,4.08,7.85,9.67,14.5,10.91,2.94-4.64,1.24-9-.12-13.38l3.08-1.18c1.67,4.21,4.15,8.31,4.81,12.68.83,5.63.2,11.48.2,17.23q-.61,7.32-1.25,14.63l-10.43,4.5-2.45-2.91a19.27,19.27,0,0,0-.42-3.91c-2.55-8-5-16-8-23.81C101.17,205.79,102.07,200.18,95.86,199.73Z"/><path class="cls-9" d="M406.18,266.85c-.27-7.19-1-14.39-.71-21.55.59-14.11,9.71-21.78,21.62-27.1a31.78,31.78,0,0,0,4.82-3.28,11.76,11.76,0,0,1,8.08,9.92c-3.34,2.11-6.6,4.36-10,6.32-8.76,5-11.59,13.08-12,22.49-.11,2.48-.15,5-.22,7.46Z"/><path class="cls-3" d="M286.88,226.72C283,232.84,285,238.93,287,245L278,251.93c-4.5-5.88-10.44-10.93-11-19.08.47-1.59,1.37-3.2,1.3-4.78-.14-3.39-.77-6.76-1.2-10.14l4.08,3c.39-2.53.67-4.33.95-6.13l9.88,8.18c.34-3.53.59-6.2.85-8.87l2.94.33c.82,1.75,1.65,3.49,2.47,5.24Z"/><path class="cls-4" d="M272.18,214.83c-.28,1.8-.56,3.6-.95,6.13l-4.08-3c-1.2-1.11-2.35-2.29-3.62-3.33s-2.74-2-4.11-3l.66-14.72,2.62-5q1.68-4.38,3.37-8.75c4.1-1.91,8.11-4.37,12.91-2.22l5.85,5.05c.05,2.92.11,5.85.16,8.78l-1.1.2a63,63,0,0,1-7.91-.4c-3.18-.55-5.13.64-5,3.67.21,3.87,1.19,7.71,1.84,11.56-.05,1.3-.11,2.61-.16,3.91Z"/><path class="cls-11" d="M166.83,358.2,159,354.89c-.49-1.35-.62-3-1.51-4-6.5-7.11-11.08-15.23-12.75-24.72-1.06-6-2.43-12.36,2.85-17.46Q147,315.35,146.4,322l3.6,12.85c4,8.66,8.75,16.5,19.07,18.71l4.91.2,3.2-1.79.75-.15c3.53.17,3.11-2.21,2.88-4.46l1.35-5.5a10.78,10.78,0,0,0,1.83-.35c-.13-5.34-.35-10.67-.56-16l-2.5.48c-3.54-8.88-7.93-17.13-16.39-22.41.61-3.65-1.52-4.62-4.58-4.68l-.88-.92-1.21,0-2.46-.69,3.18-.8c4,1.55,8.8,2.22,12,4.81,12.42,10.07,18.16,23.52,16.82,39.47-.58,7-3.68,13.23-10.46,16.75l-10.06.74,1.5-1.35-.71-.5Z"/><path class="cls-12" d="M95.86,199.73c6.21.45,5.31,6.06,6.7,9.69,3,7.81,5.4,15.84,8,23.81a19.27,19.27,0,0,1,.42,3.91,7.68,7.68,0,0,0-1.86-1.56c-1.7-.65-3.49-1.07-5.24-1.59a60,60,0,0,0-1.36,6.58c-.09.8.82,1.71,1.27,2.56L92.92,240.9l-.17-4.09c-.42-6.21-.87-12.41-1.24-18.62C91.13,211.62,89.54,204.73,95.86,199.73Z"/><path class="cls-8" d="M276.72,307.06c.44-2.22.87-4.44,1.31-6.65,1,2.74,2.05,5.45,2.88,8.24.89,3,2.52,3.48,5,1.93l7.22-8.15,2.73-3.11,4.32-4.41,4.63-5.16-7.38-1.89c-3.45-.27-6.9-.59-10.36-.76-.31,0-.66,1-1,1.49l-1.12.28-4.93-2.22v-3l7.42-1.75c1.79.63,3.56,1.29,5.37,1.88,6.7,2.19,8.39,1.09,9.16-5.91l6-1.13,3,17.43L303,298l-6.26,6.81-4.18,4.56-7.49,7.58a70.61,70.61,0,0,1-5.32-5A34.94,34.94,0,0,1,276.72,307.06Z"/><path class="cls-8" d="M151.1,268.27,153.83,286l-5.55.78-12.83,14.49-7.53,7.61c-2.06-3.2-4.42-5.91-8.78-5.33l2-10.78a68.62,68.62,0,0,1,2.57,7.38c.78,3.28,2.49,3.72,5.2,2.33l7.12-8.55,6.75-6.94,5.83-6.19h-6.57l-15.3-2-3.53-.93-.88-3,5.12-1.73c3,.93,6.1,1.72,9,2.83,6,2.27,8.92.45,9.5-6.13Z"/><path class="cls-4" d="M278,251.93,287,245l18.41,4.21c.84,3.16,1.67,6.33,2.51,9.49-1.27,1-2.41,2.61-3.86,3-2.92.8-8,2.26-8.7,1.17-3.17-4.82-6.38-4.29-10.36-1.82Z"/><path class="cls-13" d="M313.11,303.72c22.41,6.4,35.52,26.63,30.85,48.13-.74,3.37-3.13,6.38-4.76,9.56.39-1.55,1.13-3.12,1.08-4.67a34.51,34.51,0,0,0-1.16-5.93q-1-9.49-2-19l1.68-2.49L335.57,328,330,318.83c.32-1.18.63-2.36.95-3.53l-3.86.39-8.39-3.93c-.54-.66-1.09-1.32-1.63-2,0-.31,0-.63,0-.95l2.45-.84-.21-.87-3.25-.29-.34-.2.34.2,1,2-4,.64-.35-.1L311,305.78Z"/><path class="cls-14" d="M68.89,298a42,42,0,0,1-7.66-32c1.11-7.49,5.63-12.58,12.74-15.29l1-.1,7.14,3,4.9,1.91,3,.23,1.9,0c1.11,2.12,2.25,4.22,3.33,6.36,2.27,4.52,4.5,9.06,6.75,13.59l-3.73,1.06-.24-2.95-1-2a27.33,27.33,0,0,0-12.74-14.2l-3.34-1.52c-4.42-1.17-8.61-1.55-11.18,3.4l-1,1.73-1.69,2.59c-.46.16-1.14.18-1.35.5-2.67,4.19-2,20.21,1,24.3C68.89,291.45,70.85,294.29,68.89,298Z"/><path class="cls-15" d="M278,251.93l6.94,9.15,1.94,1.74c-.07,6.78-1.83,8.08-8,5.92,1.78-1.69,4.07-3.45-.6-4.24-.41-.07-1.1-.43-1.09-.64.23-6.35-5.83-7.69-9-11.32L259,241.71c-.64-2.6-1.29-5.19-1.93-7.79l10-1.07C267.59,241,273.53,246.05,278,251.93Z"/><path class="cls-12" d="M125.06,220.92c0-5.75.63-11.6-.2-17.23-.66-4.37-3.14-8.47-4.81-12.68l.9-.51c3.26,3.06,6.8,5.87,9.67,9.26,1.74,2.06,2.23,5.13,3.65,7.54,2.54,4.3,5.36,8.44,8,12.65-.7.12-1.51.52-2.09.31-3.64-1.29-7.09,1.05-6.18,4.66.44,1.76,2.45,3.13,3.75,4.68-1.86-.29-4.22,0-5.49-1C129.59,226.41,127.44,223.52,125.06,220.92Z"/><path class="cls-15" d="M286.88,226.72l1.44-7L293,217.9c3,3.49,5.55,7.39,8.95,10.35a202.86,202.86,0,0,0,16.55,12.57c3.55,2.51,1.53,5.32.56,7.8-.21.54-3.35.08-5.09-.21-.48-.08-.85-1.14-1.17-1.79-.81-1.66-1.2-4.43-2.39-4.83-8.61-2.86-15.31-8.34-21.65-14.48C288.32,226.9,287.51,226.91,286.88,226.72Z"/><path class="cls-11" d="M447.35,166.9l-4.23,5.25c-4.43-1.16-9.25,2.31-9.95,7.13l-2.76.79L426,176a28.91,28.91,0,0,0,19-16.12c3.23-5.59,5.81-11.36,4.88-18.07q-1-6.34-2-12.69L444,123.58l2.41-3,4.75,3.88c-1.72,5-.88,6.64,3.69,7.39.15.64.31,1.28.46,1.91l-1,1,1.44,1.09q-.57,7.66-1.13,15.35h-2.86l.12,1.24,2.56-.81-1.45,4.2c-2.94.71-7.94,7.58-7.37,10.29C445.73,166.48,446.76,166.64,447.35,166.9Z"/><path class="cls-16" d="M255.06,248.87l1.11.06-7.12,8.87-2.9-.16-8.08-2.92-2-1-2-1-1-1a19.06,19.06,0,0,1-2.19-2.67c-1-1.76-3-4.48-2.39-5.27a8.42,8.42,0,0,1,5.7-2.92c3.23-.21,6.54.57,9.82.93h0l4,2,0,0Z"/><path class="cls-7" d="M456.94,288.2c-.06,1.58-.12,3.16-.17,4.74L449.51,287h.29l.23-.18,1.72-1.08c-1.05-2.63-2.37-4.75-2.72-7-2.14-13.81,2.55-25.6,11.69-35.63,3.55-3.9,8.15-6.85,12.27-10.23l3-.26.08.4c1.35,1.95,2.68,2.85,3.91-.09,3.64.56,4,2.45,2.11,5.24l-5.25-.76-2.91.52L471.06,239c-12.84,7.18-18.3,18.8-19.07,32.84C451.66,277.63,451.72,283.82,456.94,288.2Z"/><path class="cls-17" d="M267.05,232.85l-10,1.07a19.82,19.82,0,0,1-1.71-18.49c.62-1.56,2.69-2.54,4.09-3.79,1.37,1,2.8,1.9,4.11,3s2.42,2.22,3.62,3.33c.43,3.38,1.06,6.75,1.2,10.14C268.42,229.65,267.52,231.26,267.05,232.85Z"/><path class="cls-4" d="M106.05,184.93c-3.85-4.68-4.1-9.26-.75-13.83,3-4.19,7-5,12.77-2.61,7.18,2.93,7.68,4.62,3.25,11-2.25.13-4.56.61-6.76.31C110.19,179.22,108.18,182.06,106.05,184.93Z"/><path class="cls-16" d="M92.75,236.81c0,1.36.11,2.73.17,4.09-.29,3-.59,5.93-.88,8.9H89l0,0-8.06-3,.06,0-1-1,0,0-2.06-1,.07,0-2.07-1,.06,0-1-1,0,0-1-1,0,0-2.06-1,.05.06-1-2.06,0,0c-.57-4.44,2.15-6.43,5.81-5.92,5.11.7,10.08,2.46,15.11,3.77C92.2,236.72,92.48,236.76,92.75,236.81Z"/><path class="cls-15" d="M106.05,184.93c2.13-2.87,4.14-5.71,8.51-5.11,2.2.3,4.51-.18,6.76-.31.09,2.52.24,5.05.22,7.57a21.45,21.45,0,0,1-.58,3.42l-.91.51L117,192.19c-.53,3-1,6-1.88,10.77L105,192.77Z"/><path class="cls-15" d="M137.8,229.6c-1.3-1.55-3.31-2.92-3.75-4.68-.91-3.61,2.54-5.95,6.18-4.66.58.21,1.39-.19,2.09-.31,4,6.59,10.69,9.36,17.29,12.33,1.5.68,3.88,2.66,3.66,3.31-.92,2.75-1.05,6.59-5.36,6.69-.34,0-.69-.61-1-.94.93-2.58.38-4.26-2.69-4.43Z"/><path class="cls-18" d="M534,185.8c-5.13,2.81-10.5,4.65-16.46,4.09-1.66-9.16,7.32-17.46,16.26-15l3.14,2.2c.73.8,1.47,1.6,2.2,2.41-1.68,1.38-3.43,2.69-5,4.2C533.78,184.06,534,185.08,534,185.8Z"/><path class="cls-14" d="M253.67,319.68c-9.47,3.38-16.63-.73-23-7.15-1.51-1.5-2.84-3.18-4.26-4.77-.43-1-.86-2-1.3-2.95,2.2,1.48,4.52,2.81,6.56,4.48,2.56,2.09,4.06,6.18,8.59,4.13l4.83,2.21.95.21c7.27,1.79,8.84-4.71,12.29-8.46l5,3.52Z"/><path class="cls-7" d="M106.13,330.74l.39-7.15c-.28-2-.69-4.95-1.1-7.88l11.45,2.14,3.75,9.16,1.59,4H107A1.52,1.52,0,0,0,106.13,330.74Z"/><path class="cls-14" d="M407,91.84a21,21,0,0,1,12.74,12.06c-.25,1-.49,1.92-.74,2.88l-1.83,1.09-3.25-1.1c-1-8.65-7.13-12.68-14.47-8.6-4.89,2.72-8.86,7.09-13.24,10.72-.31-1.29-1.12-2.71-.82-3.84A33.19,33.19,0,0,1,388,99.34l3.6-1.6,1.41-.93,0,0Z"/><path class="cls-9" d="M481.88,174.81c1,1.63,2.89,3.22,2.95,4.89.22,5.5.47,10.41,8.07,9.61.78-.08,1.67.93,2.53,1.45,4.87-5.73,6.19-6,8.58-1.85l.05-.08c-4.75,1-8.09,6.08-13.72,4.82-.19,0-.86,2-1.31,3.12l-7.35,2.15c.15-1.6-.23-3.54.54-4.72,1.95-3,2.53-5.39-1.15-7.32-3.25-1.69-2.17-4-.79-6.2.72-1.16,2.69-2.24-.32-2.91Z"/><path class="cls-11" d="M240.22,313.42c-4.53,2.05-6-2-8.59-4.13-2-1.67-4.36-3-6.56-4.48L223.36,302c.66-.68,2-1.52,1.86-2a92.24,92.24,0,0,0-3.45-11.31c-.37-.92-2.26-1.25-3.45-1.86V274.85l5.66-2-.54,8c.66,13.17,5.12,24.35,16.63,31.85C240.11,312.89,240.16,313.16,240.22,313.42Z"/><path class="cls-11" d="M473,232.85c-4.12,3.38-8.72,6.33-12.27,10.23-9.14,10-13.83,21.82-11.69,35.63.35,2.28,1.67,4.4,2.72,7L450,286.82c-1-2.38-2.4-4.68-3-7.16-2.5-9.82.58-18.9,4.09-27.89l11.29-15.39Z"/><path class="cls-11" d="M215.05,115.82l.95-2,1-2,9.36-11.54,14.7-5.74-.18.19L241,95l1.1,1.84c-2.66.87-5.49,1.4-7.94,2.67a35.1,35.1,0,0,0-14,13.25c-5.56,8.94-8.33,18.05-7.18,28.48.16,1.49-.62,3.08-1,4.63A29.05,29.05,0,0,1,211,143C208.93,133.45,211.62,124.58,215.05,115.82Z"/><path class="cls-11" d="M68.89,298c2-3.73,0-6.57-2.09-9.41-3-4.09-3.72-20.11-1-24.3.21-.32.89-.34,1.35-.5-.24,3-.49,6-.73,9C67,286,71.63,297,83,304.59L91,308c-.84.59-2.07,1.88-2.46,1.67-4.43-2.5-8.68-5.3-13.08-7.84a35.75,35.75,0,0,0-5.34-2.06l-.35-.11-.37,0Z"/><path class="cls-14" d="M224,272.82l-5.66,2c1-8.35,5.71-13.64,13.62-16.19l2.64.71,1.84,1.07,5.61,2.31,3,1.19-1,2.91-2.77-1.19-3-1.29C230.3,262.31,228.35,263.47,224,272.82Z"/><path class="cls-9" d="M154.19,236.91c3.07.17,3.62,1.85,2.69,4.43-1,1.37-3,2.86-2.9,4.09.54,4.49-1.6,7.19-5,9.37.17,2.25,5.43,2.78,2,6l-4.7,1.9-.92-4.9h-6.52l9.35-6.06c.48-1.7.94-3.41,1.45-5.11a55.62,55.62,0,0,1,2-6.37A17.71,17.71,0,0,1,154.19,236.91Z"/><path class="cls-9" d="M407,91.84l-14,5c.23-3.19-2.06-3-4.14-3.08l-.16-.21.15-.22,12.38-5.25L403.17,87c1-.67,2-1.33,3-2l4.87-5.09L413,78.85a80.94,80.94,0,0,1-2.66,8.87C409.69,89.29,408.12,90.48,407,91.84Z"/><path class="cls-9" d="M286.91,262.82,285,261.08c4-2.47,7.19-3,10.36,1.82.72,1.09,5.78-.37,8.7-1.17,1.45-.4,2.59-2,3.86-3l2,.17c-2.71,2.15-2.73,4.95-1.88,7.94l-.13,0,.09-.07,2.12,2.14-1.41.9L304,271l-1.84-5.19-.69,1.17-8.72-3Z"/><path class="cls-19" d="M75,250.6l-1,.1c-.68-1.74-.86-4.32-2.12-5-3.64-2.14-4.37-5.05-3.84-8.76l3,2,0,0c.35.69.69,1.37,1,2.06L72,240.8l2.06,1,0,0,1,1,0,0,1,1-.06,0,2.07,1-.07,0,2.06,1,0,0,1,1-.06,0,8.06,3,0,0,3.66,1-.69,5-1.9,0-3-2c-.37-.24-.74-.48-1.13-.7a2.26,2.26,0,0,0-.27.36l1.27.49.09,1.59-4.9-1.91c2.14-3.92-3.4-2.61-3.44-5Z"/><path class="cls-18" d="M148.28,286.82l5.55-.78,4.76,10.38-3.18.8,2.47.69c-.62,1.14-1.24,2.28-1.85,3.42l-3.84,1.18c-.2-2.14-.4-4.27-.63-6.7l-2.13-.76C149.05,292.31,148.67,289.56,148.28,286.82Z"/><path class="cls-11" d="M263,338.82c1-2.1,2-4.2,3.05-6.29,3.2,2.82,6.47,3.41,9.88.35-.14,2.47-.29,4.94-.43,7.42l-7.69-.76c-1.29-.13-2.57-.29-3.86-.43A6.49,6.49,0,0,0,263,338.82Z"/><path class="cls-13" d="M402,190.44c4.09,1.25,8.87,1.57,9.72,7.2L410,199l-11-3.48a.77.77,0,0,0-.36-.82Z"/><path class="cls-18" d="M249.05,257.8l7.12-8.87a7.44,7.44,0,0,1,.78-.2q-.17,6.79-.34,13.6l-5.64-2a.66.66,0,0,0-.47-.4l-1.44-1.16h.15Z"/><path class="cls-12" d="M105,192.77,115.09,203c.83-4.73,1.35-7.75,1.88-10.77,1.36,4.37,3.06,8.74.12,13.38-6.65-1.24-10-6.83-14.5-10.91Z"/><path class="cls-14" d="M339.12,350.81a34.51,34.51,0,0,1,1.16,5.93c.05,1.55-.69,3.12-1.08,4.67a.34.34,0,0,1-.39.42l-1.7,1.49-2.78,2.27-5.35,1.1c0-1.45.06-2.91.08-4.36l3.64-1.58,3.84-3.75Z"/><path class="cls-8" d="M482.07,238.14c1.89-2.79,1.53-4.68-2.11-5.24l-3.91.09-.08-.4,2.52-3.74,6.28,2c.47,1.69.93,3.38,1.4,5.06-.41,1.83-.83,3.65-1.24,5.48-.61,2.71-1,5.63-4.87,5.44Z"/><path class="cls-17" d="M293,217.9l-4.66,1.81c-.82-1.75-1.65-3.49-2.47-5.24,2.25-3,1.53-5.84-.65-8.54l6.79,4.9,2.05,6Z"/><path class="cls-17" d="M244,241.86c-3.28-.36-6.59-1.14-9.82-.93a8.42,8.42,0,0,0-5.7,2.92c-.57.79,1.41,3.51,2.39,5.27a19.06,19.06,0,0,0,2.19,2.67l-.06.15-3.53-.33-1.48.14.08.09-1.1-1.08.09.11,0-2.2c-.7-.71-1.39-1.43-2.08-2.14-.38-5,3.37-7.21,6.91-7.39C235.88,238.94,240,240.86,244,241.86Z"/><path class="cls-18" d="M244.66,85.1c1.25,3.43,3.39,1.62,5.34.9l-1.14,8.65-7.07-.93Z"/><path class="cls-11" d="M296.71,304.79,303,298l8.93-1.15c.22,1.32.43,2.63.65,3.94l-7.59.91C303,304.78,300.94,307.66,296.71,304.79Z"/><path class="cls-17" d="M71,238.84l-3-2c.48-6,5.79-6.47,9.46-6.36,4.54.13,9,2.5,13.47,4.05.51.18.67,1.39,1,2.11-5-1.31-10-3.07-15.11-3.77C73.15,232.41,70.43,234.4,71,238.84Z"/><path class="cls-8" d="M241.79,93.72l7.07.93q.66,2.47,1.34,4.95c-.42,2.86-.84,5.73-1.27,8.59l-4.87,2.48,2.13-8.74c2.34-3.12.4-4.7-2.18-6L241,95l-.11-.23.18-.19Z"/><path class="cls-18" d="M253.72,70.75l-6.55-3-.45-1.93.3-6.11,0,.1c2-.25,3.83,3.53,5.89.16Z"/><path class="cls-18" d="M504,188.91c5.37-1.85,8.19,2.89,12.1,4.78.32.16.39,1.59.07,2.11s-1.61,1.06-1.92.83c-3.46-2.51-6.82-5.18-10.2-7.8Z"/><path class="cls-17" d="M413,78.85l-1.93,1.09,0-.12c-1-4.88-4.33-7-9.83-5.79-4.13.94-8.1,2.54-12.14,3.85a10.09,10.09,0,0,1,2.19-2.23c7-3.63,14.21-4.77,21.77-1.85h0Z"/><path class="cls-14" d="M218.32,286.78c1.19.61,3.08.94,3.45,1.86A92.24,92.24,0,0,1,225.22,300c.12.48-1.2,1.32-1.86,2Z"/><path class="cls-18" d="M481.68,198.92l7.35-2.15-.21,8.94-5.67-1.39Z"/><path class="cls-14" d="M484.77,230.86l-6.28-2q1-3.61,2.09-7.25c1.11,3.53,3.3,2,5.33,1.12Z"/><path class="cls-18" d="M481.88,174.81l-1.92,3c-2.51-1.54-5.14-2.93-7.48-4.7-.89-.66-1.12-2.2-1.65-3.34,1.13,0,2.48-.45,3.32,0C476.83,171.26,479.32,173.1,481.88,174.81Z"/><path class="cls-19" d="M309.9,258.89l-2-.17c-.84-3.16-1.67-6.33-2.51-9.49l5.9-.93C310.79,252.09,310.34,255.49,309.9,258.89Z"/><path class="cls-14" d="M304,271l4.74-1.18-.63,6.94-6,1.13Q303,274.45,304,271Z"/><path class="cls-17" d="M429,101.81c4.68-2.78,9.44-5.4,15.07-2.9,2.71,1.21,4.66,3.15,3.9,6.56L446,106.89c-.18-5.22-3.39-7.82-8.74-6.88-2.76.48-5.47,1.27-8.21,1.92Z"/><path class="cls-14" d="M146.22,262.73l4.7-1.9.18,7.43L146,269.9Z"/><path class="cls-1" d="M259,241.71l9.23,10.83-10.57-5.94C258.08,245,258.52,243.34,259,241.71Z"/><path class="cls-14" d="M447.35,166.9c-.59-.26-1.62-.42-1.7-.79-.57-2.71,4.43-9.58,7.37-10.29q-2.1,4.86-4.18,9.74Z"/><path class="cls-6" d="M448.27,108.8,442,117.88l.08-.1-1.08,0-.18.23-.27-.1c.53-1,1.11-1.91,1.54-2.91.07-.15-.51-.58-.79-.89l-.18-1.19a4.4,4.4,0,0,0,0-1l-.06-1.17-.07.06,2.06-1-.05,0,1.05-1-.05,0,1.28,0Z"/><path class="cls-2" d="M399.06,195.51,410,199l0,2.81-9,.13Z"/><path class="cls-14" d="M446.44,120.59l-2.41,3-4-.9c-.33-1-.67-2-1-2.93l1.54-1.89,0,.08.27.1.18-.23,1.08,0-.08.1Z"/><path class="cls-18" d="M311.91,296.83,303,298l8-3.78C311.33,295.08,311.62,296,311.91,296.83Z"/><path class="cls-18" d="M305,301.68l7.59-.91c.18,1,.37,2,.56,3L311,305.78l-.78-.95-.21-1.1-2-.2-1.48-.35Z"/><path class="cls-14" d="M454.88,131.86c-4.57-.75-5.41-2.42-3.69-7.39Z"/><path class="cls-17" d="M255.06,248.87l-7.1-5C251.39,244,254.2,245.07,255.06,248.87Z"/><path class="cls-17" d="M419,106.78c.25-1,.49-1.92.74-2.88l4.27-.11.17.23L420,107.87Z"/><path class="cls-9" d="M448.27,108.8l-3,.11-.24-1.09-.05,0,1.05-1,0,.08,1.94-1.42C448.06,106.58,448.17,107.69,448.27,108.8Z"/><path class="cls-17" d="M424,103.79l5-2,.08.12L424.15,104Z"/><path class="cls-17" d="M248,243.86l-4-2Z"/><path class="cls-14" d="M454.47,151.62l-2.56.81-.12-1.24h2.86A.3.3,0,0,1,454.47,151.62Z"/><path class="cls-9" d="M234.57,259.37l-2.64-.71c.21-.62.42-1.23.64-1.84H234l-.05-.06,1.42,1.56Z"/><path class="cls-14" d="M455.78,135.84l-1.44-1.09,1-1Z"/><path class="cls-2" d="M225,246.53l2.07,2.14-1.64.12Z"/><path class="cls-5" d="M230.86,255l-2.13-1.91.48-.43,2.21,1.7C231.23,254.55,231,254.76,230.86,255Z"/><path class="cls-5" d="M225.43,248.79l1.64-.12c0,.73,0,1.47,0,2.2Z"/><path class="cls-13" d="M337.11,363.32l1.7-1.49Z"/><path class="cls-5" d="M232.49,256.22,230.86,255c.18-.22.37-.43.55-.63.57.45,1.15.88,1.72,1.32Z"/><path class="cls-5" d="M227,250.76l1.1,1.08Z"/><path class="cls-5" d="M228,251.75l1.48-.14-.25,1-.48.43Z"/><path class="cls-5" d="M234,256.82h-1.46a.79.79,0,0,1-.08-.6l.64-.55Z"/><path class="cls-7" d="M244.53,41.75c-2.78-1.71-5.64-3.3-8.27-5.22-.75-.54-.81-2-1.18-3.1,1-.07,2.26-.56,3-.15,2.72,1.46,5.28,3.23,7.9,4.87Z"/><path class="cls-9" d="M244.53,41.75l1.47-3.6L249.63,41q-.44,3.9-.85,7.8l-2.48,2.68-.21-6.9Z"/><path class="cls-20" d="M246.3,51.46l2.48-2.68c6.84-3.6,13.79-7,20.51-10.84,16.57-9.41,33-19,49.57-28.48,1.52-.86,3.41-1.09,5.12-1.62-.33,2.25-.65,4.49-1,6.73L258,52l-8.62,2.71L247,59.85l0-.1c-2,.66-4.2,1-6,2q-60.22,34.6-120.38,69.33c-1.14.66-2.36,1.2-3.54,1.8-.7-2-1.4-4.07-2.11-6.11q19.23-11,38.46-21.94,29-16.59,57.91-33.24Q228.86,61.57,246.3,51.46Z"/><path class="cls-18" d="M287.44,56.09c-7.13-.88-8-3.15-4.27-11,3.36-4,6.74-8,12.83-7.25L298.57,39l3.37,2.35L307,47.82l-1.45,3L297,54.9l-5.23.63Z"/><path class="cls-9" d="M261.25,54.83c-1.51,1-3,2.07-4.54,3-1.24.78-2.56,1.44-3.84,2.15-2.06,3.37-3.92-.41-5.89-.16l2.38-5.1L258,52Z"/><path class="cls-18" d="M270,51.61c3.07,1.61,6.22,3.1,9.15,4.94.74.46.77,2.05,1.12,3.12-1,0-2.28.53-2.95.08-3.23-2.18-6.29-4.6-9.41-6.94Z"/><path class="cls-9" d="M531.72,272.76l0,43.13c-2.91,1.45-5.84,2.83-8.7,4.35-6.66,3.51-13.29,7.08-19.93,10.63,0-8.64-.33-17.3.05-25.92.42-9.44,3.51-18.08,11.52-23.74,4.82-3.4,10.44-5.67,15.7-8.44Z"/><path class="cls-6" d="M530.33,272.77c-5.26,2.77-10.88,5-15.7,8.44-8,5.66-11.1,14.3-11.52,23.74-.38,8.62-.06,17.28-.05,25.92-7.79-4.32-15.66-8.52-23.3-13.1-1.16-.69-1.61-3.08-1.8-4.74-.47-4.1-.6-8.23-.86-12.35.33-5.75.14-11.6,1.17-17.23.72-3.9,2.34-8.19,4.93-11.08,4-4.43,9.15-7.81,13.81-11.63,5-1.77,10-3.9,14.61.87-5.77,3.13-12.27,5.4-17.17,9.55-13.33,11.28-11.21,26.64-9.42,41.66l11.71,9V307.14c.08-3.15,0-6.32.28-9.45,1-9.18,4.46-16.8,13-21.52,2.9-1.6,5.32-4.07,8-6.15C522.34,269.91,526.9,268.79,530.33,272.77Z"/><path class="cls-6" d="M345.08,239.89c-7.94-4.36-16.14-8.31-23.63-13.34-1.88-1.26-1.64-5.93-2.05-9.08a78,78,0,0,1-.24-7.81,32.48,32.48,0,0,0,.18-4.29c-1.12-12.76,2.61-26.48,16-32.81,1.57-.75,2.6-2.66,3.88-4a1.41,1.41,0,0,1,.54.11l5.57-.34L333.4,183.85,332,185.9l.12,0a11.33,11.33,0,0,0-2.31,2.15A27.4,27.4,0,0,0,326,204.71c.47,5.69.73,11.41,1.09,17.11l11.23,9c.32-2.91.48-4.31.64-5.72l-1-6.95a71.51,71.51,0,0,0,.94-8.83c0-6,.81-11.65,4.88-16.27,2.91-3.3,6.16-6.3,9.25-9.43h2.05l2.92-3.79,4.15-.2q2.09-1.64,4.18-3.26l5.68,5.11q-5.79,3.28-11.58,6.57c-8.09,4.54-14,10.72-14.45,20.51C345.5,219,345.36,229.46,345.08,239.89Z"/><path class="cls-9" d="M339.22,168.53c-1.28,1.37-2.31,3.28-3.88,4-13.39,6.33-17.12,20.05-16,32.81a32.48,32.48,0,0,1-.18,4.29l-14,6.27c0-9.6-.36-19.21-.09-28.8.36-12.5,11.35-23.7,27.27-28.38h2.5Z"/><path class="cls-9" d="M497,260.74c-4.66,3.82-9.82,7.2-13.81,11.63-2.59,2.89-4.21,7.18-4.93,11.08-1,5.63-.84,11.48-1.17,17.23L463,307.79c0-6.81.42-13.64,0-20.42-1.11-16.8,6.1-28.3,21.26-35.2a31.82,31.82,0,0,0,4.8-3.31l4.21,1.24C496.16,253.05,497.71,256.49,497,260.74Z"/><path class="cls-9" d="M345.08,239.89c.28-10.43.42-20.87.9-31.3.46-9.79,6.36-16,14.45-20.51q5.81-3.27,11.58-6.57l3.05.31,4.2,10.75c-2.09,1.31-4.17,2.64-6.29,3.92-8.4,5.1-12.18,12.93-12.91,22.37-.36,4.64-.08,9.32-.09,14-3.34,1.67-6.67,3.37-10,5C348.35,238.59,346.7,239.21,345.08,239.89Z"/><path class="cls-6" d="M332.33,158.75c-15.92,4.68-26.91,15.88-27.27,28.38-.27,9.59,0,19.2.09,28.8a41.93,41.93,0,0,1-5.71-1.47c-2.55-1-5-2.41-7.45-3.63l-6.79-4.9-2.2-5.4c.3-1.84.6-3.69.89-5.53l1.1-.2c.37,1.39.75,2.78,1.12,4.17l11,7.84,1.35-1-1.62-11.9.37-.27q.28-2.9.56-5.78.57-5.51,1.13-11c3.79-9,10.9-14.67,19.21-19.13l1.71-.22c.4-.52.8-1,1.19-1.55l4.66-.47,2.42.4Z"/><path class="cls-21" d="M586.88,364.49v-6.22c0-44.13.1-88.25-.13-132.38,0-5.35,1.14-8.85,6.31-10.8,2.57-1,4.88-2.61,8.05-4.36v6.15c0,44.12-.09,88.25.13,132.37,0,5.29-.92,8.88-6.19,10.81C592.49,361,590.19,362.67,586.88,364.49Z"/><path class="cls-13" d="M244,266.85l1-2.91,1-.39,6.13,3.25,7.83,10,2.85,7.25-5.94-.06c-.36-.4-.71-.8-1.06-1.21l-.76-1-1-2Z"/><path class="cls-5" d="M276.72,307.06a34.94,34.94,0,0,0,3,4.83,70.61,70.61,0,0,0,5.32,5c.64,2.29,1.29,4.58,1.93,6.87-3.38,1.81-6.73,2.85-10-.33l-2.69-.2Q275.52,315.17,276.72,307.06Z"/><path class="cls-15" d="M274.34,323.27l2.69.2-.84,9-.26.41c-3.41,3.06-6.68,2.47-9.88-.35,0-.6-.05-1.19-.07-1.78,0-1.58,0-3.17,0-4.75Z"/><path class="cls-16" d="M266,326c0,1.58,0,3.17,0,4.75-.45-.17-1.28-.31-1.3-.52-.64-6.7-6.72-7.7-11-10.55l9.61-8.78,1.35-.34c-.05,3.41-.28,6.82-.08,10.21C264.65,322.54,265.51,324.26,266,326Z"/><path class="cls-8" d="M264.63,310.56l-1.35.34-5-3.52c-5.07-4.12-9.79-8.91-17.07-8.69a1.88,1.88,0,0,1-.1-.85l2.61-4,10.23,6,5.12,3.1,2.89,1.8C264.94,305.75,265.13,308,264.63,310.56Z"/><path class="cls-7" d="M262,304.77l-2.89-1.8-.15-1.82.21-2.4q-.63-5.46-1.27-10.92l3.12-.9c.66,4.07,1.52,8.12,1.91,12.21C263.07,301,262.31,302.89,262,304.77Z"/><path class="cls-8" d="M252.17,266.8,246,263.55l3.09-3.19,1.37-.47a.66.66,0,0,1,.47.4l4.1,3.71,3.07,5.12Z"/><path class="cls-8" d="M261,286.93l-3.12.9-8.56,1.51,2.67-3.43,3.38-1.24,1.55-.67,5.94.06Z"/><path class="cls-22" d="M252.17,266.8l6,2.32,1.86,7.69Z"/><path class="cls-2" d="M255.07,264l-4.1-3.71,5.64,2Z"/><path class="cls-9" d="M399.06,195.51l1.92,6.42a48.09,48.09,0,0,1-5.29,3.52C384.09,211.31,379,221,379,233.66c0,1.66,0,3.32.07,5l-11.62,5.65c.25-9.58-.25-19.26,1-28.72,1-7.83,6.88-12.93,13.92-16.51,3.81-1.95,7.37-4.41,11-6.64l5.31,2.27A.77.77,0,0,1,399.06,195.51Z"/><path class="cls-17" d="M367.46,244.29l11.62-5.65V253Z"/><path class="cls-17" d="M406.18,266.85l11.59-5.74V276Z"/><path class="cls-23" d="M533.58,208.85V189.26a32.43,32.43,0,0,1,3.57,1.43c12.71,7.28,25.46,14.49,38,22,1.74,1,3.55,3.69,3.56,5.6.19,50.64.15,101.27.14,151.9,0,.62-.14,1.25-.3,2.57-4.52-2.53-8.68-4.82-12.8-7.19-9.23-5.3-18.36-10.8-27.72-15.89-3.23-1.76-4.28-3.79-4.27-7.41.14-40.31.09-80.62.08-120.92,0-2.83-.17-5.65-.26-8.47C533.6,211.55,533.59,210.2,533.58,208.85ZM567.88,350l1.45-1.45,3.25,1,.62-1.65-34.92-20.15-1.15,1.84,8.78,5.39-2.14,1-5.41-2.32-.65,1.13L549,342.85l-10.9-4.08-.79,1.37,34.85,20.24,1-1.41-5.33-4c0-.44.07-.88.11-1.32l4.59,1.1.49-1.14ZM541,232.91l31.94,18.87c0-11.4.08-21.52-.1-31.63,0-1.13-1.28-2.66-2.38-3.3-9.77-5.71-19.63-11.27-29.46-16.87-.37.45-1.05.89-1.05,1.33q-.07,15,0,30.09C540,231.91,540.62,232.41,541,232.91Zm11.09,16.34c0,15,0,28.76,0,42.53a2.86,2.86,0,0,0,.93,2.15c6.3,3.81,12.67,7.51,19.9,11.75,0-15.09,0-28.73-.05-42.38a3.35,3.35,0,0,0-1.2-2.49C565.5,257.05,559.22,253.43,552.07,249.25Zm-3.22,41.95V271.75c0-8.05-.69-8.9-9.17-11.36-.18.24-.51.49-.51.75-.08,5.82-.15,11.63-.16,17.45C539,287.68,539,287.68,548.85,291.2Zm-1.12-31.78v-11l-8.18-5.53C537,253.37,538.78,257.14,547.73,259.42Z"/><path class="cls-11" d="M533.58,208.85c0,1.35,0,2.7,0,4.05-5.15,5.64-6,12.06-3.46,19.09l-4.1.6q1.11-9.39,2.21-18.78c-.12-1.35-.24-2.7-.37-4.06a.84.84,0,0,1,.68-.2Z"/><path class="cls-22" d="M528.56,209.55a.84.84,0,0,0-.68.2c-4.81-2.12-5.36-4.7-1.51-7.68a58.55,58.55,0,0,1,5.42-3.37C532.2,202.76,532.37,206.75,528.56,209.55Z"/><path class="cls-9" d="M240,164.86l-11.93,6c0-9.91-.35-19.82,0-29.71.39-10.44,6.55-17.29,15.26-22.29,3.36-1.94,6.5-4.27,9.74-6.43l4.45,1.52,3.76,9.5a53.86,53.86,0,0,1-5.42,3.46c-9.28,4.52-14.23,12.18-15.54,22.1C239.59,154.2,240,159.57,240,164.86Z"/><path class="cls-9" d="M237.19,114.55c-11.92,6.13-17.24,15.88-16.28,29.22.12,1.74-.63,3.54-1,5.32-1.24-2.32-3.28-4.54-3.59-7a39.53,39.53,0,0,1,10-32.6c2.86-3.2,7.13-5.13,10.76-7.63Q237.17,108.21,237.19,114.55Z"/><path class="cls-7" d="M237.15,101.88c-3.63,2.5-7.9,4.43-10.76,7.63a39.53,39.53,0,0,0-10,32.6c.31,2.44,2.35,4.66,3.59,7l-.09,7L215,151.73l-1.17-1.88.1.1c-.41-.69-.82-1.38-1.24-2.07-.24-.69-.49-1.37-.74-2,.35-1.55,1.13-3.14,1-4.63-1.15-10.43,1.62-19.54,7.18-28.48a35.1,35.1,0,0,1,14-13.25c2.45-1.27,5.28-1.8,7.94-2.67l1.93-.91c2.58,1.34,4.52,2.92,2.18,6l-5.27-.93Z"/><path class="cls-9" d="M211.94,145.83c.25.68.5,1.36.74,2,.42.69.83,1.38,1.24,2.07l-.1-.1,0,1.05-5.08,2.91c-1.24-11.42-2.07-22.84,2.45-33.8.68-1.64,2.52-2.8,3.83-4.19-3.43,8.76-6.12,17.63-4,27.19A29.05,29.05,0,0,0,211.94,145.83Z"/><path class="cls-14" d="M257.48,113.93,253,112.41l-4.1-4.21q.65-4.31,1.27-8.6C255.17,103.08,256.87,108.23,257.48,113.93Z"/><path class="cls-17" d="M208.77,153.81l5.08-2.91,1.14.83,4.86,4.35,1,4.31-1.1.88Z"/><path class="cls-8" d="M240.92,101c-.23,1.58-.47,3.16-.7,4.75-1,2.93-2,5.87-3,8.81l0-12.68Z"/><path class="cls-9" d="M217,111.82l-1,2Z"/><path class="cls-9" d="M456.94,288.2c-5.22-4.38-5.28-10.57-4.95-16.39.77-14,6.23-25.66,19.07-32.84q0,6.3,0,12.59c-5.59,4.25-11.22,8.68-12.76,15.91-1.05,4.95-.94,10.15-1.28,15.25C456.88,284.54,457,286.37,456.94,288.2Z"/><path class="cls-9" d="M451.09,251.77c-3.51,9-6.59,18.07-4.09,27.89.63,2.48,2,4.78,3,7.16l-.23.18h-.29l-5.18,3.15c0-10.33-2.11-20.83,1.79-30.88C447.18,256.54,449.4,254.26,451.09,251.77Z"/><path class="cls-14" d="M493.21,250.1,489,248.86c-1.35-2.49-2.71-5-4.07-7.47.41-1.83.83-3.65,1.24-5.48C490.84,239.49,492.85,244.38,493.21,250.1Z"/><path class="cls-17" d="M444.33,290.14l5.18-3.15,7.26,5.95c-.12,1.4-.24,2.8-.44,5.16Z"/><path class="cls-8" d="M476.82,237.38q-1,5.67-1.91,11.34c-.63.94-1.26,1.88-1.88,2.82q.44-6.82.88-13.64Z"/><path class="cls-14" d="M317.55,55.36c-7.73,2.22-11.83,8.42-16,14.57-4.66-1.46-1.34-3.34-.08-4.71,2.26-2.46,5-4.54,4.34-8.48.67-.35,1.33-.7,2-1l16.24-6.09c9.78,3.85,14,10,13.83,20.22-5.25.14-2.61-4.74-4.35-6.81A25.4,25.4,0,0,0,331,60.7l-1.85-2.05c-2.23-4.43-5.94-4.84-10.2-3.73l-1.35.47Z"/><path class="cls-14" d="M300.43,101.68c1.11,1.69,1.87,4,3.43,4.88s4.07.33,6.16.41c1.62.1,3.87.93,4.75.17,4.93-4.23,9.53-8.85,14.24-13.34.24,1.32.95,2.76.63,3.92-.42,1.5-1.66,2.78-2.54,4.15-7,7.66-14.79,13.18-25.9,8.65l-8.33-8.86,4.19-3.13.9,1.36,1.34,1.29Z"/><path class="cls-9" d="M324.09,49.61,307.85,55.7c.84-2.48,1.33-4.7-2.6-3-1.53.66-3,1.44-4.49,2.17l-3.82,0,.05.07,8.58-4.08,11.46-5h0l6-3v0l5.9-5.07,2-1.69c.69,4.47-1.19,7.83-4.49,10.65A21.21,21.21,0,0,0,324.09,49.61Z"/><path class="cls-18" d="M324,85.83l-7.9,4.94c-.47-1.09-.93-2.19-1.39-3.28l-2.83-2.59-2.58.18c.48-3.4,1.78-3.85,5.59-1.35-.15-1.93-.27-3.44-.39-5l3.53-4.4L324,77c2.1,1.83,5,3.19,4.09,6.82Z"/><path class="cls-24" d="M304,57.35,293.33,73c-1.68-.51-4-.54-4.82-1.67-.64-.91.07-3.89,1.12-4.66"/><path class="cls-7" d="M256.17,87c2.32-2.88,5-2.8,8-1.06,2.61,1.56,6.19,2.47,4.74,6.85l-8-.83Z"/><path class="cls-11" d="M293.33,73,304,57.35l1.89-.61c.7,3.94-2.08,6-4.34,8.48-1.26,1.37-4.58,3.25.08,4.71l-.53.88-.84,1.56a.31.31,0,0,1-.25.44L297,75Z"/><path class="cls-9" d="M267,111.82l-7.55-6.9,3.65-4.12,7.66,7.19c-.5,1.25-1,2.5-1.52,3.76Z"/><path class="cls-7" d="M298,78.93q-.83,5.5-1.64,11l-2.25,5.9c-.36-3.5-1.3-7.07-.88-10.47.29-2.32,2.48-4.41,3.82-6.59A1.31,1.31,0,0,1,298,78.93Z"/><path class="cls-11" d="M297,78.8c-1.34,2.18-3.53,4.27-3.82,6.59-.42,3.4.52,7,.88,10.47l-4.13.53,3-19.39Z"/><path class="cls-16" d="M260.86,92l8,.83c.66,1.26,1.77,2.48,1.87,3.78.14,1.76-.5,3.58-.81,5.38Z"/><path class="cls-13" d="M269.24,111.75c.51-1.26,1-2.51,1.52-3.76l1.62-2.13c3.26-.89,5.25.14,5.58,3.68h-2.19c.07,1.25.13,2.37.19,3.5a20.22,20.22,0,0,1-3.65,0A15.61,15.61,0,0,1,269.24,111.75Z"/><path class="cls-25" d="M278,109.54c-.33-3.54-2.32-4.57-5.58-3.68l-1.29-3,1.93-.15h6.23c.46,1.32,1.09,3.14,1.73,5-.4,1-.79,2-1.18,2.92Z"/><path class="cls-14" d="M297,75,300,72.81c.06.84.11,1.69.17,2.53C299.09,75.21,298.06,75.09,297,75Z"/><path class="cls-9" d="M309.29,85.08l2.58-.18L308,86.8l0,0Z"/><path class="cls-22" d="M298,99.89l-.9-1.36c1-.66,2-1.32,3-2C299.34,97.66,298.65,98.77,298,99.89Z"/><path class="cls-18" d="M298.7,56.19l-1.76-1.36,3.82,0Z"/><path class="cls-22" d="M305.89,92.77l-1.79,1Z"/><path class="cls-13" d="M505.85,246.78c.15-.7.29-1.41.44-2.11a4.94,4.94,0,0,0,1.16-.93c3-4.77,5.84-3.17,8.65.19l-1.19,2.87-1-.06-.41,0c-2.08-2.71-1.53.91-2.44,1-.81.57-1.93,1.8-2.37,1.59C507.56,248.86,506.77,247.69,505.85,246.78Z"/><path class="cls-4" d="M146.22,262.73,146,269.9c-.58,6.58-3.5,8.4-9.5,6.13-2.95-1.11-6-1.9-9-2.84,1-4.45,2.13-8.88,2.82-13.38.14-.87-1.48-2-2.3-3-1.59-2-3.11-4-4.79-5.91-3.23-3.65-6.56-7.22-9.84-10.82l10.44-4.5c4.93,2.29,9.89,4.53,14.78,6.89,4.21,2,8,4.53,9.53,9.33l-9.35,6.06h6.52C145.62,259.56,145.92,261.15,146.22,262.73Z"/><path class="cls-15" d="M113.38,240.05c3.28,3.6,6.61,7.17,9.84,10.82,1.68,1.9,3.2,3.93,4.79,5.91-1.23,4.07-3.25,6.05-7.4,3a10.55,10.55,0,0,0-2.75-1.06c-.19-1.93-.39-3.86-.62-6l-13.5-9.5c-.45-.85-1.36-1.76-1.27-2.56a60,60,0,0,1,1.36-6.58c1.75.52,3.54.94,5.24,1.59a7.68,7.68,0,0,1,1.86,1.56Z"/><path class="cls-11" d="M301.17,344.55q-1.55-6.85-3.07-13.72l3.83-1.08-3.92-.94c0-.66,0-1.33-.07-2a32.71,32.71,0,0,0,3-3.44c1.18-1.77,2.12-3.71,3.16-5.57l-.68,12.05c1.21,10.11,4.68,19.12,12.66,25.93l12.95,6.55c0,1.45-.05,2.91-.08,4.36l-10-1.93c-.09-2.5-1-3.55-3.48-2.06a.39.39,0,0,1-.45-.3c1.35-3.66-1.71-2.11-3.06-2.59l-1-1L308.47,356l-4.57-7-.71-1.24Z"/><path class="cls-14" d="M315.53,362.7c2.45-1.49,3.39-.44,3.48,2.06Z"/><path class="cls-14" d="M312,359.81c1.35.48,4.41-1.07,3.06,2.59Z"/><path class="cls-14" d="M308.47,356l2.54,2.75Z"/><path class="cls-14" d="M303.19,347.83l.71,1.24Z"/><path class="cls-7" d="M144.15,336.58c-2.66-7.43-4.36-15-3.2-23,.76-5.22,2.4-10,7-13.23q.93,2.58,1.84,5.16l-2.25,3.17c-5.28,5.1-3.91,11.43-2.85,17.46,1.67,9.49,6.25,17.61,12.75,24.72.89,1,1,2.64,1.51,4C151.55,350.79,148,343.6,144.15,336.58Z"/><path class="cls-7" d="M166.83,358.2l.85-1.86.71.5-1.5,1.35Z"/><path class="cls-13" d="M283,200.53l2.2,5.4c2.18,2.7,2.9,5.51.65,8.54l-2.94-.32c-.55-1.23-1.09-2.48-1.64-3.72l-2.4-2.65C277.24,203.65,281.25,202.74,283,200.53Z"/><path class="cls-16" d="M281.27,210.43c.55,1.24,1.09,2.49,1.64,3.72-.26,2.66-.51,5.33-.85,8.86l-9.88-8.18.51-1.09,3.55.55Z"/><path class="cls-6" d="M261.24,123.43c4.14-1.25,8.39-3.53,11.89,1.26-2,1.17-3.94,2.37-5.93,3.52-6.58,3.8-13.72,7-17.11,14.49-4.85,10.72-3.42,21.93-2.25,33.1l10,8.43,1.21-.95V170.49a62.19,62.19,0,0,1-.05-7c1.07-10.45,3.91-19.84,14.65-24.68,2.64-1.19,4.88-3.28,7.3-5l8-1.07,4.94,3.16c-.59.27-1.17.58-1.78.8-12.6,4.47-23.43,11-25.65,25.54-1,6.82-.34,13.9-.43,20.87q-1.68,4.38-3.37,8.75c-7.12-3.84-14.3-7.58-21.3-11.63-.92-.53-1.24-2.59-1.31-4-.2-3.82-.11-7.65-.14-11.48.07-5.29-.36-10.66.33-15.87,1.31-9.92,6.26-17.58,15.54-22.1A53.86,53.86,0,0,0,261.24,123.43Z"/><path class="cls-9" d="M266.07,183.19c.09-7-.61-14.05.43-20.87,2.22-14.51,13.05-21.07,25.65-25.54.61-.22,1.19-.53,1.78-.8,4,2,6.4,5.07,6.08,9.79a29.72,29.72,0,0,1-3.85,2.94c-8.24,4.4-14.76,10.29-16.48,19.91-.72,4-.49,8.23-.7,12.35C274.18,178.82,270.17,181.28,266.07,183.19Z"/><path class="cls-6" d="M279,181c.21-4.12,0-8.32.7-12.35,1.72-9.62,8.24-15.51,16.48-19.91a29.72,29.72,0,0,0,3.85-2.94l7-.91-7.46,10c-9,3.85-12.44,11.39-13.55,20.46-.43,3.56-.77,7.13-1.16,10.69Z"/><path class="cls-9" d="M284.83,186c.39-3.56.73-7.13,1.16-10.69,1.11-9.07,4.56-16.61,13.55-20.46-1.71,4.3-3.89,8.48-5.05,12.93-2.28,8.84-2.81,17.71,2.74,25.82l-.37.27L286.11,199c-.37-1.39-.75-2.78-1.12-4.17C284.94,191.87,284.88,188.94,284.83,186Z"/><path class="cls-15" d="M283,200.53c-1.75,2.21-5.76,3.12-4.13,7.25-1.19.38-2.39.73-3.57,1.13-.83.27-1.64.61-2.45.92-.65-3.85-1.63-7.69-1.84-11.56-.16-3,1.79-4.22,5-3.67a63,63,0,0,0,7.91.4C283.6,196.84,283.3,198.69,283,200.53Z"/><path class="cls-17" d="M272.85,209.83c.81-.31,1.62-.65,2.45-.92,1.18-.4,2.38-.75,3.57-1.13l2.4,2.65-5,3.86-3.55-.55C272.74,212.44,272.8,211.13,272.85,209.83Z"/><path class="cls-7" d="M182.16,341.83l-.42-1L180.93,326l2.5-.48c.21,5.33.43,10.66.56,16A10.78,10.78,0,0,1,182.16,341.83Z"/><path class="cls-7" d="M164.54,303.55l-4.36-1.68c-.08-1-.15-2-.22-3C163,298.93,165.15,299.9,164.54,303.55Z"/><path class="cls-7" d="M157.84,301.69l-1.81-.36c.61-1.14,1.23-2.28,1.85-3.42l1.2,0C158.66,299.19,158.25,300.44,157.84,301.69Z"/><path class="cls-7" d="M177.93,351.79l2.88-4.46C181,349.58,181.46,352,177.93,351.79Z"/><path class="cls-18" d="M157.84,301.69c.41-1.25.82-2.5,1.24-3.74l.88.92c.07,1,.14,2,.22,3v.26l-2.36-.19Z"/><path class="cls-4" d="M117.2,316.89l-.33,1-11.45-2.14-.26-.12-.17.23-1.85-9.47.84-6.51c-.3-1.4-.59-2.8-.89-4.2,3.3-2.48,3.14-5.83,2.57-9.43-.46-2.86-.55-5.79-.8-8.69L102,275.7c-2.25-4.53-4.48-9.07-6.75-13.59-1.08-2.14-2.22-4.24-3.33-6.36l.69-5-.59-1c.29-3,.59-5.94.88-8.9l10.82,2.23,13.5,9.5c.23,2.18.43,4.11.62,6-1.41,3.86,1.2,13.28,4.51,16.26.29,1,.59,2,.88,3l-2.07,14.89-2,10.78c0,.53,0,1.06.07,1.59Z"/><path class="cls-14" d="M419,179c-3.72-2.22-7-4.81-8.26-9.23l4.42-2.77,6.89,8.74,4,.29,4.39,4.06Z"/><path class="cls-14" d="M433.17,179.28c.7-4.82,5.52-8.29,9.95-7.13Z"/><path class="cls-14" d="M104,299.84l-.84,6.51-6.64,5.33c-10.88,2.61-19.87-1.45-26.4-11.9a35.75,35.75,0,0,1,5.34,2.06c4.4,2.54,8.65,5.34,13.08,7.84.39.21,1.62-1.08,2.46-1.67l7.6-3.68,0-.16.33-1.32a.63.63,0,0,0,.25-.76l1-.75,1-1.86Z"/><path class="cls-4" d="M287.49,281.93q2.6-9,5.21-17.93l8.72,3,.69-1.17L304,271q-1,3.44-1.93,6.89c-.77,7-2.46,8.1-9.16,5.91C291.05,283.22,289.28,282.56,287.49,281.93Z"/><path class="cls-13" d="M286.18,300.53l1.36-4.13-2.48-6.51,3,0-.05-.12,7.91,9.58-2.73,3.11Z"/><path class="cls-15" d="M295.91,299.32,288,289.74l7.88.73,4.35,4.44Z"/><path class="cls-16" d="M286.18,300.53l7,1.9L286,310.58C285.45,307.22,282.92,303.81,286.18,300.53Z"/><path class="cls-7" d="M297.48,287.86c-.54.87-1.07,1.74-1.6,2.61l-7.88-.73.05.12-1.93-1.27c.34-.52.69-1.5,1-1.49C290.58,287.27,294,287.59,297.48,287.86Z"/><path class="cls-15" d="M286.12,288.59l1.93,1.27-3,0-.06-1Z"/><path class="cls-24" d="M122.37,274.93c-3.31-3-5.92-12.4-4.51-16.26a10.55,10.55,0,0,1,2.75,1.06c4.15,3.1,6.17,1.12,7.4-3,.82,1,2.44,2.16,2.3,3-.69,4.5-1.83,8.93-2.82,13.38Z"/><path class="cls-24" d="M121.18,292.81l2.07-14.89,3.53.93c.47,1.31,1,2.63,1.42,3.95l2.33,4.71c-.52,2.07-.92,3.65-1.33,5.23-4.39,3.15-.2,6.52-.25,9.78-2.71,1.39-4.42,1-5.2-2.33A68.62,68.62,0,0,0,121.18,292.81Z"/><path class="cls-7" d="M129.2,292.74c.41-1.58.81-3.16,1.33-5.23l-2.33-4.71c4.24.7,8.49,4,12.74,0q.93,2.11,1.88,4.23L136.07,294Z"/><path class="cls-14" d="M119.21,305.18c0-.53,0-1.06-.07-1.59,4.36-.58,6.72,2.13,8.78,5.33q.87,3,1.75,6l-2.59,1.73c-1.16-.61-2.35-1.16-3.45-1.86-.71-.45-1.6-1-1.87-1.71C120.79,310.49,120,307.82,119.21,305.18Z"/><path class="cls-2" d="M129.67,314.91q-.88-3-1.75-6l7.53-7.61c3.16,2.91,2.81,5.48-.48,8.15A59.36,59.36,0,0,0,129.67,314.91Z"/><path class="cls-11" d="M140.94,282.8c-4.25,4-8.5.7-12.74,0-.47-1.32-.95-2.64-1.42-3.95l15.3,2Z"/><path class="cls-22" d="M129.2,292.74l6.87,1.23L129,302.52C129,299.26,124.81,295.89,129.2,292.74Z"/><path class="cls-16" d="M140.94,282.8l1.14-2h6.57L142.82,287Q141.88,284.92,140.94,282.8Z"/><path class="cls-24" d="M312.67,309.35l.35.1,1.69.45q1.26,6.53,2.51,13.05l.78,6.83-2.15,1.55-6.75-20.61Z"/><path class="cls-8" d="M317.22,323q-1.25-6.52-2.51-13.05l2.31-.13c.54.67,1.09,1.33,1.63,2l.18,3.18C318.29,317.61,317.76,320.28,317.22,323Z"/><path class="cls-14" d="M330,318.83,327,315.69l3.86-.39C330.58,316.47,330.27,317.65,330,318.83Z"/><path class="cls-14" d="M312.67,309.35l-3.57,1.37c-2.17-2.44-.66-4.19,1.12-5.89l.78.95Z"/><path class="cls-14" d="M335.86,329.82c-.1-.61-.19-1.23-.29-1.85l3.24,1.36-1.68,2.49Z"/><path class="cls-14" d="M317,308.81l-1-2h0l3.25.29.21.87-2.45.84Z"/><path class="cls-14" d="M317,309.77l-2.31.13-1.69-.45,4-.64h0C317,309.14,317,309.46,317,309.77Z"/><path class="cls-14" d="M316,306.82l-.34-.2.34.2Z"/><path class="cls-19" d="M81,274.83q0-9.37-.08-18.74l3.34,1.52q-.58,8.49-1.19,17Z"/><path class="cls-8" d="M102,275.7l2.84,1.83-4.06,2.22c-1.31.41-2.62.86-4,1.22-2,.52-3.95.87-2.89-2.38l4.33-1.83Z"/><path class="cls-9" d="M75,250.6l3.7-2.08c0,2.44,5.58,1.13,3.44,5Z"/><path class="cls-24" d="M98.29,276.76,94,278.59c.67-1.58,1.33-3.16,2-4.75l.07,0,2,0Z"/><path class="cls-9" d="M87,255.48l-.09-1.59.13-.15,3,2Z"/><path class="cls-22" d="M98.05,273.81l-2,0c.33-.66.66-1.32,1-2Z"/><path class="cls-26" d="M238.07,254.72l8.08,2.92-.27.36-8-3.07Z"/><path class="cls-26" d="M249.05,257.8c.06.31.11.62.16.94l-3.33-.74.27-.36Z"/><path class="cls-26" d="M234,252.77l2,1-.13.16-2-1Z"/><path class="cls-26" d="M236.07,253.74l2,1-.15.21-2-1Z"/><path class="cls-26" d="M233.05,251.79l1,1-.07.09-1-.92Z"/><path class="cls-11" d="M476.05,233l3.91-.09C478.73,235.84,477.4,234.94,476.05,233Z"/><path class="cls-17" d="M89,249.84l-8.06-3Z"/><path class="cls-17" d="M92,249.8l.59,1-3.66-1Z"/><path class="cls-17" d="M80,245.84l-2.06-1Z"/><path class="cls-17" d="M78,244.84l-2.07-1Z"/><path class="cls-17" d="M74,241.84l-2.06-1Z"/><path class="cls-17" d="M72,240.86c-.34-.69-.68-1.37-1-2.06C71.33,239.49,71.67,240.17,72,240.86Z"/><path class="cls-17" d="M76,243.85l-1-1Z"/><path class="cls-17" d="M81,246.85l-1-1Z"/><path class="cls-17" d="M75,242.84l-1-1Z"/><path class="cls-11" d="M245.05,315.63a1.09,1.09,0,0,1,.95.21Z"/><path class="cls-18" d="M399,118.79c.05-5.9,8.52-12.72,14.93-12l3.25,1.1.83,1,5.88,6c-5.23,5.27-12.08,6.33-18.94,6.78C403,121.77,400.94,119.8,399,118.79Z"/><path class="cls-8" d="M364.23,114.83,370,98.72a49.92,49.92,0,0,0,5.48-.18c2.78-.37,5.52-1,8.28-1.51L389,93.75l-.11,0c2.08.09,4.37-.11,4.14,3.08l0,0-1.41.93L388,99.34l-1.55.41c-6.57,3.51-14.19,5.9-16.26,14.53l5.62,3.17.79,2.52-8.46-1.8Z"/><path class="cls-11" d="M376.64,120c-.27-.84-.53-1.68-.79-2.52q5.32-8.85,10.64-17.7l1.55-.41a32.51,32.51,0,0,0-2.68,5.71c-.3,1.13.51,2.55.82,3.84l-.46.89c-.51.8-1,1.59-1.54,2.38a.55.55,0,0,1-.27.64c-2-1.42-3.6-.86-4.35,1.31a62.77,62.77,0,0,0-1.57,6.6Z"/><path class="cls-26" d="M418,108.84l-.83-1,1.83-1.09,1.07,1.09Z"/><path class="cls-9" d="M391.63,97.74l1.41-.93Z"/><path class="cls-18" d="M244,95.89l-1.93.91L241,95Z"/><path class="cls-2" d="M233,251.94l1,.92,2,1,2,1,8,3.07,3.33.74h-.15c0,.54.05,1.08.07,1.63L246,263.55l-1,.39-3-1.19c0-.49,0-1,0-1.45l2.64.34.3-1-11-3.85.05.06-.9-1.15c-.57-.44-1.15-.87-1.72-1.32l-2.2-1.71c.08-.34.17-.69.25-1Z"/><path class="cls-19" d="M241.22,265.66q-.61,8.54-1.21,17.07l-3.19.8c.41-4.39.84-8.78,1.2-13.18.16-2,.16-4,.23-6Z"/><path class="cls-9" d="M242,261.3l0,1.45-5.61-2.31,1-1.15Z"/><path class="cls-9" d="M236.41,260.44l-1.84-1.07.83-1.05,2,1Z"/><path class="cls-18" d="M383.79,97c-2.76.52-5.5,1.14-8.28,1.51a49.92,49.92,0,0,1-5.48.18c-6.7-1.46-8-4.51-4.56-10.43,4.53-7.69,9.69-9.7,16.51-6.44l2,1.26,5.48,6.78c-.18,1.15-.37,2.3-.56,3.45l-.15.22.16.21.11,0L380.91,96l.07.66Z"/><path class="cls-26" d="M388.86,93.34c.19-1.15.38-2.3.56-3.45L401,87.75l.28.34Z"/><path class="cls-26" d="M411.06,79.94,406.19,85l-.22-.25,5.06-5Z"/><path class="cls-26" d="M406.19,85c-1,.66-2,1.32-3,2l-.19-.23,3-2Z"/><path class="cls-26" d="M403.17,87l-1.93,1.07-.28-.33,2-1Z"/><path class="cls-26" d="M308,266.79l-.09.07.13,0Z"/><path class="cls-9" d="M86.93,253.89l-1.27-.49a2.26,2.26,0,0,1,.27-.36c.39.22.76.46,1.13.7Z"/><path class="cls-8" d="M155.84,323.65l-6-18.1q-.92-2.58-1.84-5.16c.49-1.78,1-3.56,1.46-5.34l2.13.76c.23,2.43.43,4.56.63,6.7q3,10.15,5.95,20.3Z"/><path class="cls-26" d="M249.13,260.36c0-.55,0-1.09-.07-1.63l1.44,1.16Z"/><path class="cls-16" d="M403,86.79l-2,1c-3.85.7-7.69,1.42-11.54,2.13l-5.48-6.78c0-.75.07-1.5.1-2.25h0l5-3,0,0c4-1.31,8-2.91,12.14-3.85,5.5-1.25,8.8.91,9.83,5.79l-5.06,5Z"/><path class="cls-16" d="M418,108.84l2.07-1,4.11-3.85,4.92-2.09c2.74-.65,5.45-1.44,8.21-1.92,5.35-.94,8.56,1.66,8.74,6.88l0-.08-1.05,1,.05,0-1,1.06.05,0-1.05,1,.05,0-2.06,1,.07-.06.06,1.17a4.4,4.4,0,0,1,0,1c-1.91.41-3.85.7-5.71,1.26-3.67,1.11-7.29,2.37-10.93,3.57-.21-1-.41-2-.62-2.92Z"/><path class="cls-9" d="M424.47,117.78c3.64-1.2,7.26-2.46,10.93-3.57,1.86-.56,3.8-.85,5.71-1.26l.18,1.19L439,116.8l0,0c-.69.34-1.38.68-2.06,1l.06,0-3.06,1,.05,0-6,1.93-1.23-.07-.47,0-8,3.11-1.82-.73Z"/><path class="cls-5" d="M439,116.8l2.32-2.66c.28.31.86.74.79.89-.43,1-1,2-1.54,2.91l0-.08Z"/><path class="cls-17" d="M441,110.88l2.06-1Z"/><path class="cls-17" d="M444,108.88l1-1.06.24,1.09Z"/><path class="cls-17" d="M443,109.88l1.05-1Z"/><path class="cls-17" d="M441.13,112l-.06-1.17Z"/><path class="cls-26" d="M442.07,117.78l-1.08,0Z"/><path class="cls-6" d="M439,116.8l1.54,1.06L439,119.75l-4,2-8.14,2c.09-.36.17-.71.26-1.07l.92-.84,6-3.07-.05,0,3.06-1-.06,0c.68-.35,1.37-.69,2.06-1Z"/><path class="cls-11" d="M435,121.77l4-2c.34,1,.68,2,1,2.93l-4.7,1Z"/><path class="cls-8" d="M310.22,304.83c-1.78,1.7-3.29,3.45-1.12,5.89l6.75,20.61a4.36,4.36,0,0,1,0,.62l-2.88-.24-6.51-17.93-1.5-5.24q.79-2.69,1.57-5.36l1.49.35,2,.2Z"/><path class="cls-11" d="M310,303.73l-2-.2Z"/><path class="cls-17" d="M445,107.86l1.05-1Z"/><path class="cls-5" d="M237.41,259.29l-2-1L234,256.76l11,3.85-.3,1L242,261.3Z"/><path class="cls-8" d="M427.1,122.69c-.09.36-.17.71-.26,1.07l0,.28-1.89.74-1.17.61a1.08,1.08,0,0,0-.74.31c-7.21,3.45-14.94,6.33-17.71,16l6.64,1.1,2.68.47.28-.08-.06-.29,1.13,1,2.72-.41,8.4,3.76,4.22-.31.33,0,.33,0,1.22,1.18-7.54,4h-.27l-9.15-2.65c-.32-.51-.64-1-1-1.51l-5-2-2.14-.12-3.65-1.57c-1.63,3.38-3,7.09-7.11,2.66-.35-.38-1.57,0-2.39.07L377,148l-6.84,3.9,4,3.33q2.85,3.36,5.69,6.73l7.14,7.91,2,2.29,1.38,2.8-2.09,2.53-7.22-7.77-1.78-2.3-10.28-10.57-6-1.06c-.27-3.79-.54-7.58-.87-12.23L358,146.76l-4.86,3.91-8.33-8.35L343.6,142h-.19c-.6-.68-1.24-1.32-1.8-2-2.94-3.72-5.85-7.47-8.78-11.2l-5.79-.93,3.09-17.51h6c.56.55,1.62,1.56,1.6,1.57-4.29,4.62,1.36,5.33,3.06,7.72,4.21-4.55,9.53-4.82,15.15-3.87l1.11,4-6,1.33-18.2,2.27,6.11,5.89q2.61,3.27,5.2,6.56l7.61,7.24c2.46,2.06,4.74,1.27,6-2.48,1.74-5.2,3.17-10.5,4.73-15.76l1.55-.59c.2,3.34.39,6.42.58,9.5l1.49,2.77c1.75.27,3.92,0,5.19.94,3,2.22,5.37,1.51,7.81-.65l2.88-2-.05,0,6.05-4-.05,0,5.86-2.86,3.21,2.86-1.18,1.93-16.21,6.63c.19.85.38,1.69.58,2.54H385l6-.07c4.52,4.31,5.57-1.46,8.14-2.8l.94-1q1.05-3.06,2.08-6.12c4.87-9.34,5.13-9.47,10.63-5.3l5.55-2.84,8-3.11C426.58,121.34,426.84,122,427.1,122.69ZM419,148.81l.14-.63c-.44-.06-.88-.13-1.33-.15a5.87,5.87,0,0,0-.1.68Z"/><path class="cls-6" d="M324,85.83l4.06-2h2.24l1.53.17a27.74,27.74,0,0,0-.62,5.68c.12,1.42,1.12,2.76,1.72,4.13l5.75,2.31.06,0,4.7,1.91c-1,4.11-8.22-1.72-7.55,5l-7.72,1c-.36-.69-.71-1.38-1.06-2.08.88-1.37,2.12-2.65,2.54-4.15.32-1.16-.39-2.6-.63-3.92l-1.88-2.91Q325.55,88.37,324,85.83Z"/><path class="cls-14" d="M332.92,93.76c-.6-1.37-1.6-2.71-1.72-4.13a27.74,27.74,0,0,1,.62-5.68c1.06-3.3,2.54-6.54,3.05-9.92.37-2.41,1.17-2.71,3.09-2.22Z"/><path class="cls-6" d="M357,119.72c-.38-1.32-.75-2.64-1.12-4l4.12-.32q1.43,2.16,2.87,4.32l3.19,1-.06-.06c.34,2.93.69,5.87,1,8.8l-2.42,4.15c-.19-3.08-.38-6.16-.58-9.5l-1.55.59-2.5-3.14c-.09-.64-.17-1.28-.31-2.31l-.76,1.49a3.15,3.15,0,0,1-.86-.06Z"/><path class="cls-17" d="M331,36.11l-2,1.69h-1.09c-.12-4.67-2.7-7.38-7-6.61a37.23,37.23,0,0,0-10.88,3.37c-3,1.6-5.36,4.45-8,6.74L298.57,39c6.26-2.91,12.35-6.33,18.83-8.6C324.23,28,329.33,30.59,331,36.11Z"/><path class="cls-11" d="M338,71.81c-1.92-.49-2.72-.19-3.09,2.22-.51,3.38-2,6.62-3.05,9.92l-1.53-.17q1.14-6,2.29-12l-1.65-9.91c0-.38.08-.76.11-1.14A25.4,25.4,0,0,1,333.57,63c1.74,2.07-.9,6.95,4.35,6.81C337.93,70.49,338,71.15,338,71.81Z"/><path class="cls-18" d="M356,100.77l-5.25-4.86c3.21-1.29,10.9,1.16,12.24,3.8a2.57,2.57,0,0,1-.09,2.25,2.33,2.33,0,0,1-2.06.58c-1.68-.46-3.28-1.21-4.92-1.84Z"/><path class="cls-18" d="M355.91,100.7a45.13,45.13,0,0,1,5.1,4.08c1,1.08,1.49,2.68,2.2,4l-1.37.89c-2.37-1.35-4.83-2.58-7.08-4.11-.93-.64-1.42-1.92-2.1-2.91l3.33-1.93Z"/><path class="cls-14" d="M328.16,104l7.72-1,.21,7.4h-6l-.76-.81Z"/><path class="cls-25" d="M362.89,119.75q-1.44-2.16-2.87-4.32l4.21-.6,3.95,3.34L366,120.73l.06.06C366,117.36,364.45,118.56,362.89,119.75Z"/><path class="cls-17" d="M389,77.85l-5,3Z"/><path class="cls-17" d="M384,80.86c0,.75-.07,1.5-.1,2.25l-2-1.26Z"/><path class="cls-16" d="M301.94,41.3c2.64-2.29,5-5.14,8-6.74a37.23,37.23,0,0,1,10.88-3.37c4.33-.77,6.91,1.94,7,6.61L323,42.87v0l-6,3h0l-10,2Z"/><path class="cls-26" d="M307,47.82l10-2-11.46,5Z"/><path class="cls-9" d="M511.62,261.61l1.36.11,5,8.3c-2.64,2.08-5.06,4.55-8,6.15-8.56,4.72-12.07,12.34-13,21.52-.32,3.13-.2,6.3-.28,9.45L485,312.82c-1.79-15-3.91-30.38,9.42-41.66C499.35,267,505.85,264.74,511.62,261.61Z"/><path class="cls-17" d="M485,312.82l11.71-5.68v14.69Z"/><path class="cls-9" d="M353,183.66c-3.09,3.13-6.34,6.13-9.25,9.43-4.07,4.62-4.93,10.29-4.88,16.27a71.51,71.51,0,0,1-.94,8.83c-.93-1.23-2.47-2.36-2.69-3.7-.69-4.19-1.63-8.56-1.12-12.7,1.6-12.78,6.57-23.78,18.67-30.21Z"/><path class="cls-7" d="M352.82,171.58c-12.1,6.43-17.07,17.43-18.67,30.21-.51,4.14.43,8.51,1.12,12.7.22,1.34,1.76,2.47,2.69,3.7l1,6.95-7-5.32-.83-2a16.54,16.54,0,0,0,.7-3.73c-.17-4.61-1.28-9.31-.67-13.78,1.74-12.74,7.13-23.67,18.21-31,2-1.33,4.67-3.27,6.68.37l-1,.65Z"/><path class="cls-11" d="M356.05,169.67c-2-3.64-4.67-1.7-6.68-.37-11.08,7.32-16.47,18.25-18.21,31-.61,4.47.5,9.17.67,13.78a16.54,16.54,0,0,1-.7,3.73c-.76-2.36-1.69-4.67-2.27-7.07-2.08-8.68.9-16.73,3.3-24.85l-.12,0,1.36-2.05,11.93-15.55,12.12-3.69,4.55,1.2-3.06,3.61-.08.34Z"/><path class="cls-7" d="M333,141.87c6.72,5.46,7.7,13,7.38,20.89-.08,2-.41,3.92-.62,5.88a1.41,1.41,0,0,0-.54-.11l-4.39-9.78q-1.57-5.72-3.14-11.4Q332.34,144.61,333,141.87Z"/><path class="cls-14" d="M376.32,169.86l-2.87,3.72c.55,2.83,1.08,5.54,1.61,8.24l-3.05-.31-5.68-5.11q.71-6.09,1.43-12.18Z"/><path class="cls-9" d="M332.16,185.88c-2.4,8.12-5.38,16.17-3.3,24.85.58,2.4,1.51,4.71,2.27,7.07.28.67.56,1.35.83,2l-4.88,2c-.36-5.7-.62-11.42-1.09-17.11A27.4,27.4,0,0,1,329.85,188,11.33,11.33,0,0,1,332.16,185.88Z"/><path class="cls-17" d="M327.08,221.82l4.88-2,7,5.31c-.16,1.41-.32,2.81-.64,5.72Z"/><path class="cls-8" d="M367.76,164.22q-.72,6.09-1.43,12.18l-4.19,3.26,2-8.92,1-3c-.45-1.27-.91-2.53-1.4-3.9l2.81-.42Z"/><path class="cls-2" d="M364.15,170.74l-2,8.92-4.14.2c.29-3.37.57-6.73.86-10.1l.07-.34Z"/><path class="cls-8" d="M358.86,169.76c-.29,3.37-.57,6.73-.86,10.1l-2.92,3.8q0-6.67,0-13.34l1-.65Z"/><path class="cls-22" d="M355.07,170.32q0,6.68,0,13.34H353l-.21-12.08Z"/><path class="cls-9" d="M333.4,183.85,332,185.9Z"/><path class="cls-9" d="M318.13,157.71c-8.31,4.46-15.42,10.14-19.21,19.13.8-11.8,5.15-21.8,14.83-29.07C319.39,149.24,317.65,154,318.13,157.71Z"/><path class="cls-7" d="M313.75,147.77c-9.68,7.27-14,17.27-14.83,29.07q-.57,5.5-1.13,11c-.9-1.63-2.55-3.25-2.59-4.9-.3-12.68,3-24.21,12-33.59,3.47-3.62,7.2-7,10.81-10.44l1.48-.3,1.62.31.94,1-2,3.81Z"/><path class="cls-11" d="M318,138.91c-3.61,3.47-7.34,6.82-10.81,10.44-9,9.38-12.28,20.91-12,33.59,0,1.65,1.69,3.27,2.59,4.9q-.27,2.88-.56,5.78c-5.55-8.11-5-17-2.74-25.82,1.16-4.45,3.34-8.63,5.05-12.93l7.46-10Z"/><path class="cls-17" d="M286.11,199l10.75-5.08,1.62,11.9-1.35,1Z"/><path class="cls-8" d="M325.69,155.47q1.62-5.68,3.26-11.37l.15-4.29,2.26-2.72c.55,1.59,1.09,3.18,1.64,4.78q-.66,2.73-1.31,5.48-1.8,4.26-3.58,8.52Z"/><path class="cls-8" d="M319.84,157.49l.93-13.54,2.57-.45L321,155.94C320.64,156.46,320.24,157,319.84,157.49Z"/><path class="cls-24" d="M252,285.91l3.11-4.12.76,1c-.17.63-.33,1.26-.49,1.88Z"/><path class="cls-14" d="M255.36,284.67c.16-.62.32-1.25.49-1.88.35.41.7.81,1.06,1.21Z"/><path class="cls-25" d="M246.76,287.88c.52.8,1,1.6,1.54,2.4L246.74,294l-3-.11-2.61,4-2-1-1.05-8,1.68-1,2.14.91Z"/><path class="cls-9" d="M243.73,293.88l3,.11,7.41,5.66-.19.22Z"/><path class="cls-9" d="M258.93,301.16l.15,1.81-5.12-3.1.19-.22Z"/><path class="cls-8" d="M258.93,301.16l-4.78-1.51L246.74,294l1.56-3.71,10.85,8.47C259.07,299.55,259,300.35,258.93,301.16Z"/><path class="cls-8" d="M421.92,162.57l-2,1.23-4.07,2.93-.76.25-4.42,2.77L399,176.21c-.33-1.69-.66-3.39-1-5.17l-7.05.71,4.26-12.89,1.65-5c.46-1.3.92-2.61,1.39-3.91l4.18.73c-.21,1-.43,2-.64,3-1.44,4.18-2.93,8.35-4.25,12.57-.22.71.09,2.18.57,2.4a4,4,0,0,0,3,0c2.06-1,4-2.28,5.95-3.44l4.78-.54,2.25-1,.9-.47,15-9.3,2.88.84-.09,1.42a1,1,0,0,0-.7.56Q427,159.65,421.92,162.57Z"/><path class="cls-13" d="M387.88,181.86l.45-4.39,2.1-2.54c4.35-1.43,5.6.9,5.65,4.67-.39,1-.79,2.08-1.18,3.11C392.12,186.11,390,184.24,387.88,181.86Z"/><path class="cls-25" d="M396.08,179.6c-.05-3.77-1.3-6.1-5.65-4.67l-1.38-2.8,1.85-.38L398,171c.34,1.78.67,3.48,1,5.17-.37,1.14-.73,2.28-1.1,3.42Z"/><path class="cls-9" d="M394.9,182.71c.39-1,.79-2.07,1.18-3.11l1.77,0v10.89"/><path class="cls-13" d="M541,200c9.83,5.6,19.69,11.16,29.46,16.87,1.1.64,2.36,2.17,2.38,3.3.18,10.11.1,20.23.1,31.63L541,232.91Z"/><path class="cls-17" d="M552.07,249.25c7.15,4.18,13.43,7.8,19.62,11.56a3.35,3.35,0,0,1,1.2,2.49c.07,13.65.05,27.29.05,42.38-7.23-4.24-13.6-7.94-19.9-11.75a2.86,2.86,0,0,1-.93-2.15C552.05,278,552.07,264.24,552.07,249.25Zm10.52,45.83c.7-.54,1.3-.76,1.35-1.07,1-5.71-.68-11.62,3.34-17.13,3.2-4.39-.94-9.74-.75-14.72,0,0-.58-.07-1.11-.12-.19,2.21-.38,4.4-.57,6.6l-1.64.25-2-10A28.12,28.12,0,0,0,559.77,270c.71,6.76,2.07,13.45,3,20.19A27.56,27.56,0,0,1,562.59,295.08Zm-5.16-1.43c2.08-12.92,1-20.27-1.91-22C556.08,278.14,556.7,285.25,557.43,293.65Z"/><path class="cls-1" d="M548.85,291.2c-9.85-3.52-9.86-3.52-9.84-12.61,0-5.82.08-11.63.16-17.45,0-.26.33-.51.51-.75,8.48,2.46,9.17,3.31,9.17,11.36Z"/><path class="cls-14" d="M567.91,354.93l5.33,4-1,1.41-34.85-20.24.79-1.37,10.9,4.08-.06-.06c.59.75,1.19,1.49,1.78,2.23Z"/><path class="cls-7" d="M545.91,335l-8.78-5.39,1.15-1.84L573.2,347.9l-.62,1.65-3.26-1Z"/><path class="cls-14" d="M549,342.85l-11.33-8.07.65-1.13,5.41,2.32,24.11,14,5.22,3.57-.49,1.14-4.59-1.1-16-9.75-3-1.07Z"/><path class="cls-26" d="M547.73,259.42c-9-2.28-10.73-6.05-8.18-16.48l8.18,5.53Zm-2.68-8.57-1.06-1.1.07.07L542,248.76l.09.05-.95-1.07c-.05.43-.09.86-.13,1.3.4,1.51.8,3,1.21,4.53l2.89-2,1.65-.57-1.77-.25Z"/><path class="cls-27" d="M567.88,350l-24.11-14,2.14-1,23.41,13.57Z"/><path class="cls-27" d="M552,343.86l16,9.75c0,.44-.07.88-.11,1.32L550.76,345Z"/><path class="cls-4" d="M541,200v32.93c-.36-.5-1-1-1-1.51q-.11-15,0-30.09C539.93,200.87,540.61,200.43,541,200Z"/><path class="cls-11" d="M215,151.73l-1.14-.83,0-1.05Z"/><path class="cls-11" d="M213.92,150c-.41-.69-.82-1.38-1.24-2.07C213.1,148.57,213.51,149.26,213.92,150Z"/><path class="cls-9" d="M281,133.89c-2.42,1.68-4.66,3.77-7.3,5-10.74,4.84-13.58,14.23-14.65,24.68a62.39,62.39,0,0,0,.05,7l-11.26,5.3c-1.17-11.17-2.6-22.38,2.25-33.1,3.39-7.48,10.53-10.69,17.11-14.49,2-1.15,3.95-2.35,5.93-3.52L277,125Q279,129.46,281,133.89Z"/><path class="cls-7" d="M284,121.63c4.11,1.24,8.71,1.81,9.89,7.12L289,131l-9.3-7.24Z"/><path class="cls-2" d="M279.74,123.77,289,131c0,.6,0,1.21-.05,1.81l-8,1.07q-2-4.42-4-8.86Z"/><path class="cls-5" d="M278,109.54l1.84,1.08c-.78,3.43-2.63,6.68-6.25,6.21-2.38-.31-6.46-.68-6.55-5l2.24-.07a15.61,15.61,0,0,0,3.07,1.28,20.22,20.22,0,0,0,3.65,0c-.06-1.13-.12-2.25-.19-3.5Z"/><path class="cls-14" d="M300.21,72.37l.84-1.56Z"/><path class="cls-11" d="M327.13,90.89,329,93.8c-4.71,4.49-9.31,9.11-14.24,13.34-.88.76-3.13-.07-4.75-.17C317.26,103.24,324.06,99.05,327.13,90.89Z"/><path class="cls-22" d="M300.43,101.68l-1.13-.5,1.57-.5.23.26Z"/><path class="cls-22" d="M319,54.92l-1.35.47Z"/><path class="cls-26" d="M323,42.87l4.81-5.07h1.09Z"/><path class="cls-26" d="M317,45.86l6-3Z"/><path class="cls-5" d="M513.88,246.74l1.11,4c-6.2,4-8.73,3.34-11.78-2.9l2.64-1.07c.92.91,1.71,2.08,2.81,2.59.44.21,1.56-1,2.37-1.59l2.44-1Z"/><path class="cls-9" d="M513.47,246.77l-2.44,1C511.94,247.68,511.39,244.06,513.47,246.77Z"/><path class="cls-14" d="M305,308.54l1.5,5.24-2.36,4c-1,1.86-2,3.8-3.16,5.57a32.71,32.71,0,0,1-3,3.44C297.48,319.63,299.06,313.24,305,308.54Z"/><path class="cls-14" d="M298,328.81l3.92.94-3.83,1.08Z"/><path class="cls-6" d="M119.21,305.18c.83,2.64,1.58,5.31,2.55,7.89.27.71,1.16,1.26,1.87,1.71,1.1.7,2.29,1.25,3.45,1.86-1.69.09-3.38.21-5.06.26s-3.21,0-4.82,0Z"/><path class="cls-17" d="M247.84,175.8l11.26-5.3v12.78l-1.21.95Z"/><path class="cls-5" d="M155.84,323.65l2.3-.84h8l.05,1.22-1.66.68-1.37.9,1.8.21c3.54.09,4.12,1.69,2.31,4.52l-3.48.45-7.13-6.12c.55,3.72.94,6.38,1.33,9.05l-2.46-.15-1.44-7.76Z"/><path class="cls-8" d="M157.81,301.94l2.36.19,1.41,13.62-1.22.2Z"/><path class="cls-9" d="M163.82,330.79l3.48-.45.66,2.52-1.67,1.67-1.31.32-1.15-.21a1.52,1.52,0,0,0-.14-.89Z"/><path class="cls-4" d="M165,325.82l-1.8-.21,1.37-.9Z"/><path class="cls-5" d="M166.29,334.53l1.67-1.67a1.71,1.71,0,0,1,0,.95l-1.15.74A.75.75,0,0,0,166.29,334.53Z"/><path class="cls-7" d="M163.82,330.79c0,1-.08,2-.13,3a3.06,3.06,0,0,0-.74.09l-4.93-.12c-.39-2.67-.78-5.33-1.33-9.05Z"/><path class="cls-5" d="M163,333.84a3.06,3.06,0,0,1,.74-.09,1.52,1.52,0,0,1,.14.89C163.53,334.38,163.24,334.11,163,333.84Z"/><path class="cls-8" d="M100.6,299q-2.25-1.83-4.52-3.64c-3.65-2.47-7-5.78-12-4.44l.08-.41c.3-1.89-1.17-4.77,2.62-4.73l4.19,2.11,1.82,1.17,1.13.85,3,2,5.16,3,1,.72c.3,1.4.59,2.8.89,4.2l-2.82-.36a.74.74,0,0,0-.5-.15l-.07-.21S100.6,299,100.6,299Z"/><path class="cls-7" d="M103.09,295.64l-1-.72c-.09-.68-.19-1.36-.28-2l.18-2.13q-.57-5.5-1.15-11l4.06-2.22c.25,2.89.34,5.82.8,8.68C106.23,289.81,106.39,293.16,103.09,295.64Z"/><path class="cls-24" d="M98.56,304.17l.33-1.32Z"/><path class="cls-22" d="M100.66,299.33a.74.74,0,0,1,.5.15l-1,1.86Z"/><path class="cls-9" d="M323.05,344,321,342.8c-.07-.35-.13-.69-.2-1l.12-2.91,1.09-1,2.23-1.09a1.15,1.15,0,0,1,.61,0c.06,1,.11,2.1.17,3.16Z"/><path class="cls-5" d="M325,339.89c-.06-1.06-.11-2.11-.17-3.16l1.11-.76C325.62,337.27,325.31,338.58,325,339.89Z"/><path class="cls-9" d="M317.22,323c.54-2.67,1.07-5.34,1.61-8,.22,5.86.29,11.76,4.76,16.42.12.13-.49,1-.76,1.47L318,329.78Z"/><path class="cls-5" d="M318,329.78l4.83,3.05.33,2.88L322,337.83l-1.09,1-5-6.9a4.36,4.36,0,0,0,0-.62Zm.77,3.47-.26-.15,0,.27Z"/><path class="cls-13" d="M322,337.83l1.17-2.12,1.06,1Z"/><path class="cls-22" d="M100.8,279.75q.57,5.49,1.15,11C98.1,287.86,92.33,287,91.34,281a6.07,6.07,0,0,0-1.41-.07l0-.22q-.61-6.57,6-6.87c-.67,1.59-1.33,3.17-2,4.75"/><path class="cls-6" d="M77.59,288c-4.17-2.69-4.69-6.74-1.41-11a7.38,7.38,0,0,0,.78-.19l2-.51,2-1.4,2.07-.24,3,2.11c.11,1.34.21,2.68.31,4H81.06l-4.4-.85Z"/><path class="cls-25" d="M81.06,280.71h5.38c-.1-1.33-.2-2.67-.31-4l3.84,4,0,.22c0,1.72.1,3.43.14,5.15l-3.33-.28c-3.79,0-2.32,2.84-2.62,4.73l-1.1.3L79,289C83.3,287.14,81.11,283.66,81.06,280.71Z"/><path class="cls-19" d="M79,276.23l-2,.51,0-1.94Z"/><path class="cls-5" d="M432.72,156.18l.09-1.42,1.34.05a20.42,20.42,0,0,0,3.69-.35,28.91,28.91,0,0,0,3.84-1.69c-.61,1.33-1.22,2.66-1.82,4C437.37,157.94,434.67,161.6,432.72,156.18Z"/><path class="cls-14" d="M434,125c-7,2.21-10.79,7.72-14,13.78-.4,1.56-.8,3.12-1.21,4.68l-2.73.41-1.12-1,.06.29-.28.07c2.14-4,4.3-7.87,6.37-11.85,1-1.94,1.84-4,2.76-6l1.16-.61,1.9-.74,0-.28,8.14-2,.3,1.9Z"/><path class="cls-5" d="M433.26,148.06,432,146.88l2.17-3.9,0,0,4.78,1.54,3,1.27-.12,3c-2,.2-4.59-2.88-5.93,1.06l-1-.13-.91-.9Z"/><path class="cls-7" d="M436,149.9c1.34-3.94,3.93-.86,5.93-1.06-.07,1.31-.14,2.62-.2,3.93a28.91,28.91,0,0,1-3.84,1.69,20.42,20.42,0,0,1-3.69.35Z"/><path class="cls-14" d="M397,130.81,393.81,128l-2.39-.43-1.82-1.6-6.48-5.22h11.61l2.32-2.08,1.91.17c2,1,4,3,6,2.85,6.86-.45,13.71-1.51,18.94-6.78.21,1,.41,1.94.62,2.92l-8,5.26,1.82.73-5.55,2.84c-5.5-4.17-5.76-4-10.63,5.3l-2.13.83Z"/><path class="cls-9" d="M366,120.73l2.16-2.56,8.46,1.8,1.35.74,1.08.24c0,1.63-.07,3.27-.11,4.91-2.26.41-5.54-1.27-6,2.9l-3.09,1.72-1.8.1-1-1.05C366.71,126.6,366.36,123.66,366,120.73Z"/><path class="cls-13" d="M373,128.76c.44-4.17,3.72-2.49,6-2.9,0,2.18.07,4.37.1,6.56,0,.74.08,1.48.13,2.22s-.05,1.4-.07,2.1c-2.44,2.16-4.79,2.87-7.81.65-1.27-.94-3.44-.67-5.19-.94l2-5.87,1.8-.1q.8,2.43,1.61,4.86l1.48-.49Z"/><path class="cls-14" d="M379.07,121l-1.08-.24a62.77,62.77,0,0,1,1.57-6.6c.75-2.17,2.35-2.73,4.35-1.31-.31,1.38-1,2.79-.87,4.13C383.32,120,381.73,120.93,379.07,121Z"/><path class="cls-20" d="M379.19,134.64c-.05-.74-.09-1.48-.13-2.22l10.54-6.5,1.81,1.6L388,130.81l.05,0-6.05,4,.05,0Z"/><path class="cls-18" d="M397.05,118.62l-2.32,2.08Z"/><path class="cls-14" d="M384.18,112.16c.51-.79,1-1.58,1.54-2.38C385.21,110.58,384.69,111.37,384.18,112.16Z"/><path class="cls-22" d="M386.49,99.75q-5.31,8.85-10.64,17.7l-5.62-3.17C372.3,105.65,379.92,103.26,386.49,99.75Z"/><path class="cls-9" d="M383.79,97,381,96.7l-.07-.66L389,93.75Z"/><path class="cls-6" d="M239.75,287.84l-1.68,1c-5.22-1.5-3.71,2.81-4.46,5.17l-1.77-6.14,1.21-2,1.58-1.81a1.18,1.18,0,0,0,.4-.7l1.79.18,3.19-.8,1,.51,1.09,1.56,0-.07-.06,1.48Z"/><path class="cls-14" d="M233.05,285.86l-1.21,2c.08-.59.17-1.17.25-1.76A1.69,1.69,0,0,0,233.05,285.86Z"/><path class="cls-14" d="M233.61,294c.75-2.36-.76-6.67,4.46-5.17l1.05,8C235.56,299.2,234.67,296.42,233.61,294Z"/><path class="cls-14" d="M81.06,280.71c0,3,2.24,6.43-2.06,8.3-.46-.35-.94-.69-1.41-1-.29-2.53-.58-5.07-.93-8.11Z"/><path class="cls-22" d="M100.6,299s0,.11,0,.1l-.75.13Z"/><path class="cls-9" d="M246.76,287.88l-4.87.87a7.68,7.68,0,0,1,.19-.83l2.64-2.1,2.29-.92C246.93,285.9,246.85,286.89,246.76,287.88Z"/><path class="cls-5" d="M244.72,285.82l-2.64,2.1-.09-1.71.06-1.48Z"/><path class="cls-5" d="M242.08,284.8,241,283.24Z"/><path class="cls-5" d="M320.78,341.76c.07.35.13.69.2,1l-2,1.84-.95.09.06.48c-5.7-1.59-6.73-6.08-6.89-11.1a2,2,0,0,1,.88-.28c.66.74,1.91,1.51,1.89,2.23C313.76,341.05,316.44,342.34,320.78,341.76Z"/><path class="cls-14" d="M318,344.73l.95-.09Z"/><path class="cls-5" d="M434,118.78l-6,3.07h0v-1.14Z"/><path class="cls-5" d="M437,117.78l-3.06,1Z"/><path class="cls-5" d="M427.1,122.69c-.26-.68-.52-1.35-.77-2l.47,0,1.22,1.21h0Z"/><path class="cls-8" d="M428,121.85l-1.22-1.21,1.23.07C428,121.09,428,121.47,428,121.85Z"/><path class="cls-5" d="M439,116.78c-.69.34-1.38.68-2.06,1C437.64,117.46,438.33,117.12,439,116.78Z"/><path class="cls-14" d="M320.78,341.76c-4.34.58-7-.71-6.85-5.7,0-.72-1.23-1.49-1.89-2.23l1-2.12,2.88.24,5,6.9Z"/><path class="cls-7" d="M412,142.75l-6.64-1.1c2.77-9.62,10.5-12.5,17.71-16C418.93,131.08,413,135.33,412,142.75Z"/><path class="cls-18" d="M319.47,138.61c4.41-.46,5.72-3.54,6.34-7.33a19.76,19.76,0,0,1,1.23-3.45l5.79.93-1.47,8.33-2.26,2.72-3.54-1.49L324,142.93a1.15,1.15,0,0,1-.69.57l-2.57.45a1.82,1.82,0,0,1-.76-.23l2-3.81-.94-1Z"/><path class="cls-14" d="M339,129.21c4.66-3.6,11.35-1.25,13.11,4.61l-7.91,2Q341.57,132.49,339,129.21Z"/><path class="cls-5" d="M361,157.77c-4.74,3-8.45,1.39-11.61-2.63l3.49.15,4.34.41c1.16-2,2-3.46,2.77-4.88.12.37.25.74,0,0,.48.63.24.32,0,0l-2-4.06,4.18-3.23c.33,4.65.6,8.44.87,12.23Z"/><path class="cls-14" d="M361,157.77l2.07-2,6,1.06q-1.24,3.31-2.47,6.62l-2.81.42c.49,1.37,1,2.63,1.4,3.9L362,165.81l-4.55-1.2Q359.22,161.19,361,157.77Z"/><path class="cls-9" d="M352.89,155.29l-3.49-.15-6.53-9.21.2-.19,1.77-3.42,8.33,8.35C353.07,152.21,353,153.75,352.89,155.29Z"/><path class="cls-7" d="M416.3,149.38c-.64,3.19-1.29,6.39-1.93,9.58-.11,1.58-.23,3.15-.34,4.73l-2.25,1c.05-4.79-.07-9.58.31-14.34.08-.91,2.11-1.66,3.24-2.49C415.66,148.37,416,148.87,416.3,149.38Z"/><path class="cls-11" d="M415.33,147.87c-1.13.83-3.16,1.58-3.24,2.49-.38,4.76-.26,9.55-.31,14.34l-4.78.54c.68-4.47,1.36-9,2.05-13.44l1.28-5.93Z"/><path class="cls-22" d="M344.16,135.77l7.91-2c3.83,3.2,1,6.17-.3,9.19Z"/><path class="cls-14" d="M352.89,155.29c.09-1.54.18-3.08.28-4.62l4.86-3.91q1,2,2,4.06h0c-.8,1.42-1.61,2.83-2.77,4.88Z"/><path class="cls-4" d="M412,142.75c1-7.42,6.92-11.67,11.07-17a1.08,1.08,0,0,1,.74-.31c-.92,2-1.75,4-2.76,6-2.07,4-4.23,7.9-6.37,11.85Z"/><path class="cls-20" d="M414,163.69c.11-1.58.23-3.15.34-4.73L425.45,152h.28c.38.59.75,1.19,1.13,1.79-2.88,1.76-5.87,3.36-8.59,5.34-1.37,1-2.24,2.7-3.33,4.08Z"/><path class="cls-14" d="M408.19,145.75l-5.81,4.94L398.2,150,395,146.91c.82,0,2-.45,2.39-.07,4.08,4.43,5.48.72,7.11-2.66Z"/><path class="cls-25" d="M426.86,153.81c-.38-.6-.75-1.2-1.13-1.79l7.53-4,.78.81.91.9,1,.13-1.8,4.91-1.34-.05-2.88-.84Z"/><path class="cls-14" d="M368.09,130.58l-2,5.87-1.49-2.77,2.42-4.15Z"/><path class="cls-24" d="M402.15,131.91q-1,3.06-2.08,6.12"/><path class="cls-9" d="M382,134.8l6.05-4Z"/><path class="cls-22" d="M358.07,120.75a10.24,10.24,0,0,1-2.52.67c-1.5,0-3-.24-4.5-.37l6-1.33Z"/><path class="cls-9" d="M388,130.81l3.46-3.29,2.4.43Z"/><path class="cls-9" d="M379.19,134.64l2.81.13-2.88,2C379.14,136,379.17,135.34,379.19,134.64Z"/><path class="cls-4" d="M426.88,124l-1.9.74Z"/><path class="cls-9" d="M343.6,142h0Z"/><path class="cls-4" d="M414.91,142.85l1.12,1Z"/><path class="cls-9" d="M362.89,119.75c1.56-1.19,3.12-2.39,3.19,1Z"/><path class="cls-25" d="M360,121.63l-1.06-.82c.19-.39.39-.77.75-1.49C359.83,120.35,359.91,121,360,121.63Z"/><path class="cls-9" d="M342.87,145.93l-.31-.53.5.34Z"/><path class="cls-7" d="M362,165.81l3.18,1.95-1,3-5.22-1.32Q360.48,167.62,362,165.81Z"/><path class="cls-11" d="M321.09,138.92l.94,1Z"/><path class="cls-7" d="M324,142.93l1.53-4.61,3.54,1.49L329,144.1Z"/><path class="cls-11" d="M242,286.21l.09,1.71a7.68,7.68,0,0,0-.19.83l-2.14-.91Z"/><path class="cls-14" d="M562.59,295.08a27.56,27.56,0,0,0,.21-4.91c-1-6.74-2.32-13.43-3-20.19a28.12,28.12,0,0,1,1.43-11.06l2,10,1.64-.25c.19-2.2.38-4.39.57-6.6.53,0,1.11.1,1.11.12-.19,5,4,10.33.75,14.72-4,5.51-2.37,11.42-3.34,17.13C563.89,294.32,563.29,294.54,562.59,295.08Z"/><path class="cls-18" d="M557.43,293.65c-.73-8.4-1.35-15.51-1.91-22C558.44,273.38,559.51,280.73,557.43,293.65Z"/><path class="cls-23" d="M552,343.86,550.76,345c-.59-.74-1.19-1.48-1.78-2.23Z"/><path class="cls-22" d="M545.08,251.59l-2.89,2c-.41-1.51-.81-3-1.21-4.53l1.08-.23-.09-.05,2.09,1.06-.07-.07,1.06,1.1-.09-.08A2.86,2.86,0,0,1,545.08,251.59Z"/><path class="cls-5" d="M544.06,249.82,542,248.76Z"/><path class="cls-5" d="M542.06,248.81,541,249c0-.44.08-.87.13-1.3Z"/><path class="cls-5" d="M545.08,251.59a2.86,2.86,0,0,0-.12-.82l1.77.25Z"/><path class="cls-5" d="M545.05,250.85l-1.06-1.1Z"/><path class="cls-9" d="M101.77,292.88l.28,2-5.16-3c.12-.12.23-.25.34-.37Z"/><path class="cls-9" d="M86.74,285.8l3.33.28,1,1.63-.15.2Z"/><path class="cls-9" d="M96.89,291.93l-3-2,.25-.29,3.1,1.92C97.12,291.68,97,291.81,96.89,291.93Z"/><path class="cls-9" d="M92.74,289.08l-1.81-1.17.15-.2,2,1Z"/><path class="cls-9" d="M93.88,289.93l-1.13-.85.32-.34,1.06.9Z"/><path class="cls-6" d="M94.13,289.64l-1.06-.9-2-1-1-1.63c0-1.72-.09-3.43-.14-5.15a6.07,6.07,0,0,1,1.41.07c1,6,6.76,6.86,10.61,9.75l-.18,2.13-4.54-1.32Z"/><polygon class="cls-9" points="318.77 333.25 318.5 333.37 318.51 333.1 318.77 333.25"/><path class="cls-7" d="M435,149.77l-.91-.9Z"/><path class="cls-14" d="M373,128.76v6.09l-1.48.49q-.81-2.43-1.61-4.86Z"/><path class="cls-14" d="M360,150.82c.24.31.48.62,0,0,.25.75.12.38,0,0Z"/></g></g></svg>