<svg xmlns="http://www.w3.org/2000/svg" viewBox="0 0 154.27 154.18"><defs><style>.cls-1{fill:#befc75;}.cls-2{fill:#39db1e;}.cls-3{fill:#39635a;}.cls-4{fill:#47805e;}.cls-5{fill:#262a4e;}.cls-6{fill:#3a3e64;}.cls-7{fill:#2b315f;}</style></defs><title>GOok</title><g id="Layer_2" data-name="Layer 2"><g id="Layer_1-2" data-name="Layer 1"><path class="cls-1" d="M1.53,42.71C6.25,38.32,11.07,34,15.66,29.52,24.19,21.12,32.58,12.58,41,4.06a19.86,19.86,0,0,0,2-2.78c20.4.07,40.8.25,61.21.11a11.94,11.94,0,0,1,9.52,4.09c7.48,7.79,15.19,15.34,22.87,22.92a31.49,31.49,0,0,0,3.88,2.85l-.05-.06,9.05,9.06-.05,0,2,2,0,0,1,1,0,0c0,19.69.14,39.39,0,59.08,0,3.63-1.28,7.25-2,10.87l0,0-4,4,0,0c-.35.34-.7.69-1,1l0,0-3,3,0,0-1,1,0,0-3,3,0,0-5,5,0,0-1,1,0,0-2,2,0,0-1,1,0,0-3,3,0,0-1,1,0,0-3,3,0,0-3,3,0,0-1,1h0l-1,1,0,0-4,4,0,0-2,2,.06,0h-69l.06,0-2.05-2,.05,0-1.14-2,.06.07-2-1.15.05.06-1-1,.05,0-3-3,0,0-1.14-2,.07.07-1.07-1.06.07.06-2-1.14.05.05-4.05-4,.05,0-1.14-2,.07.07-1.07-1.06.07.06-2-1.14,0,.05-4-4,.05,0-1.14-2,.06.07c-.35-.35-.7-.71-1.06-1.06l.07.06-2-1.13,0,0-5.13-6,.06.07c-.35-.36-.7-.71-1.06-1.06l.06,0-6-5.13.06.08Q1.52,76.94,1.53,42.71ZM113,144.68l.9-1,2-2,2.12-2,1-1,.93-.92,2-2.1,1-1c.32-.34.63-.69.95-1l1-.91,1-1c1.33-1.35,2.66-2.71,4-4.06l1-1,1-1,3-3,2.07-2,.9-1,1-.94,1-1,1-1,1-1,1-1,3-3.06c.68-.68,1.35-1.36,2-2l1.07-.88a51.83,51.83,0,0,0,.56-5.39q.07-21.16,0-42.34c0-5.13-.31-10.25-.48-15.37l-1.49-1.56L145,41.46l-1-1-.79-.79-2.06-2.06-2.58-2.53L136,32.45l-.82-.81L133,29.44l-.79-.79q-1.61-1.59-3.22-3.17l-.82-.83-1-1-2-2.05-2-2L120,16.46l-.81-.8L117,13.48l-.84-.83c-1.69-1.69-3.37-3.38-5.06-5.06-2.26-1-4.51-2.89-6.79-2.92-18.07-.24-36.16-.15-54.24-.08a28,28,0,0,0-5.19,1l-2,2L41,9.7l-1,.89-1,1-2.13,2.07-.88.87-1,1-3.09,3.12-.9.89c-.67.71-1.35,1.41-2,2.12l-3,3-2.15,2.05-.83.89L20.9,29.64c-1,1-2,2-3,3l-2.08,2-.88.87-2,2.11-3,3-2,2C6.75,45,4.65,47.37,4.61,49.77c-.28,18.16-.25,36.32,0,54.48a11,11,0,0,0,2.82,6.9q17.4,17.92,35.34,35.33a11,11,0,0,0,6.89,2.86c18,.23,36,.14,54,.09a39.14,39.14,0,0,0,5.34-.73l3.06-3Z"/><path class="cls-2" d="M140.44,31.25a31.49,31.49,0,0,1-3.88-2.85c-7.68-7.58-15.39-15.13-22.87-22.92a11.94,11.94,0,0,0-9.52-4.09c-20.41.14-40.81,0-61.21-.11C44.83.85,46.7.07,48.58.06,67.69,0,86.81-.07,105.93.18a12,12,0,0,1,7.41,2.88c8.35,7.85,16.36,16.06,24.42,24.21A24.52,24.52,0,0,1,140.44,31.25Z"/><path class="cls-2" d="M150.38,113.15c.69-3.62,1.94-7.24,2-10.87.18-19.69.06-39.39,0-59.08.62,1.37,1.77,2.74,1.77,4.11.12,19.71.2,39.42-.09,59.13C154,108.69,151.67,110.91,150.38,113.15Z"/><path class="cls-2" d="M42.47,152.11h69c-1.71.69-3.4,2-5.11,2q-29.38.21-58.75,0C45.86,154.07,44.17,152.8,42.47,152.11Z"/><path class="cls-2" d="M1.53,42.71q0,34.25,0,68.48C1,109.36.08,107.53.07,105.7q-.15-29,0-57.95C.09,46.06,1,44.39,1.53,42.71Z"/><path class="cls-2" d="M149.44,40.25l-9.05-9.06Z"/><path class="cls-2" d="M133.38,130.14l5-5Z"/><path class="cls-2" d="M1.46,111.11l6,5.13Z"/><path class="cls-2" d="M8.39,117.18l5.13,6Z"/><path class="cls-2" d="M146.38,117.16l4-4Z"/><path class="cls-2" d="M113.38,150.16l4-4Z"/><path class="cls-2" d="M25.48,135.11l4.05,4Z"/><path class="cls-2" d="M17.48,127.11l4,4Z"/><path class="cls-2" d="M126.38,137.14l3-3Z"/><path class="cls-2" d="M138.37,125.15l3-3Z"/><path class="cls-2" d="M119.38,144.15l3-3Z"/><path class="cls-2" d="M122.37,141.15l3-3Z"/><path class="cls-2" d="M142.38,121.15l3-3Z"/><path class="cls-2" d="M33.49,143.11l3,3Z"/><path class="cls-2" d="M151.42,42.24l-2-2Z"/><path class="cls-2" d="M111.37,152.15l2-2Z"/><path class="cls-2" d="M130.37,133.15l2-2Z"/><path class="cls-2" d="M40.48,150.11l2.05,2Z"/><path class="cls-2" d="M24.39,133.17l1.14,2Z"/><path class="cls-2" d="M21.48,131.1l2,1.14Z"/><path class="cls-2" d="M39.39,148.18l1.14,2Z"/><path class="cls-2" d="M16.39,125.17l1.14,2Z"/><path class="cls-2" d="M13.48,123.11l2,1.13Z"/><path class="cls-2" d="M37.47,147.1l2,1.15Z"/><path class="cls-2" d="M32.39,141.17l1.14,2Z"/><path class="cls-2" d="M29.48,139.1l2,1.14Z"/><path class="cls-2" d="M7.39,116.19c.36.35.71.7,1.06,1.06C8.1,116.89,7.75,116.54,7.39,116.19Z"/><path class="cls-2" d="M145.38,118.16c.34-.35.69-.7,1-1C146.07,117.46,145.72,117.81,145.38,118.16Z"/><path class="cls-2" d="M141.38,122.14l1-1Z"/><path class="cls-2" d="M15.39,124.18c.36.35.71.71,1.06,1.06C16.1,124.89,15.75,124.53,15.39,124.18Z"/><path class="cls-2" d="M132.38,131.15l1-1Z"/><path class="cls-2" d="M23.39,132.18l1.07,1.06Z"/><path class="cls-2" d="M129.38,134.15l1-1Z"/><path class="cls-2" d="M152.43,43.24l-1-1Z"/><path class="cls-2" d="M36.48,146.11l1,1Z"/><path class="cls-2" d="M117.38,146.15l1-1Z"/><path class="cls-2" d="M118.39,145.14l1-1Z"/><path class="cls-2" d="M31.39,140.18l1.07,1.06Z"/><path class="cls-2" d="M125.38,138.14l1-1Z"/><path class="cls-2" d="M109,148.7a39.14,39.14,0,0,1-5.34.73c-18,0-36,.14-54-.09a11,11,0,0,1-6.89-2.86Q24.82,129.08,7.4,111.15a11,11,0,0,1-2.82-6.9c-.22-18.16-.25-36.32,0-54.48,0-2.4,2.14-4.77,3.28-7.16l.72.72c-.8,2.28-2.25,4.57-2.28,6.86-.17,18.07-.12,36.15,0,54.23a8.46,8.46,0,0,0,1.87,5.37c7.15,7.37,14.56,14.49,21.88,21.7L46,147.29l26.33.69,2.25,0,33.59,0Z"/><path class="cls-2" d="M44.88,5.61a28,28,0,0,1,5.19-1c18.08-.07,36.17-.16,54.24.08,2.28,0,4.53,1.9,6.79,2.92l-.71.65c-2-.7-3.88-1.89-5.87-2-4.62-.26-9.26,0-13.89.06l-45,.1Z"/><path class="cls-2" d="M149.06,45.64c.17,5.12.46,10.24.48,15.37q.09,21.17,0,42.34a51.83,51.83,0,0,1-.56,5.39l-.87-.83q0-30.73,0-61.48Z"/><path class="cls-2" d="M111.1,7.59c1.69,1.68,3.37,3.37,5.06,5.06l-.81.62-5-5Z"/><path class="cls-2" d="M25.94,24.64l3-3,.76.7-3,3.05Z"/><path class="cls-2" d="M129.92,127.67c-1.34,1.35-2.67,2.71-4,4.06l-.68-.76,3-3.8a7.56,7.56,0,0,1,1-.27Z"/><path class="cls-2" d="M112,145.68l-3.06,3-.76-.77a7.5,7.5,0,0,0,.11-.81l2.88-2.2Z"/><path class="cls-2" d="M129,25.48q1.62,1.57,3.22,3.17l-.9.67-3-3Z"/><path class="cls-2" d="M134.94,122.69l-3,3-.73-.68c.06-.32.14-.64.23-1l2.81-2Z"/><path class="cls-2" d="M17.91,32.63c1-1,2-2,3-3l.72.73-3,3Z"/><path class="cls-2" d="M145.88,111.67l-3,3.06-.69-.77L145.3,111Z"/><path class="cls-2" d="M9.91,40.63l3-3,.72.71-3,3Z"/><path class="cls-2" d="M31.84,18.67l3.09-3.12.72.85-3,2.94Z"/><path class="cls-2" d="M120,16.46l3.13,3.15-.79.68-3-3Z"/><path class="cls-2" d="M145,41.46l2.56,2.62-.76.75-2.5-2.5Z"/><path class="cls-2" d="M136,32.45l2.57,2.62-.77.77-2.46-2.55Z"/><path class="cls-2" d="M138.57,35.07l2.58,2.53-.83.71-2.52-2.47Z"/><path class="cls-2" d="M7.89,42.61l2-2,.72.75-2,1.95Z"/><path class="cls-2" d="M137,120.67l-2.07,2-.7-.72,2-2Z"/><path class="cls-2" d="M28.91,21.68l2-2.12.65.78-1.92,2Z"/><path class="cls-2" d="M123.13,19.61l2,2-.83.7-2-2Z"/><path class="cls-2" d="M125.16,21.59l2,2.05-.86.67-2-2Z"/><path class="cls-2" d="M117,13.48l2.19,2.18-.85.63-2-2Z"/><path class="cls-2" d="M41,9.7l1.94-2.12.75.8-2,2Z"/><path class="cls-2" d="M23.79,26.69l2.15-2.05.71.79-2,1.94Z"/><path class="cls-2" d="M42.89,7.58l2-2c.24.26.49.52.73.79l-2,2Z"/><path class="cls-2" d="M20.9,29.64,23,27.58c.2.27.41.53.62.79l-2,2Z"/><path class="cls-2" d="M15.82,34.68l2.09-2c.24.24.47.49.71.74l-2,2Z"/><path class="cls-2" d="M141.15,37.6l2.06,2.06-.9.66-2-2Z"/><path class="cls-2" d="M36.8,13.66l2.14-2.07.65.75-2,2Z"/><path class="cls-2" d="M147.89,109.62l-2,2q-.3-.32-.57-.63l1.92-2.07Z"/><path class="cls-2" d="M115.88,141.67l-2,2-.72-.76,2-2Z"/><path class="cls-2" d="M118,139.68l-2.13,2-.69-.75,2-2Z"/><path class="cls-2" d="M12.91,37.66l2-2.11.63.78-1.95,2Z"/><path class="cls-2" d="M121.92,135.65l-2,2.1-.75-.83,2-2Z"/><path class="cls-2" d="M133,29.44l2.18,2.2-.84.65-2-2Z"/><path class="cls-2" d="M147.57,44.08l1.49,1.56-1,.79c-.42-.53-.84-1.07-1.27-1.6Z"/><path class="cls-2" d="M127.17,23.64l1,1-.84.65-1-1Z"/><path class="cls-2" d="M30.94,19.56l.9-.89.76.67-1,1Z"/><path class="cls-2" d="M149,108.74l-1.07.88-.66-.65.86-1.06Z"/><path class="cls-2" d="M119.19,15.66l.81.8-.64.81-1-1Z"/><path class="cls-2" d="M34.93,15.55l1-1,.72.86-1,1Z"/><path class="cls-2" d="M35.93,14.53l.87-.87.84.72-1,1Z"/><path class="cls-2" d="M116.16,12.65l.84.83-.66.81-1-1Z"/><path class="cls-2" d="M38.94,11.59l1-1,.65.76-1,1Z"/><path class="cls-2" d="M40,10.59l1-.89.68.67-1,1Z"/><path class="cls-2" d="M142.92,114.73l-1,1-.7-.78,1-1Z"/><path class="cls-2" d="M141.93,115.74l-1,1-.71-.8,1-1Z"/><path class="cls-2" d="M140.93,116.75l-1,1-.7-.74,1-1Z"/><path class="cls-2" d="M139.93,117.7l-1,1-.72-.8,1-1Z"/><path class="cls-2" d="M138.93,118.74l-1,.94c-.22-.24-.45-.48-.68-.71l1-1Z"/><path class="cls-2" d="M137.91,119.68l-.9,1-.79-.71,1-1C137.46,119.2,137.69,119.44,137.91,119.68Z"/><path class="cls-2" d="M131.93,125.66l-1,1-.73-.79,1-.93Z"/><path class="cls-2" d="M130.91,126.7l-1,1-.71-.77,1-1Z"/><path class="cls-2" d="M125.92,131.73l-1,1-.67-.75,1-1Z"/><path class="cls-2" d="M124.92,132.74l-1,.91-.61-.69,1-1Z"/><path class="cls-2" d="M123.88,133.65l-.95,1-.78-.75a6,6,0,0,1,.26-.85l.86-.13Z"/><path class="cls-2" d="M122.93,134.69l-1,1-.71-.71c.31-.33.62-.67.94-1Z"/><path class="cls-2" d="M119,138.67l-1,1-.82-.76,1-1Z"/><path class="cls-2" d="M144,40.45l1,1-.7.87-1-1Z"/><path class="cls-2" d="M143.21,39.66l.79.79-.69.87-1-1Z"/><path class="cls-2" d="M15,35.55l.88-.87.76.65-1,1Z"/><path class="cls-2" d="M135.18,31.64l.82.81-.66.84c-.33-.33-.67-.66-1-1Z"/><path class="cls-2" d="M113,144.68l-1,1-.83-.76c.34-.33.67-.67,1-1Z"/><path class="cls-2" d="M113.92,143.68l-.9,1-.84-.76,1-1Z"/><path class="cls-2" d="M132.21,28.65l.79.79c-.23.28-.45.57-.67.86l-1-1Z"/><path class="cls-2" d="M23,27.58c.28-.29.56-.59.83-.89l.88.68c-.06.32-.13.63-.21.95a6.4,6.4,0,0,0-.88.05C23.37,28.11,23.16,27.85,23,27.58Z"/><path class="cls-2" d="M119.93,137.75l-.92.92-.8-.73,1-1Z"/><path class="cls-2" d="M128.17,24.65l.82.83-.68.84-1-1Z"/><path class="cls-3" d="M119.18,136.92l-1,1-1,1-2,2-2,2-1,1c-.33.33-.66.67-1,1l-2.88,2.2c-3.81,0-7.62-.06-11.43,0-7.43.22-14.85.53-22.27.8l-2.25,0L46,147.29l-15.91-15.8,7.77-2.38c-.59-.82-.78-1.31-1-1.31-5.59,0-8-1.49-7.8-8.38.21-7.58-.48-8.8,7.29-9.08,9.78-.34,19.57-.14,29.36-.21,1.69,0,3.39-.18,5.08-.28l0-1.82H44.88l6.75-2.63,3.1-1.87,2.18-1.89a7.64,7.64,0,0,1,2.5.89,51.61,51.61,0,0,1,3.65,3.74c1-1.69,1.9-3.39,2.86-5.08l14.36-1.06,2,1.21,1.48,1.37,2.45,1.72c9.49,5.88,19.47,4.37,29.15-4.4l13.82,2.11c.76,2,1.53,3.94,2.29,5.92q0,8-.07,16c-.09.32-.17.64-.23,1l-1,.93-1,1a7.56,7.56,0,0,0-1,.27l-7.41.49c.68,2.36,1.13,3.89,1.57,5.43a6,6,0,0,0-.26.85c-.32.33-.63.67-.94,1ZM50.72,121.2c-1,1.89-2.06,3.79-3.33,6.1h8.22c1,1.39,1.65,3.13,2.92,4.09,9.88,7.39,20.66,4.81,31.31,2.4,3.64-.82,3-3.27,1.47-5.69,9.93-2.45,10.49-2,11.62,9.64,1.14-10,1.14-10,14.12-11.17l-8-.44-4.6-2.68-2.25-.28c.45-4.19-1.34-6.83-5.57-7.36-7.07-.88-14.16-1.57-21.24-2.34-.24-.87-.47-1.75-1.09-4-.5,2.28-.7,3.17-.89,4-3.63.28-7.38.07-10.85.94C58.11,115.54,53,116,50.72,121.2Z"/><path class="cls-4" d="M44.88,108H70.81l0,1.82c-1.69.1-3.39.27-5.08.28-9.79.07-19.58-.13-29.36.21-7.77.28-7.08,1.5-7.29,9.08-.2,6.89,2.21,8.34,7.8,8.38.19,0,.38.49,1,1.31l-7.77,2.38c-7.32-7.21-14.73-14.33-21.88-21.7a8.46,8.46,0,0,1-1.87-5.37c-.15-18.08-.2-36.16,0-54.23,0-2.29,1.48-4.58,2.28-6.86l2-1.95,3-3,1.95-2,1-1,2-2,3-3,2-2a6.4,6.4,0,0,1,.88-.05l7,2.14c-4.73,2.12-5.16,5.69-4.89,9.47.3,4.13,3.93,3.65,6.59,4.59A22.66,22.66,0,0,1,37.24,47l-5,2L31,49.7,25.25,54c-1.09,1.59-2.19,3.17-3.29,4.76-7,11.5-6,30.49,2,39.92l1.28,1.72,2.06,2,1.7,1.26C33.5,107.92,39.27,107.68,44.88,108Z"/><path class="cls-4" d="M74.6,148c7.42-.27,14.84-.58,22.27-.8,3.81-.1,7.62,0,11.43,0a7.5,7.5,0,0,1-.11.81Z"/><path class="cls-4" d="M46,147.29l26.33.69Z"/><path class="cls-3" d="M37.24,47a22.66,22.66,0,0,0-4.06-2.44c-2.66-.94-6.29-.46-6.59-4.59-.27-3.78.16-7.35,4.89-9.47l-7-2.14c.08-.32.15-.63.21-.95l2-1.94,3-3.05,1.92-2,1-1,3-2.94,1-1,1-1,2-2,1-1,1-1,2-2,2-2,45-.1,12.16,3.14c-.42.54-1.14,1.45-1.12,1.47,7.2,6.06,14.45,12.06,21.67,18l-6.88,1.92c6.43,3.09,5.54,8.4,5.47,13.35-.05,3.1-1.31,5-4.79,5-2.65,0-5.3.24-8,.37-5.46-2.61-11.1-3.57-17-1.82l-5,2L79.25,57l-1.19,1.86-1.39,1.53-13.32.89L57.59,53l-1.06-.93-1.12-.88-1.85-1.17-8.81-3.27-3.54-.14Zm36.14-2.72.06-.1,1.14-1c7.52-1.46,15.06-2.88,20.26-9.92-3.22-1-6.26-.78-9.23-1.12-2.12-.24-4.15-1.27-6.22-1.94l20.49-.84c-3.41-7.65-48.87-8-52.19-.67l8.86.68C56.17,30,56,31,55.38,31.44c-4.79,3.85-4.6,4.62-.12,8.68,5,4.55,10.92,5.11,17.17,4.91Z"/><path class="cls-4" d="M109.18,49.58c2.66-.13,5.31-.39,8-.37,3.48,0,4.74-1.9,4.79-5,.07-5,1-10.26-5.47-13.35l6.88-1.92c-7.22-6-14.47-12-21.67-18,0,0,.7-.93,1.12-1.47L90.63,6.3c4.63,0,9.27-.32,13.89-.06,2,.11,3.91,1.3,5.87,2l5,5,1,1,2,2,1,1,3,3,2,2,2,2,1,1,1,1,3,3,1,1,2,2c.33.34.67.67,1,1l2.46,2.55,2.52,2.47,2,2,1,1,1,1,2.5,2.5,1.26,1.6q0,30.75,0,61.48l-.86,1.06L145.31,111,142.23,114l-1,1-1,1-1,1-1,1-1,1-1,1-2,2-2.81,2q0-8,.07-16c1.28-1.39,2.85-2.62,3.69-4.24.34-.66-.93-3.09-1.42-3.07-1.53,0-3,.86-4.56,1.39L115.39,100l.42-1.53c7.51-9.66,8.4-28.74,1.85-39.51-.24-.39-.47-.78-.7-1.17Zm26.27,20.63h-.07c0-6.14.19-12.29-.14-18.41-.08-1.5-1.89-2.9-2.9-4.34-1,1.45-2.86,2.88-2.89,4.35q-.37,18.16,0,36.34c0,1.62,1.93,3.2,3,4.8,1-1.6,2.84-3.16,2.95-4.82C135.67,82.18,135.45,76.19,135.45,70.21Z"/><path class="cls-4" d="M122.41,133.09c-.44-1.54-.89-3.07-1.57-5.43l7.41-.49-3,3.8-1,1-1,1Z"/><path class="cls-4" d="M63.35,61.3l13.32-.89c-.45,1.41-1,2.8-1.33,4.24C73,74.43,72.2,84.13,77,93.5l3.3,5.76-.06.87-14.36,1.06c-.08-6.27-.15-12.54-.25-18.8,0-3.47-1.39-6.76-5-7-6.18-.37-12.41.24-18.62.44-2.51,3.9-.15,5.07,3.17,5.22,4.51.2,9,.05,14.21.05-1,4.43-1.66,7.62-2.35,10.8L56,93.81,55.19,95,53,97.57l-4.77,3.3c-6.17,1-12.2,1.2-17.52-2.9l-1-1-1-1C22,84,22.13,71.86,27.9,59.62c.61-.72,1.22-1.45,1.84-2.17l2.06-1.92,16.42-2.06,5.92,4,2.18,2.84c1,2.56.44,6.57,4.55,6.37C61.78,66.62,62.52,63.18,63.35,61.3Z"/><path class="cls-5" d="M102.22,123.16l2.25.27,4.6,2.69,8,.44c-13,1.15-13,1.15-14.12,11.17-1.13-11.62-1.69-12.09-11.62-9.64l-2.73,0-6.09-.76-26.88-.08H47.39c1.27-2.31,2.3-4.21,3.33-6.1,4.59.32,9.18.66,13.78,1,9,.56,9,.55,8.93-8.67.19-.88.39-1.77.89-4,.62,2.28.85,3.16,1.09,4,.53,3.17-1.66,7.53,3,9,3,1,6.43,1,9.67,1C92.77,123.55,97.5,123.28,102.22,123.16Z"/><path class="cls-6" d="M88.58,128.14l2.73,0c1.5,2.42,2.17,4.87-1.47,5.69-10.65,2.41-21.43,5-31.31-2.4-1.27-1-2-2.7-2.92-4.08l26.88.08Z"/><path class="cls-6" d="M102.22,123.16c-4.72.12-9.45.39-14.17.32-3.24-.06-6.63-.09-9.67-1-4.63-1.45-2.44-5.81-3-9,7.08.77,14.17,1.46,21.24,2.34C100.88,116.33,102.67,119,102.22,123.16Z"/><path class="cls-6" d="M73.43,113.48c0,9.22,0,9.23-8.93,8.67-4.6-.29-9.19-.63-13.78-1,2.27-5.16,7.39-5.66,11.86-6.78C66.05,113.55,69.8,113.76,73.43,113.48Z"/><path class="cls-2" d="M42.09,75.85c6.21-.2,12.44-.81,18.62-.44,3.57.22,4.91,3.51,5,7,.1,6.26.17,12.53.25,18.8-1,1.69-1.91,3.39-2.86,5.08a51.61,51.61,0,0,0-3.65-3.74,7.64,7.64,0,0,0-2.5-.89l-.75-.75,4.44-5.73c.56,4,.95,6.74,1.47,10.47,1.22-1.4,1.95-1.85,1.95-2.3.09-7.3.34-14.6,0-21.88-.16-3.39-2.78-5.08-6.29-5-5,.07-10,.09-14.92.14Z"/><path class="cls-2" d="M115.81,98.5l-.42,1.53c-9.68,8.77-19.66,10.28-29.15,4.4l.68-.84c10.77,4.93,20.19,3.14,28.19-5.69Z"/><path class="cls-2" d="M44.88,108c-5.61-.35-11.38-.11-15.92-4.37a7.6,7.6,0,0,0,.68-.71,24.54,24.54,0,0,0,21.26,1.58l.73.87Z"/><path class="cls-2" d="M129.21,102.14c1.52-.53,3-1.35,4.56-1.39.49,0,1.76,2.41,1.42,3.07-.84,1.62-2.41,2.85-3.69,4.24C130.74,106.08,130,104.11,129.21,102.14Zm2.22,3.88,1.8-.24c-.15-1.28-.31-2.56-.46-3.84l-1.93.25C131,103.47,131.23,104.75,131.43,106Z"/><path class="cls-6" d="M109.07,126.12l-4.6-2.69Q106.77,124.78,109.07,126.12Z"/><path class="cls-2" d="M54.73,103.53l-3.1,1.87-.73-.87L54,102.68Z"/><path class="cls-2" d="M56.91,101.64l-2.18,1.89-.71-.85,2.14-1.79Z"/><path class="cls-2" d="M80.28,100.13l.06-.87.85-.79,1.9,2-.78.84Z"/><path class="cls-2" d="M86.24,104.43l-2.45-1.72.84-.71,2.29,1.59Z"/><path class="cls-2" d="M83.79,102.71l-1.48-1.37.78-.84,1.54,1.5Z"/><path class="cls-2" d="M23.92,98.71c-8-9.44-8.91-28.43-2-39.93l.83.68c-5.22,13.14-5.38,26,1.82,38.6A8.43,8.43,0,0,0,23.92,98.71Z"/><path class="cls-2" d="M44.75,46.79l8.81,3.27-.65.83c-6.49-3.14-13.15-3.24-19.92-1L32.24,49l5-2,4-.31Z"/><path class="cls-2" d="M25.25,54,31,49.7c.21.26.43.51.65.76l-5.55,4.38Z"/><path class="cls-2" d="M22,58.78c1.1-1.59,2.2-3.17,3.29-4.76l.89.82-3.35,4.62Z"/><path class="cls-2" d="M27.26,102.4l-2.06-2,.79-.78,2,1.92Z"/><path class="cls-2" d="M29,103.66l-1.7-1.26.77-.84L29.64,103A7.6,7.6,0,0,1,29,103.66Z"/><path class="cls-2" d="M25.2,100.42,23.92,98.7c.22-.22.45-.44.69-.64L26,99.64Z"/><path class="cls-2" d="M31,49.7l1.2-.74.75.88-1.3.62C31.47,50.21,31.25,50,31,49.7Z"/><path class="cls-5" d="M74.58,43.11l-1.14,1c0-3.44-.06-6.89-.06-10.33q0-4.55-4.54-4.53l-12.29,0-8.86-.68c3.32-7.37,48.78-7,52.19.67l-20.49.84c-1.31,1-3.44,1.84-3.75,3.1C74.84,36.42,74.87,39.8,74.58,43.11Z"/><path class="cls-7" d="M56.55,29.3l12.29,0q4.53,0,4.54,4.53c0,3.44,0,6.89.06,10.33l-.06.1c-.32.26-.64.52-.95.79-6.25.2-12.13-.36-17.17-4.91-4.48-4.06-4.67-4.83.12-8.68C56,31,56.17,30,56.55,29.3Z"/><path class="cls-7" d="M74.58,43.11c.29-3.31.26-6.69,1.06-9.88.31-1.26,2.44-2.08,3.75-3.1,2.07.67,4.1,1.7,6.22,1.94,3,.34,6,.09,9.23,1.12C89.64,40.23,82.1,41.65,74.58,43.11Z"/><path class="cls-2" d="M77,93.5C72.2,84.13,73,74.43,75.34,64.65c.35-1.44.88-2.83,1.33-4.24l1.39-1.53.9.7c-4.73,11-4.57,22.07-1.11,33.3Z"/><path class="cls-2" d="M109.18,49.58,117,57.82l-.85.67c-5.76-8.05-13.51-11.4-23.33-9.85l-.64-.88C98.08,46,103.72,47,109.18,49.58Z"/><path class="cls-2" d="M63.35,61.3c-.83,1.88-1.57,5.32-2.48,5.36-4.11.2-3.53-3.81-4.55-6.37l.74-.62c1.07,1.86,2.13,3.73,3.19,5.59l1.4-.66c.52-4.39-2.66-7.45-4.79-10.88l.73-.68Z"/><path class="cls-2" d="M79.24,57l7.86-7.23.64.76-7.62,7.17Z"/><path class="cls-2" d="M87.1,49.79l5-2c.22.29.43.59.64.88l-5,1.91Z"/><path class="cls-4" d="M44.75,46.79l-3.55-.14Z"/><path class="cls-2" d="M78.06,58.88,79.25,57l.87.7L79,59.58Z"/><path class="cls-2" d="M53.56,50.06l1.85,1.17-.64.8-1.86-1.14Z"/><path class="cls-5" d="M72.43,45c.31-.27.63-.53.95-.79C73.06,44.5,72.74,44.76,72.43,45Z"/><path class="cls-2" d="M55.41,51.23l1.12.88-.7.72L54.77,52Z"/><path class="cls-2" d="M56.53,52.11l1.06.93-.73.68-1-.89Z"/><path class="cls-2" d="M135.45,70.21c0,6,.22,12-.14,17.92-.11,1.66-1.92,3.22-2.95,4.82-1-1.6-2.93-3.18-3-4.8q-.35-18.16,0-36.34c0-1.47,1.88-2.9,2.89-4.35,1,1.44,2.82,2.84,2.9,4.34.33,6.12.14,12.27.14,18.41Zm-4-20.76a395.62,395.62,0,0,0,0,41.47C134.45,87.43,134.42,53,131.41,49.45Z"/><path class="cls-2" d="M117.66,59c6.55,10.77,5.66,29.85-1.85,39.51l-.7-.6c6.79-12.45,6.89-25.21,1.74-38.2Z"/><path class="cls-2" d="M117,57.82c.23.39.46.78.7,1.17l-.81.71c-.24-.41-.49-.81-.74-1.21Z"/><path class="cls-2" d="M27.9,59.62C22.13,71.86,22,84,28.7,95.93l-.71.78c-7.73-9.53-8.11-27.58-.78-37.73C27.43,59.2,27.67,59.41,27.9,59.62Z"/><path class="cls-2" d="M57.12,91.92c.69-3.18,1.38-6.37,2.35-10.8-5.18,0-9.7.15-14.21-.05-3.32-.15-5.68-1.32-3.17-5.22l.73.71c.79.93,1.44,2.45,2.4,2.67a27.47,27.47,0,0,0,6,.19c10.7,0,11.55,1.28,7.68,11.39a11.19,11.19,0,0,1-1,1.69Z"/><path class="cls-2" d="M30.66,98c5.32,4.1,11.35,4,17.52,2.9.21.26.41.52.62.77q-10.39,4.6-18.95-2.89Z"/><path class="cls-2" d="M48.22,53.47,31.8,55.53l-.58-.62c5.43-4.14,11.29-4.68,17.52-2.11Z"/><path class="cls-2" d="M54.14,57.45l-5.92-4,.52-.67,6.1,4Z"/><path class="cls-2" d="M80.34,99.26,77,93.5l.81-.62c1.11,1.86,2.23,3.72,3.34,5.59Z"/><path class="cls-2" d="M48.18,100.87,53,97.57l.74.88-4.89,3.19C48.59,101.39,48.39,101.13,48.18,100.87Z"/><path class="cls-2" d="M31.8,55.53l-2.06,1.92L29,56.77l2.21-1.86Z"/><path class="cls-2" d="M56.32,60.29l-2.18-2.84.7-.61,2.22,2.83Z"/><path class="cls-2" d="M53,97.57,55.19,95l.89.76-2.39,2.74Z"/><path class="cls-2" d="M29.74,57.45c-.62.72-1.23,1.45-1.84,2.17-.23-.21-.47-.42-.69-.64L29,56.77Z"/><path class="cls-2" d="M56,93.81l1.1-1.89.74.58-1,2Z"/><path class="cls-2" d="M55.19,95,56,93.81l.79.71-.73,1.19Z"/><path class="cls-2" d="M28.7,95.93l1,1-.85.84L28,96.71Z"/><path class="cls-2" d="M29.69,97l1,1-.81.78-1-1Z"/><path class="cls-3" d="M88.58,128.14l-6.09-.76Z"/><path class="cls-1" d="M28.84,97.79l1,1q8.55,7.52,18.95,2.89l4.89-3.19,2.39-2.74.73-1.19,1-2a11.19,11.19,0,0,0,1-1.69c3.87-10.11,3-11.37-7.68-11.39a27.47,27.47,0,0,1-6-.19c-1-.22-1.61-1.74-2.4-2.67,5,0,10-.07,14.92-.14,3.51,0,6.13,1.64,6.29,5,.33,7.28.08,14.58,0,21.88,0,.45-.73.9-1.95,2.3-.52-3.73-.91-6.48-1.47-10.47l-4.44,5.73L54,102.68l-3.12,1.85A24.54,24.54,0,0,1,29.64,103L28,101.56l-2-1.92-1.38-1.58c-7.2-12.56-7-25.46-1.82-38.6l3.35-4.62,5.55-4.38,1.3-.62c6.77-2.19,13.43-2.09,19.92,1L54.77,52l1.06.8,1,.89c2.13,3.43,5.31,6.49,4.79,10.88l-1.4.66c-1.06-1.86-2.12-3.73-3.19-5.59l-2.22-2.83-6.1-4c-6.23-2.57-12.09-2-17.52,2.11L29,56.77,27.21,59c-7.33,10.15-6.95,28.2.78,37.73Z"/><path class="cls-1" d="M81.19,98.47c-1.11-1.87-2.23-3.73-3.34-5.59C74.39,81.65,74.23,70.54,79,59.58l1.16-1.86,7.62-7.17,5-1.91c9.82-1.55,17.57,1.8,23.33,9.85l.74,1.21c5.15,13,5.05,25.75-1.74,38.2-8,8.83-17.42,10.62-28.19,5.69L84.63,102l-1.54-1.5ZM105.93,53.4l-1.23-.51c-9.62-3.71-18.06-.51-22.89,8.68-5.14,11.25-5,22.35,1,33.28,6.28,9.36,17,11.27,25.9,4.61l1.07-1C119.22,89.66,120.17,69,111.63,58l-1-1-2.72-2.4Z"/><path class="cls-1" d="M131.43,106c-.2-1.27-.4-2.55-.59-3.83l1.93-.25c.15,1.28.31,2.56.46,3.84Z"/><path class="cls-1" d="M131.41,49.45c3,3.52,3,38,0,41.47A395.62,395.62,0,0,1,131.41,49.45Z"/><path class="cls-2" d="M111.63,58c8.54,10.94,7.59,31.65-1.87,40.47l-.82-.72,5.18-9.57c.3-1.32.59-2.64.89-4q0-7.12,0-14.24l-4.34-11.18Z"/><path class="cls-2" d="M82.79,94.85c-6-10.93-6.12-22-1-33.28l.85.77c-.65,2.28-1.31,4.56-2,6.84l.48,17c.17.67.33,1.34.5,2,.63,2,1.27,3.91,1.91,5.86Z"/><path class="cls-2" d="M108.69,99.46c-8.88,6.66-19.62,4.75-25.9-4.61l.8-.77c4.64,5.49,10.08,9,17.68,7l5.25-2,1.49-.45Z"/><path class="cls-2" d="M81.81,61.57c4.83-9.19,13.27-12.39,22.89-8.68l-.63.81c-9.17-2.14-16.5.26-21.41,8.64Z"/><path class="cls-2" d="M107.91,54.59l2.72,2.4-.79.91-2.56-2.5Z"/><path class="cls-2" d="M105.93,53.4l2,1.19-.63.81-1.91-1.11Z"/><path class="cls-2" d="M104.7,52.89l1.23.51-.56.89-1.3-.59Z"/><path class="cls-2" d="M110.63,57l1,1-.92.8-.87-.91Z"/><path class="cls-2" d="M109.76,98.48l-1.07,1c-.22-.28-.45-.55-.68-.82l.93-.88Z"/><path class="cls-4" d="M81.18,86.21l-.48-17,34.35.81q0,7.11,0,14.24c-5.77-1.07-11.48-3.25-17.4-.44-.65.31-2-.26-2.74-.8-3.29-2.34-6-1.48-8.9.93C84.67,85,82.8,85.46,81.18,86.21Z"/><path class="cls-3" d="M115.05,70,80.7,69.18c.65-2.28,1.31-4.56,2-6.84C87.57,54,94.9,51.56,104.07,53.7l1.3.59,1.91,1.11,2.56,2.5.87.91Z"/><path class="cls-3" d="M81.18,86.21C82.8,85.46,84.67,85,86,83.92c2.87-2.41,5.61-3.27,8.9-.93.76.54,2.09,1.11,2.74.8,5.92-2.81,11.63-.63,17.4.44-.3,1.32-.59,2.64-.89,4a41.57,41.57,0,0,0-6.89.2c-1.14.2-3,1.69-2.93,2.37a61.7,61.7,0,0,0,2.22,8.33l-5.25,2c.33-2,.74-3.93,1-5.91.65-5.54-.52-6.9-6.08-7-4.83-.08-9.65,0-14.48,0C81.51,87.55,81.35,86.88,81.18,86.21Z"/><path class="cls-4" d="M106.52,99.09a61.7,61.7,0,0,1-2.22-8.33c-.1-.68,1.79-2.17,2.93-2.37a41.57,41.57,0,0,1,6.89-.2l-5.18,9.57-.93.88Z"/><path class="cls-4" d="M81.68,88.22c4.83,0,9.65-.07,14.48,0,5.56.08,6.73,1.44,6.08,7-.23,2-.64,3.94-1,5.91-7.6,1.93-13-1.55-17.68-7C83,92.13,82.31,90.17,81.68,88.22Z"/></g></g></svg>