<svg xmlns="http://www.w3.org/2000/svg" viewBox="0 0 105.37 84.58"><defs><style>.cls-1{fill:#648283;}.cls-2{fill:#869ea2;}.cls-3{fill:#4b686d;}.cls-4{fill:#61625d;}.cls-5{fill:#5c6d75;}.cls-6{fill:#eab104;}.cls-7{fill:#45443e;}.cls-8{fill:#f2c502;}</style></defs><title>lumiere</title><g id="Layer_2" data-name="Layer 2"><g id="Layer_1-2" data-name="Layer 1"><path class="cls-1" d="M105.37,16.58q-1.08,12.59-2.14,25.18C96.38,47,89.36,52.09,82.73,57.62c-4.48,3.73-8.41,8.11-12.59,12.2q.49-14.5,1-29C81.71,31.57,92.92,23.2,105.37,16.58Z"/><path class="cls-1" d="M72.09.13c8.6-.57,16.79.69,24.2,5.44-2.84,2-5.77,3.81-8.5,5.91C79.48,17.87,71.25,24.35,63,30.8c-7.73-4.35-16.35-5.6-24.9-7.06C46,14,56.2,7.49,67.65,2.72A39.77,39.77,0,0,0,72.09.13Z"/><path class="cls-2" d="M63,30.8c8.26-6.45,16.49-12.93,24.8-19.32,2.73-2.1,5.66-3.95,8.5-5.91,4.47,2.48,8.16,5.6,9.08,11-12.45,6.62-23.66,15-34.25,24.22Z"/><path class="cls-3" d="M72.09.13a39.77,39.77,0,0,1-4.44,2.59C56.2,7.49,46,14,38.09,23.74c-7.32-.34-14.64-1-22-.86C13.06,22.93,10,24.58,7,25.5c5.09-3.63,9.83-7.93,15.33-10.75A135.39,135.39,0,0,1,72.09.13Z"/><path class="cls-4" d="M63.29,83.05c-4,.5-8.26,2.15-11.93,1.28-12.88-3-25.55-6.92-38.31-10.47-7.4-2-11.77-7-12.31-14.51C0,49-1.47,38.46,4.26,28.81l3.87,2c-6.63,9.3-5.82,19.59-3.88,30C5.31,66.48,8.32,70.55,15,71.54c-.38-1.54-.64-2.62-.91-3.71,5.37,1.74,10.65,3.84,16.12,5.15,10.14,2.43,20.39,4.41,30.59,6.57Z"/><path class="cls-5" d="M8.13,30.76l-3.87-2L6,26.53l.8.43L7,25.52l0,0c3.06-.92,6.11-2.57,9.19-2.62,7.31-.12,14.63.52,22,.86C46.64,25.2,55.26,26.45,63,30.8l8.13,10q-.5,14.52-1,29l0,6.94-6.88,6.29-2.52-3.5c3.54-1.25,5.15-3.83,5.47-7.51.59-6.93,1.57-13.84,2-20.79.66-11.55-4.24-19-15.48-21.59a226,226,0,0,0-29.9-4.55c-5-.48-10.37.45-13.52,5.59Z"/><path class="cls-3" d="M70.17,76.76l0-6.94c4.18-4.09,8.11-8.47,12.59-12.2,6.63-5.53,13.65-10.59,20.5-15.86-.93,1.72-1.52,3.77-2.84,5.1C90.4,56.91,80.26,66.81,70.17,76.76Z"/><path class="cls-3" d="M7,25.52,6.82,27,6,26.53Z"/><path class="cls-6" d="M9.31,30.7c3.15-5.14,8.47-6.07,13.52-5.59a226,226,0,0,1,29.9,4.55C64,32.3,68.87,39.7,68.21,51.25c-.4,7-1.38,13.86-2,20.79-.32,3.68-1.93,6.26-5.47,7.51C50.57,77.39,40.32,75.41,30.18,73c-5.47-1.31-10.75-3.41-16.12-5.15-2.24-3.37-6-6.57-6.43-10.16C6.57,48.71,5.5,39.47,9.31,30.7Zm4.58,4.06c-.18,3.74-3.8,7.56-3.12,13.3.56,4.83,1.35,9.62,2.27,14.45.08-1.61.15-3.21.22-4.61l9.22,9.41c12.6,1.64,23.61,8.64,38,5.63,1.4-3.86,3.76-9.22,5.25-14.81,1.86-7-3.4-19.61-8.7-23.47C48,28,37.9,29.15,27.75,30.46a49.6,49.6,0,0,0-6.94,1C18.85,32,17.07,33.22,13.89,34.76Z"/><path class="cls-7" d="M9.31,30.7c-3.81,8.77-2.74,18-1.68,27,.43,3.59,4.19,6.79,6.43,10.16.27,1.09.53,2.17.91,3.71-6.65-1-9.66-5.06-10.72-10.8-1.94-10.39-2.75-20.68,3.88-30Z"/><path class="cls-8" d="M13.89,34.76c3.18-1.54,5-2.72,6.92-3.27a49.6,49.6,0,0,1,6.94-1C37.9,29.15,48,28,57.06,34.66c5.3,3.86,10.56,16.52,8.7,23.47-1.49,5.59-3.85,10.95-5.25,14.81-14.42,3-25.43-4-38-5.63L13.26,57.9c-.07,1.4-.14,3-.22,4.61-.92-4.83-1.71-9.62-2.27-14.45C10.09,42.32,13.71,38.5,13.89,34.76Z"/></g></g></svg>