<svg xmlns="http://www.w3.org/2000/svg" viewBox="0 0 89.99 30.98"><defs><style>.cls-1{fill:#fbde02;}.cls-2{fill:#eac10a;}.cls-3{fill:#2f2f2e;}.cls-4{fill:#464646;}.cls-5{fill:#373634;}</style></defs><title>lunetteColor</title><g id="Layer_2" data-name="Layer 2"><g id="Layer_1-2" data-name="Layer 1"><path class="cls-1" d="M50.12,26C49.05,23,48,20.13,46.5,16.14l-4.73,2.77A38.33,38.33,0,0,0,36,21.36c-7.45,4.61-15.1,7.24-23,1.55-4.13-3-8-6.65-8-12.34,0-4.48,3.83-5.25,7-6.6l9,2.11.33.28h.43l0-.1,3.17.89-.08,0L35.79,9.66l2.06.26,6,.88L50,10.26l1.07-.18.38.1.35-.19,1-.11,3-.59L66.54,6.56l2.3-.4L72,5.27A.91.91,0,0,0,72.84,5l2.67-.26c7.72,6,7.36,13.25-1.72,16.48C66.29,23.89,58,24.46,50.12,26Z"/><path class="cls-2" d="M50.12,26c7.92-1.5,16.17-2.07,23.67-4.74C82.87,18,83.23,10.78,75.51,4.74l2.72-1.62,1.65-.3c4.84-.85,6.49,2.09,7.24,6.1,1.22,8.92-4.42,13.75-11.28,16.72-6,2.59-12.61,3.68-19,5.14C53.09,31.63,50.81,29.71,50.12,26Z"/><path class="cls-2" d="M11.84,4c-3.13,1.35-7,2.12-7,6.6.08,5.69,3.91,9.37,8,12.34C20.86,28.6,28.51,26,36,21.36a38.33,38.33,0,0,1,5.81-2.45,78.85,78.85,0,0,1-3.09,9.78c-.49,1.12-2.65,2.16-4,2.11-8.92-.34-17.42-2.32-24.87-7.6-4.9-3.49-8-7.87-7.06-14.28,1-3.64,2.25-6.9,7-6.13Z"/><path class="cls-3" d="M79.88,2.82l-1.66.3L72.84,5a.91.91,0,0,1-.88.27c-1.7-2-2.67-1.49-3.12.89l-2.3.4c-3.19-.4-6-4.85-10.21-.85l3,1L55.78,9.29l-3,.59-1,.11-.35.19-.38-.1L50,10.26l-6.19.54c-.33-1.34-.67-2.67-1-4,3.59-1,7.45-1.53,10.72-3.19A29.44,29.44,0,0,1,74.33.81a39.44,39.44,0,0,0,5.47.47Z"/><path class="cls-3" d="M11.84,4,9.79,2.79c0-.51.05-1,.08-1.55A82.89,82.89,0,0,0,18.81.49c8.23-1.57,15.41.73,22.07,5.4l-3,4-2.06-.26c-1.13-1.74-1.92-3.92-3.46-5.14-3.51-2.77-5.19,1.29-7.62,2.58l.08,0-3.17-.89,0,.1c-.06-.26-.12-.51-.17-.77l-.59.5Z"/><path class="cls-4" d="M9.87,1.24c0,.52,0,1-.08,1.55C5,2,3.71,5.28,2.75,8.92-1,6.24-1,2.79,3.12,1.36,5.14.66,7.6,1.24,9.87,1.24Z"/><path class="cls-4" d="M79.88,2.82,79.8,1.28c2.55.09,5.36-.48,7.58.42,3.66,1.48,3.37,4.84-.26,7.22C86.37,4.91,84.72,2,79.88,2.82Z"/><path class="cls-5" d="M37.85,9.92l3-4,1.95.91c.34,1.33.68,2.66,1,4Z"/><path class="cls-5" d="M24.71,7.1c2.43-1.29,4.11-5.35,7.62-2.58,1.54,1.22,2.33,3.4,3.46,5.14Z"/><path class="cls-5" d="M55.78,9.29l3.55-2.56-3-1c4.25-4,7,.45,10.21.85Z"/><path class="cls-5" d="M72.84,5l5.38-1.88L75.51,4.74Z"/><path class="cls-5" d="M68.84,6.16c.45-2.38,1.42-2.91,3.12-.89Z"/><path class="cls-5" d="M21.62,6.25l3.17.89Z"/><path class="cls-5" d="M50,10.26l1.07-.18Z"/><path class="cls-5" d="M51.83,10l1-.11Z"/><path class="cls-5" d="M20.82,6.08l.59-.5c.05.26.11.51.17.77h-.43Z"/></g></g></svg>