<svg xmlns="http://www.w3.org/2000/svg" viewBox="0 0 358.46 460.31"><defs><style>.cls-1{fill:#395a64;}.cls-2{fill:#f8aaa8;}.cls-3{fill:#058572;}.cls-4{fill:#078472;}.cls-5{fill:#2a464e;}.cls-6{fill:#1f3036;}.cls-7{fill:#f4a7a7;}.cls-8{fill:#fa9191;}.cls-9{fill:#284950;}.cls-10{fill:#0ddbbe;}.cls-11{fill:#26d3ba;}.cls-12{fill:#faaaa9;}.cls-13{fill:#1ad8bd;}.cls-14{fill:#dfe0e0;}.cls-15{fill:#11b6a0;}.cls-16{fill:#ddf5f3;}.cls-17{fill:#07dcbe;}.cls-18{fill:#bf686a;}.cls-19{fill:#0ebca3;}.cls-20{fill:#ebebeb;}.cls-21{fill:#b8baba;}.cls-22{fill:#178978;}.cls-23{fill:#ecf2f2;}</style></defs><title>ParentKid5</title><g id="Layer_2" data-name="Layer 2"><g id="Layer_1-2" data-name="Layer 1"><path class="cls-1" d="M50.27,277c.15-1.34-.15-3,.55-4,4-5.4,8.28-10.62,12.46-15.91.94,1.92,2.21,3.75,2.78,5.78,1.93,6.85,3.58,13.78,5.39,20.67,1,3.89,2.15,7.76,3.23,11.65l1.63-.41c-2.08-10.29-4.17-20.58-6.37-31.46,5.47,0,11,.21,16.54-.05,6.76-.31,8-2.26,6.45-9-2.56-11.3-5.09-22.6-7.5-33.93-.56-2.63-1.5-4.07-4.52-4.13-8.79-.15-17.58-.59-26.36-.91l-2.16-11,.75-17.95c5.39,2,10.71,4.25,16.18,6.06,13.9,4.59,28.3,4.19,42.66,3.78,1.29,0,2.55-1.43,3.82-2.2l2.72.94c-3.13,3.5-6,7.28-9.47,10.44-3,2.71-5.73,4.86-3.79,9.55,1.18,2.86,1.48,6.08,2.17,9.13l5.22,23.23c0-8.5-1.16-16.82-1.69-25.19-.27-4.11-.78-9.12,1.18-12.25,3.08-4.9,8.16-8.54,12.4-12.72l5.35,2.25q-2.38,17.69-4.75,35.34c19.22,4.66,33.27,16.06,44.73,31.13,2.51,3.3,4.85,6.71,7.27,10.07V276l5,10.35-6.45,2c-3,.54-4.31-1.23-5.62-3.67-9.2-17.21-22.13-30.84-39.36-40.24-5.86-3.2-7.09-2.78-9,3.32-.44,1.43-.86,2.86-1.29,4.28l-1.89,5.15c-.69,2.61-2.13,5.27-2,7.82.76,12,1.86,24,3.07,36,.32,3.1-.59,5-3.31,6.28-11.3,4.29-22.95,4.42-34.74,3-3.44-.56-5.31-2.24-5.18-6.08,0-.95-1.82-2-2.81-3C63.54,295.28,55.46,287.51,50.27,277Z"/><path class="cls-2" d="M129.89,199.36l-5.35-2.25-6-2.19L115.8,194l-.12,0-1.14-.62c-4.11-1.76-8.22-3.56-12.35-5.28-7.15-3-13-7.21-15.75-14.93-2.9-8.3-5.94-16.55-8.92-24.82a48.22,48.22,0,0,0,24-7,15.56,15.56,0,0,1,3.62-1.1c2.26,7.14,4.45,14.3,6.85,21.39a6.63,6.63,0,0,0,2.61,3.4c5.87,3.46,11.87,6.69,17.82,10l6.12,3.23c5.86,2.93,11.51,6.46,17.65,8.56,3.7,1.26,8.17.3,12.29.34,1.63-7.35,3.23-14.7,4.92-22,.73-3.21,1.48-6.43,2.5-9.55,2.57-7.94,9-10.42,16.46-11.2l3.3,14.77c-2.41,12.14-4.85,24.27-7.16,36.43a3.23,3.23,0,0,0,1.16,2.8c3.52,1.53,3.21,4.55,1.88,6.67-3.93,6.31-.47,9.93,4,13.57,2.7,2.18,5.23,4.57,7.84,6.86,5.27,3.85,10.53,7.71,15.83,11.53,3,2.18,6.13,4.27,9.2,6.41l1.12,3.06-.59,2-.42,3.81-2.39,3.76L216.53,259l-2.23-.66c.1-.47.19-.95.3-1.41l1.23-5c-1.69-.2-3.37-.43-5.06-.58-1.1-.11-2.21-.1-3.31-.14l.09.13-1.09-1.2c-1.43-2-2.47-4.53-4.36-5.87-8.75-6.2-17.73-12.07-26.62-18.05l-3-1.71L166,216.65c15.5,1.36,19,.74,21.37-3-4.44.5-9.46,1.93-14.23,1.36-5.42-.64-10.62-3.08-15.92-4.73Z"/><path class="cls-3" d="M132.44,175.07c-6-3.31-12-6.54-17.82-10a6.63,6.63,0,0,1-2.61-3.4c-2.4-7.09-4.59-14.25-6.85-21.38a23.08,23.08,0,0,0-.25-3.91c-3.06-13-6-26-9.36-38.92C93.9,91.14,91.43,85,89.33,78.83l16-.43c1.09,6.72,5.28,10.95,11.32,13.31,8.09,3.15,12.84-.36,12.62-9a18.67,18.67,0,0,1,.25-2.45l7,1.13,3,.85-.1-.05c6.89,5.42,10.27,12.42,8.93,21.21a102.85,102.85,0,0,1-3,12.54c-2.45,8.54-5.08,17-7.63,25.56q-1.74,8.21-3.47,16.42Z"/><path class="cls-2" d="M129.53,80.28a18.67,18.67,0,0,0-.25,2.45c.22,8.62-4.53,12.13-12.62,9-6-2.36-10.23-6.59-11.32-13.31l1-12.86q.78-4.88,1.57-9.79l-5.74.83c-5.63-1.8-8.81-5.95-8.85-11.42,0-4.25,1.63-6.94,6.24-7.07,2.56,1.84,5.15,3.65,7.68,5.53,1.36,1,2.64,2.14,4,3.22a31.69,31.69,0,0,0,1.91-5.21c.47-2.41-.23-5.32.88-7.27,2.11-3.73,5.16-6.92,8.28-10.93,10.26,3.7,21.56,7,34.17,3.62V47.87c-1.24,4.93-2.29,9.92-3.77,14.79-3.18,10.49-9.34,16.21-20.11,12.68a8.69,8.69,0,0,0-2.94.14L111,65.84c4,7.4,11.35,9.21,18.44,11.44C129.44,78.28,129.49,79.28,129.53,80.28Zm11.35-34.72-1.16.47-1.09,12.19c2,0,3.73.37,5.16-.14.91-.32,2.14-2.27,1.87-2.93C144.31,51.85,142.52,48.74,140.88,45.56Z"/><path class="cls-4" d="M77.52,148.35c3,8.27,6,16.52,8.92,24.82,2.7,7.72,8.6,11.94,15.75,14.93,4.13,1.72,8.24,3.52,12.35,5.28l1.14.62.12,0c-1.27.77-2.53,2.16-3.82,2.2-14.36.41-28.76.81-42.66-3.78-5.47-1.81-10.79-4-16.18-6.06-.2-3.43-.74-6.88-.55-10.28,1.23-22,3.08-44,8.72-65.45.5-1.88,1.35-3.67,2-5.5a11.61,11.61,0,0,1,1.08,2.14C67.79,119.63,71,132,74.51,144.39,74.93,145.88,76.49,147,77.52,148.35Z"/><path class="cls-5" d="M77.52,148.35c-1-1.31-2.59-2.47-3-4C71,132,67.79,119.63,64.43,107.25a11.61,11.61,0,0,0-1.08-2.14c.75-3.23,1.41-6.48,2.26-9.68,2.76-10.31,10.87-16,23.72-16.6,2.1,6.2,4.57,12.31,6.22,18.63,3.36,12.91,6.3,25.93,9.36,38.92a23.08,23.08,0,0,1,.25,3.91,15.08,15.08,0,0,0-3.62,1.09A48.22,48.22,0,0,1,77.52,148.35Z"/><path class="cls-2" d="M326,198.92l-6.51,2.4-6.16-2,.07-.06,2.72-.64-2.9-3.07c-1.05,0-2.29-.29-3.11.16-4.95,2.74-9.8,5.65-14.69,8.5-7.89,1.83-15.79,3.59-23.66,5.5s-14,.15-18.63-6.72c-3.9-5.74-8.21-11.2-12.33-16.79.18-5.47.38-10.94.55-16.42.24-7.75-.53-15.27-5.09-21.9l1.36-.82a37.66,37.66,0,0,1,4.31,2.89c1.86,1.61,3.52,3.46,5.26,5.2a28.61,28.61,0,0,0,1.8,4.54c5.43,9,10.8,18,16.62,26.67,1.07,1.61,4.11,2.82,6.15,2.7q15.39-.91,30.73-2.74c4.57-.54,9-2,13.54-3.07a10.12,10.12,0,0,1,11.85,6.69c.32,0,.51.12.58.46l0-.11c-.23.76-.47,1.53-.7,2.3-.12,1.48-.23,3-.35,4.47Z"/><path class="cls-6" d="M156.42,47.87V27.05c-12.61,3.39-23.91.08-34.17-3.62-3.12,4-6.17,7.2-8.28,10.93-1.11,2-.41,4.86-.88,7.27a31.69,31.69,0,0,1-1.91,5.21c-1.31-1.08-2.59-2.21-4-3.22-2.53-1.88-5.12-3.69-7.68-5.53-.44-3.28-1-6.55-1.26-9.84-.29-4.19.46-8,5.8-9.32l-5.18-4.52,7.92-1.2c.51-5.58,5.27-7.38,10.48-8.5,7.16-1.54,14.32-3,21.51-4.38,4.74-.88,6-.16,8.49,4,7.82-.72,10.23.91,11.67,7.86,8.43,2.44,9.18,5.13,3.5,11.41a5.7,5.7,0,0,0-.85,4.32C163.08,35.44,161.5,42.08,156.42,47.87Z"/><path class="cls-7" d="M245.44,106.63a51.61,51.61,0,0,1-2.08,26.22l-8.19,6.5h-7.5L214.21,136c-.23,3.63,7.29,6.92,13.08,5.25.05,1.16.1,2.32.16,3.48.28,1,.58,1.89.84,2.85,1.68,6.37-.67,9.37-7.17,8.62-7.76-.89-12.37-5.67-14.64-12.93q.32-4.31.65-8.61c.05-2.27.11-4.53.16-6.8l4.23,5.44,1.65.06-1.31-1c-1-6.77-2.23-13.52-3-20.31-.17-1.5,1-3.16,1.58-4.75h0l1.11-1c4.14,1.71,7.46.4,9.89-2.65l8,4.55c-.41-2.71-.61-4-.83-5.54,2.14.7,3.86,1.65,5.62,1.76C238.09,104.67,241.24,108.4,245.44,106.63ZM232,114.1v11.75l5.39-2.79Z"/><path class="cls-8" d="M134.27,157.94q1.72-8.22,3.46-16.42l18.47-3.4c.67,4.15,2.18,8.36,1.86,12.44-1.06,13.61,4.77,25.06,10.44,36.64-4.12,0-8.59.92-12.29-.34-6.14-2.1-11.79-5.63-17.65-8.56Z"/><path class="cls-5" d="M156.2,138.12l-18.47,3.4c2.56-8.52,5.19-17,7.64-25.56a102.85,102.85,0,0,0,3-12.54c1.34-8.79-2-15.79-8.93-21.21,6.8.79,12.73,5,13.74,11.79,2,13.63,3.13,27.4,4.49,41.13C157.73,136.07,156.7,137.12,156.2,138.12Z"/><path class="cls-9" d="M207.29,127.89c0,2.27-.11,4.53-.16,6.8-1.07,1.11-2.59,2.05-3.12,3.39-.68,1.73-.56,3.77-.79,5.67-.27,2.43-1.13,5-.67,7.26.79,3.89-.3,8.42,3.81,11.42,3.53,2.57,4.7,6.07,2.22,10.62l-12.9-13.87-3.3-14.77c.71-4.31,1.43-8.61,2.11-12.92.13-.81-.2-1.84.18-2.45,3.45-5.45-.36-9.17-3-13.18l9.75-8.57,4,3L204,113.44,198.15,112c-2.7,5.15-2.52,9.42,2.39,12.69Z"/><path class="cls-10" d="M246.37,87.3q1.4,3,2.77,6l-2.7,3-.05,0-1.09-.89,0,.05-2.1-1-2.84-1-4.78-.59-5.38,0-3.82-.78.68-1.91,0-2.79-4.73-3L221,83.62l-1.57-.22-4.32-.85-5.68.53-2,.29-2.92,1.19a12.43,12.43,0,0,0-3.64-.1,25.23,25.23,0,0,0-4.29,2l-.1-.11c9.49-10.69,30.43-14.71,41.57-8l.68.55h0c-.25.89-.5,1.79-.74,2.68a.66.66,0,0,1-.57-.24l-1.82-.59-1.48.55-.33.33.16.42,4.58,8.07,2.89.07,1.74-1.12Z"/><path class="cls-5" d="M245.44,106.63c-4.2,1.77-7.35-2-11.21-2.19-1.76-.11-3.48-1.06-5.62-1.76.22,1.5.42,2.83.83,5.54l-8-4.55c-2.43,3-5.75,4.36-9.89,2.65l-1.11,1h0c-.67-1.34-1.33-2.69-2-4,6.83-5.38,15.12-6.71,23.23-6.65,5.51,0,12.14-.12,15.89,5.9C248.49,104.72,249.17,106.79,245.44,106.63Z"/><path class="cls-1" d="M247.53,102.5c-3.75-6-10.38-5.86-15.89-5.9-8.11-.06-16.4,1.27-23.23,6.65l-3.12,2-3.87,2.09-9.75,8.57-.06-.1-1.34-2.54c-.32,0-.43-.21-.35-.52,1.19-1.47,2.39-2.93,3.58-4.39l.93-1,1.06-1,1-.9,1.19-1.06.87-.63,2-1.38-.05,0,2-1.09,0,0,1.09-.93,0,.07,2-1-.06,0,2.26-1,2.82-1,4.36-1.89.25.14.25-.12L226,93.28l-.08,0,4.36-.42,5.37,0,4.79.59,2.84,1,2.1,1,0-.05,1.08.89.05,0,3.87,3.18Z"/><path class="cls-5" d="M235.17,139.35l8.19-6.5c3.37,5.61,6.54,11.2,3.43,18.12-.49,1.1.24,2.74.4,4.13-1.74-1.74-3.4-3.59-5.26-5.2a37.66,37.66,0,0,0-4.31-2.89Q236.41,143.19,235.17,139.35Z"/><path class="cls-11" d="M327.71,192.54c.23-.77.47-1.54.7-2.3l3,7.06c0,1.34-.06,2.67-.08,4q-1.56,5.32-3.1,10.65c-2.85,3.58-6,7-8.47,10.81-2.6,4.07-4.49,8.59-6.78,12.86a16.54,16.54,0,0,1-2.13,2.56c.26-2.29.51-4.58.77-6.87l.16-.23-.13-.25c.25-.51.5-1,.74-1.54a.57.57,0,0,0,.2-.62l.87-1.37,1.06-1.81.9-1.21v0l1.16-2,6.9-8.84C328.84,209.36,330.74,200,327.71,192.54Z"/><path class="cls-8" d="M129.39,77.28c-7.09-2.23-14.43-4-18.44-11.44l18.65,9.64Z"/><path class="cls-6" d="M102.16,56.58l5.74-.83q-.8,4.92-1.57,9.79C102.63,63.63,102.17,60.21,102.16,56.58Z"/><path class="cls-10" d="M193.5,108.31c-1.19,1.46-2.39,2.92-3.58,4.39-3.08-8.14-1.87-15.61,3.44-22.46l.19.17c-1.19,4.57-2.18,9.19-3.62,13.67C188.74,107.79,190.41,108.51,193.5,108.31Z"/><path class="cls-11" d="M238,81.61c.24-.89.49-1.79.74-2.68l7.66,8.37-3.23,1.8Z"/><path class="cls-11" d="M250.31,99.49l-3.87-3.18,2.7-3Z"/><path class="cls-10" d="M193.36,90.24l1.7-2.26.42.35-1.93,2.08Z"/><path class="cls-5" d="M139.51,82.26l-3-.85Z"/><path class="cls-10" d="M195.06,88c.47-.54.94-1.09,1.42-1.63l.1.11-1.1,1.87Z"/><path class="cls-9" d="M190.27,113.22l1.34,2.54C191.16,114.92,190.72,114.07,190.27,113.22Z"/><path class="cls-11" d="M328.46,190.35c-.07-.34-.26-.5-.58-.46A.82.82,0,0,0,328.46,190.35Z"/><path class="cls-11" d="M238.73,78.92l-.68-.55A.61.61,0,0,1,238.73,78.92Z"/><path class="cls-9" d="M341.33,456.12c-13.91,7.08-27,4.67-39.67-3.33-25-15.77-38.94-38.89-45.26-67.19-.18-.8-.43-1.59-.65-2.38-.17-5-.4-9.92-.49-14.89-.27-13.91,5.35-24.66,17.3-32l4.26,12.95c-9.81,6.57-13.34,16.28-13.09,27.48.31,13.77,4.73,26.48,11.72,38.22,7.89,13.23,17.93,24.41,32.28,30.94,6.77,3.08,13.85,3.94,20.78.8,9.62-4.35,12.62-13.15,12.74-22.6.35-27.15-11.69-48.66-32-65.85-8.25-7-17.83-10.92-29-9.76l-3.06-12.25c12.56-.11,23.29,5.16,32.91,12.39,18.69,14.05,30.7,32.95,36.95,55.32,3.92,14.05,5.43,28.35-.82,42.31-1.39,3.13-3.18,6.08-4.79,9.11C341.42,455.65,341.37,455.89,341.33,456.12Z"/><path class="cls-12" d="M50.27,277c5.19,10.56,13.27,18.33,23.32,24.22q-12.06,11-24.12,22.09Q39.84,332.11,30.26,341l-2.08.38-10.3-1.07-.29,1.42-5.13-7.4Q22.62,319,32.77,303.6,41.53,290.3,50.27,277Z"/><path class="cls-5" d="M54.55,215.31c8.78.32,17.57.76,26.36.91,3,.06,4,1.5,4.52,4.13,2.41,11.33,4.94,22.63,7.5,33.93,1.52,6.71.31,8.66-6.45,9-5.52.26-11.07.05-16.54.05,2.2,10.88,4.29,21.17,6.37,31.46l-1.63.41c-1.08-3.89-2.21-7.76-3.23-11.65-1.81-6.89-3.46-13.82-5.39-20.67-.57-2-1.84-3.86-2.78-5.78-2.76-12.11-5.54-24.22-8.23-36.34A40.59,40.59,0,0,1,54.55,215.31Z"/><path class="cls-1" d="M341.47,455.42c1.61-3,3.4-6,4.79-9.11,6.25-14,4.74-28.26.82-42.31-6.25-22.37-18.26-41.27-36.95-55.32-9.62-7.23-20.35-12.5-32.91-12.39-.17-.67-.34-1.34-.5-2l5.64-2,3.4-.33a36.6,36.6,0,0,1,23.35,5.71c33.87,21,50.71,51.37,49.26,91.27C358,440.55,352,449.69,341.47,455.42Z"/><path class="cls-13" d="M270.75,274.37c1,4.09,2.23,8.13,2.79,12.28.6,4.43.53,9,.75,13.43l-4,1c-.34-1.95-.69-3.91-1.24-7.06-5.67,13-14.26,21.88-26.39,27.58.84,1.83,1.47,3.23,2.16,4.73l22.41-15.8.54,6.5c-12.46,9.46-24.95,18.87-37.34,28.42-1.94,1.49-3.16,4-5.13,5.38-2.47,1.79-5.37,3-8.09,4.44l-3.78-6.81,4.08-2c6.09-4.32,12.22-8.58,18.26-13,5.39-3.93,5.34-4,1.74-9.83l-13.66,2.75L204,325.21c.17-.88.35-1.76.52-2.65l1.82-1.42,15.82,0c18-.82,32.31-8.23,40.51-24.55,3.38-6.74,4.29-14.72,6.33-22.14Z"/><path class="cls-4" d="M12.46,334.33l5.13,7.4.29-1.42,10.3,1.07c.28.76.94,1.6.8,2.27-2.13,9.74-1.28,19,5.21,27.46-12.33-.31-14.46.54-21.71,8.32-1.67-2.83-4-5.47-4.84-8.53-1.58-6-2.23-12.17-3.37-18.27-.53-2.88-1.3-5.72-2-8.59Z"/><path class="cls-14" d="M295.42,204.16c4.89-2.85,9.74-5.76,14.69-8.5.82-.45,2.06-.13,3.11-.16l.18,3.71-.07.06-5.69,2.88c-5.63,3.1-11.77,5.57-16.67,9.56-2.84,2.32-4.57,6.94-5.25,10.79-1.6,9.07-2.21,18.3-3.33,27.45-.58,4.8-1.54,9.5-6.74,11.67l-2.33-1.27c2-3.49,5-6.78,5.78-10.52,1.45-7.23,1.4-14.74,2.39-22.08.87-6.48,1.06-13.39,6.36-18.28C290.09,207.39,292.88,205.91,295.42,204.16Z"/><path class="cls-1" d="M2.31,344c.66,2.87,1.43,5.71,2,8.59,1.14,6.1,1.79,12.3,3.37,18.27.81,3.06,3.17,5.7,4.84,8.53.79,1.51,1.24,3.38,2.41,4.48,6.66,6.25,15.51,7.14,24.41,2.71-2.48,1.85-4.72,4.71-7.48,5.37-10.32,2.48-19.37-2-24.46-11.41-.79-1.45-1.47-2.95-2.2-4.43C3.4,367.6,1.41,359.08,0,350.47-.28,348.5,1.5,346.19,2.31,344Z"/><path class="cls-9" d="M267.81,317q-.27-3.24-.55-6.5,1.53-4.73,3.07-9.45l4-1c.3,1.24.2,3.16,1,3.61,6,3.57,5.08,10.06,6.77,15.42q-1.35.38-2.7.72a15.23,15.23,0,0,0-1.26-3.7,32.87,32.87,0,0,0-3.42-3.88c-.92,1.86-2.38,3.66-2.6,5.61s.74,4.14,1.19,6.23l-2.83.36Q269.11,320.75,267.81,317Z"/><path class="cls-1" d="M273.32,260.35l2.33,1.27q1.26,2.85,2.53,5.69c-7.12,2.63-12.66-.32-17.71-5l1.94-1.88C266,258,269.67,257.58,273.32,260.35Z"/><path class="cls-15" d="M326,198.92c.45-.64.91-1.28,1.37-1.91,1.05,6.61-3.3,10.79-6.89,15.31l-1.08.92-1.16,1-1,.74-2.94,2.26.05,0-1.26,1-1.68,1.2-1.09.88,0,0-1.16.94.09-.07-1.35,1-1.52,1.26-1,.91-1,1-.88,1-4.94,9.89-1,0c.78-2.83.81-6.28,2.52-8.35a89.3,89.3,0,0,1,12.06-11.58C318.06,211.43,324.71,207.35,326,198.92Z"/><path class="cls-5" d="M260.48,262.29c5,4.7,10.58,7.65,17.7,5,1.49,6.53-4.29,5.41-7.43,7.06l-1.75.05-4.92-4c1.26-5.71-2.66-2.71-4.73-2.82C259.73,265.84,260.1,264.07,260.48,262.29Z"/><path class="cls-15" d="M279.33,319.84l2.7-.73q1.86,6.42,3.73,12.84l-3.4.32Z"/><path class="cls-16" d="M320.48,212.32c3.59-4.52,7.94-8.7,6.89-15.31.11-1.49.22-3,.34-4.47,3,7.44,1.13,16.82-4.25,20.89C324,209.09,321.16,213.53,320.48,212.32Z"/><path class="cls-7" d="M307.64,202.15l5.69-2.88,6.16,2C315.82,205.59,311.75,204.12,307.64,202.15Z"/><path class="cls-16" d="M311.59,231.31c-.26,2.29-.51,4.58-.77,6.87C309,235.66,307.75,233.2,311.59,231.31Z"/><path class="cls-16" d="M314.33,217.23l2.94-2.26Z"/><path class="cls-16" d="M316.56,222.27l-1.16,2Z"/><path class="cls-16" d="M312.36,229.29c-.24.51-.49,1-.74,1.54C311.87,230.32,312.12,229.8,312.36,229.29Z"/><path class="cls-16" d="M313.43,227.3l-.87,1.37Z"/><path class="cls-16" d="M303.55,226.33l.88-1Z"/><path class="cls-16" d="M315.39,224.28l-.9,1.21Z"/><path class="cls-16" d="M305.46,224.31l1-.91Z"/><path class="cls-16" d="M308,222.14l1.35-1Z"/><path class="cls-16" d="M309.23,221.17l1.16-.94Z"/><path class="cls-16" d="M310.35,220.26l1.09-.88Z"/><path class="cls-16" d="M313.12,218.18l1.26-1Z"/><path class="cls-16" d="M318.24,214.23l1.16-1Z"/><path class="cls-12" d="M102.35,385.29C97.86,371.56,92.94,358,89,344.08c-3.12-11.11-5-22.56-7.45-33.86,11.79,1.46,23.44,1.33,34.74-3q.18,6.5.35,13,.49,6.52,1,13,.8,6,1.6,11.9V360.3l1,26.55-7.87,5.88.68,1.37-9.63-2.19Z"/><path class="cls-13" d="M145.68,296.1l15.74-3.88,3.14-1.19,1.82.45,1.05-.18,8.24-3,6.45-2c2.57.2,5.36.88,6.2-2.78l-.93-4.25c-.12-.64-.25-1.28-.37-1.92l2.23-.06,2.56,2.21c.22,2.29.45,4.57.67,6.86l.05-.06-.44.21.36.66.15,1.18a4.77,4.77,0,0,0,.08.92l-2.48,3.91-5.33-.84-8.53,2.49-7.8,1.49-4.15,2-15.5,3,.12,1.53,18.1,6.19,4.54,1.11,9.77,3.21,2,1q-.6,2.46-1.18,4.94l-8.61-2.88-4.8-1-17.41-6.22-8-3.08c.57,2.29.8,3.24,1,4.19l0,0-1.9,0-2.12-1.9L139,307.25l-1.59-.46-4.7-5.74,5.56-2.2,6.24-2.47Z"/><path class="cls-9" d="M175.67,288.34l-8.24,3-1.05.18-1.82-.45c-5.13-12.17-13.42-21.87-23.63-30-6-4.81-12.52-8.63-20.52-9,.43-1.42.85-2.85,1.29-4.28,1.9-6.1,3.13-6.52,9-3.32,17.23,9.4,30.16,23,39.36,40.24C171.36,287.11,172.64,288.88,175.67,288.34Z"/><path class="cls-15" d="M120.41,252c8,.35,14.5,4.17,20.52,9,10.21,8.15,18.5,17.85,23.63,30l-3.14,1.19C155.53,280.5,148,270,136.53,263.31c-5.36-3.14-12-4.15-18-6.13Z"/><path class="cls-5" d="M118.52,194.92l6,2.19c-4.24,4.18-9.32,7.82-12.4,12.72-2,3.13-1.45,8.14-1.18,12.25.53,8.37,1.65,16.69,1.69,25.19L107.43,224c-.69-3-1-6.27-2.17-9.13-1.94-4.69.83-6.84,3.79-9.55C112.5,202.2,115.39,198.42,118.52,194.92Z"/><path class="cls-11" d="M187,277.37a15.52,15.52,0,0,0-3.52-1.27c-2.1-.23-4.24-.11-6.36-.13v-.07c1.45-.54,2.94-1,4.34-1.64,1.59-.73,3.1-1.62,4.64-2.44,5.34.72,7-4,9.95-6.76,2.43-2.29,4.81-4.62,7.22-6.92l.12,1.2a1.87,1.87,0,0,0,0,.94l0,0-1,1v0c-4.43,4.32-8.92,8.58-13.22,13-.5.5,0,2,.07,3Z"/><path class="cls-17" d="M195.68,159.18l12.9,13.87c2.48-4.55,1.31-8.05-2.22-10.62-4.11-3-3-7.53-3.81-11.42-.46-2.28.4-4.83.67-7.26l3.26-.45c2.27,7.26,6.88,12,14.64,12.93,6.5.75,8.85-2.25,7.17-8.62-.26-1-.56-1.9-.84-2.85l8.81,3.07c4.56,6.63,5.33,14.15,5.09,21.9-.17,5.48-.37,11-.55,16.42q-.9,15-1.79,30c-5.28,4.36-10.63,8.82-17.8,9.3-5.92.39-11.88.09-17.82.09-2.61-2.29-5.14-4.68-7.84-6.86-4.46-3.64-7.92-7.26-4-13.57,1.33-2.12,1.64-5.14-1.88-6.67a3.23,3.23,0,0,1-1.16-2.8C190.83,183.45,193.27,171.32,195.68,159.18Z"/><path class="cls-1" d="M203.29,258.13c-2.41,2.31-4.79,4.64-7.22,6.93-2.95,2.78-4.61,7.48-9.95,6.76q-3.84-9.7-7.7-19.39l-2.94-26.29c8.89,6,17.87,11.85,26.62,18.05,1.89,1.34,2.93,3.88,4.36,5.87l1.09,1.2-.09-.12c.32.94.64,1.89.95,2.83l-5.07,4.28Z"/><path class="cls-1" d="M203.39,225.51c5.94,0,11.9.3,17.82-.09,7.17-.48,12.52-4.94,17.8-9.3l9.71,17.28-20.3,10c-3.07-2.14-6.17-4.23-9.2-6.41C213.92,233.22,208.66,229.36,203.39,225.51Z"/><path class="cls-1" d="M214.3,258.31l2.23.65,4.15,4.62c-.24,2.82-.47,5.63-.71,8.45l-1.74.83a1.15,1.15,0,0,0-.82.48l-1.41.84a.45.45,0,0,0-.6.16l-1.54.84-4.48,1.29-1.15.69V277l-1.81.34-2.79.79a1.25,1.25,0,0,0-.51-.64q1.68-8.11,3.37-16.22l0,.05,1.05-1.05,0,.06.88-1.14,2.72-2Z"/><path class="cls-14" d="M228.42,243.45l20.3-10q2.84,5,5.68,9.94c-.4.5-1.18,1-1.14,1.52.35,3.8.86,7.59,1.31,11.39.58,3.16,1,6.37,1.85,9.44.25.85,1.92,1.3,2.93,1.93,2.07.11,6-2.89,4.73,2.82a1.42,1.42,0,0,0-.56.72c-.66,0-1.31,0-2,.1-7.62.71-8.05.32-9.21-7.26-.16-1-1.26-1.9-1.93-2.85a7,7,0,0,0,.08-.8h0l.75-3c-.89-6.74-1.78-13.48-2.86-21.6l-18,10.71a4.91,4.91,0,0,0-.86,0Z"/><path class="cls-18" d="M175.48,226.14l2.94,26.29c-10-3.09-12.95-7.2-12.83-18.17l6.88-9.83Z"/><path class="cls-8" d="M172.47,224.43l-6.88,9.83c-.37-.69-1-1.37-1.08-2.1a50.77,50.77,0,0,0-7.25-21.84c5.3,1.65,10.5,4.09,15.92,4.73,4.77.57,9.79-.86,14.23-1.36-2.42,3.7-5.87,4.32-21.37,3Z"/><path class="cls-5" d="M226.14,256.1c.79-1.25,1.59-2.51,2.39-3.75a1.88,1.88,0,0,1,.74-.19l.18.15c2,4,3.63,8.42,6.4,11.86.87,1.07,5-.47,7.57-.78a8.1,8.1,0,0,1,1.47.08l-10.46,4-7.92-8.7C226.38,257.89,226.26,257,226.14,256.1Z"/><path class="cls-5" d="M214.3,258.31l-3.23-1c0-.38,0-.77,0-1.15,1.32-3.49-2.08-1.07-2.7-2.15-.31-.94-.63-1.89-.95-2.83,1.1,0,2.21,0,3.31.13,1.69.15,3.37.38,5.06.58l-1.23,5C214.49,257.36,214.4,257.84,214.3,258.31Z"/><path class="cls-18" d="M226.14,256.1c.12.89.24,1.79.37,2.69l-5.83,4.79L216.53,259Z"/><path class="cls-5" d="M229.54,246.51a4.91,4.91,0,0,1,.86,0c-.32,1.95-.64,3.89-1,5.84l-.18-.15c-.11-1.21-.21-2.42-.32-3.63Z"/><path class="cls-14" d="M229,248.53c.11,1.21.21,2.42.32,3.63a1.88,1.88,0,0,0-.74.19Z"/><path class="cls-1" d="M115.68,194l-1.14-.62Z"/><path class="cls-5" d="M207.55,251.26l-1.09-1.2Z"/><path class="cls-8" d="M140.88,45.56c1.64,3.18,3.43,6.29,4.78,9.59.27.66-1,2.61-1.87,2.93-1.43.51-3.17.14-5.16.14L139.72,46Z"/><path class="cls-7" d="M313.4,199.21l-.18-3.71,2.9,3.07Z"/><path class="cls-6" d="M205.29,105.2l3.12-2c.67,1.34,1.33,2.69,2,4-.56,1.59-1.75,3.25-1.58,4.75.8,6.79,2,13.54,3,20.31l-.34,1-4.23-5.44-6.75-3.17c5.66.8,6.73-.09,5.8-5.47-.35-2-1.56-3.88-2.38-5.81l1.43-3.15C205.36,108.6,205.32,106.9,205.29,105.2Z"/><path class="cls-8" d="M227.67,139.34c-.13.65-.25,1.3-.38,1.94C221.5,143,214,139.66,214.21,136Z"/><path class="cls-8" d="M232,114.1l5.39,9L232,125.85Z"/><path class="cls-8" d="M211.52,133.33l.34-1,1.31,1Z"/><path class="cls-6" d="M210.41,107.28l1.11-1Z"/><path class="cls-7" d="M204,113.44c.82,1.93,2,3.8,2.38,5.81.93,5.38-.14,6.27-5.8,5.47-4.91-3.27-5.09-7.54-2.39-12.69Z"/><path class="cls-5" d="M205.29,105.2c0,1.7.07,3.4.1,5.09l-4-3Z"/><path class="cls-17" d="M195.48,88.33l1.1-1.87a25.23,25.23,0,0,1,4.29-2,12.43,12.43,0,0,1,3.64.1l-1.71,1.85-1.26,2,0,0c.1,1.17.25,3.38.29,3.37,4.86-.24,9.7-.65,14.54-1.06l3,0,3,1.62c0,.32,0,.64,0,1l-7,2.27-.25.12-.25-.14-4.36,1.89-2.82,1-2.26,1,.06,0-2,1,0-.07-1.09.93,0,0-2,1.09.05,0-2,1.38-.87.63-1.19,1.06-1,.9-1.06,1-.93,1c-3.09.2-4.76-.52-3.57-4.23,1.44-4.48,2.43-9.1,3.62-13.67Z"/><path class="cls-9" d="M202.8,86.41l1.71-1.85,2.92-1.2,2-.28,5.68-.53,4.32.85,1.57.22,1.42.74,4.73,3,0,2.79c-.23.64-.46,1.27-.67,1.9-.18.4-.36.8-.55,1.2l.08,0-.38-.07c-.74-.65-1.47-1.31-2.2-2l-3.95-.55-3,0c-3.6.24-7.23.77-10.81.55-1.39-.08-2.68-1.85-4-2.86l0,0Z"/><path class="cls-9" d="M238,81.61l5.17,7.49-1.74,1.12-2.89-.07q-2.3-4-4.57-8.07a.67.67,0,0,0,.16-.75l1.48-.55,1.82.59A.66.66,0,0,0,238,81.61Z"/><path class="cls-11" d="M240.4,93.43l-4.79-.59Z"/><path class="cls-11" d="M225.88,93.3c.19-.4.37-.8.55-1.2l3.81.79Z"/><path class="cls-19" d="M219.41,83.4l-4.32-.85Z"/><path class="cls-19" d="M227.1,90.2l0-2.79Z"/><path class="cls-11" d="M238.51,90.15l2.89.07Z"/><path class="cls-11" d="M245.34,95.43l-2.1-1Z"/><path class="cls-19" d="M209.41,83.08l-2,.28Z"/><path class="cls-11" d="M237.4,81.37l-1.82-.59Z"/><path class="cls-11" d="M234.1,81.33a.67.67,0,0,1-.16.75l-.17-.42Z"/><path class="cls-11" d="M246.39,96.27l-1.08-.89Z"/><path class="cls-19" d="M222.4,84.36,221,83.62Z"/><path class="cls-11" d="M215.39,95.54l7-2.27,3.16-.06.38.07Z"/><path class="cls-11" d="M210.53,97.41l4.36-1.89Z"/><path class="cls-10" d="M200.44,102.38l2-1.09Z"/><path class="cls-10" d="M203.46,100.41l2-1Z"/><path class="cls-10" d="M205.45,99.4l2.26-1Z"/><path class="cls-10" d="M198.51,103.72l2-1.38Z"/><path class="cls-10" d="M202.42,101.27l1.09-.93Z"/><path class="cls-10" d="M196.45,105.41l1.19-1.06Z"/><path class="cls-10" d="M194.43,107.35l1.06-1Z"/><path class="cls-12" d="M234.43,267.48l10.46-4,.32,0,.22-.24,1.93-1,0,0,1.16-.91-.12.12,2-.3c.67,1,1.77,1.82,1.93,2.85,1.16,7.58,1.59,8,9.21,7.26.65-.06,1.3-.07,2-.1-.77,1.64-1.16,3.64-2.35,4.87-9.75,10.12-19.53,20.21-29.56,30.05-3.25,3.18-7.26,5.58-10.93,8.33l-.27-.14-1.33-.88a.58.58,0,0,1-.71-.22l-4-1.91c2.24-3.8,4.53-7.59,6.7-11.43s3.37-7.71,2.44-12c-2.93,5-5.46,10-7.89,15.07-1.48,3.1-2.81,6.29-4.2,9.44a8.23,8.23,0,0,0,0,.86l-1.8,1.19-1.12,1.23a.74.74,0,0,1-.31.76c-.24.35-.48.7-.71,1.06l.05-.07-1.08,2h0l-1.93,3.24c-.17.89-.35,1.77-.52,2.65-.24.05-.47.11-.71.18l-1.86,4.23-1.28,1.74c-.22.38-.44.76-.67,1.14l-1.8,3.79-4.09,3,3.46.71c-.15.65-.31,1.31-.46,2l-5.26,7.3-.85,2c0,.67.07,1.34.11,2-.39,1.31-.77,2.63-1.16,3.94-2.23-.28-4.73-1.35-6.65-.7-6.14,2.06-6.62-1.39-6.51-5.86l-.11-.23.17-.18.94-2.61-.15-.21.14-.21c2.63-.61,2.74-1.7.59-3.2l.66-2.8,1.51-.75-1-1.23-.35-2,.82-1,.73-2.58-.15-.28,1.18-4.71c.05-.8.11-1.6.17-2.4.25-1.15.51-2.3.77-3.45l.18-1.55c4.24-4.62,4.39-5.26,1.65-7.22l.45-2.8.75-1.6-.27-.11,0-.29c3.21-.67,3.11-2.16,1-4.14a.84.84,0,0,1,.31-.82c.3-.83.61-1.66.92-2.5,0-.84,0-1.68,0-2.52l2-2,2.32-1.16c1.74,2.61,3.58,2,4.93-.19,2.16-3.46,4-7.12,6-10.69l.89-4.9.19-2.22,2.79-.79.91,1.48.9-1.82v.12l1.15-.69,4.48-1.29,1.54-.84a.45.45,0,0,1,.6-.16l1.41-.84a1.15,1.15,0,0,1,.82-.48q1.56,1.69,3.11,3.41c0,.67.07,1.34.11,2l0,1c.25,1.83.49,3.66.77,5.73,4.29-5.56,8.18-10.57,12-15.63C234.59,269,234.38,268.13,234.43,267.48Z"/><path class="cls-4" d="M103.42,391.91l9.63,2.19-.68-1.37,7.88-5.88c1.36.95,3,1.68,4,2.91a38.76,38.76,0,0,1,3.28,5.55l.79,1.08h0c2.92,6.91,9.08,10.32,15.05,13.92-8.33,2.8-13.79,8.2-15.39,17.07a17.18,17.18,0,0,1-3.84-1.9c-5.59-4.75-11.09-9.61-16.59-14.47-1.7-1.5-3.3-3.11-4.94-4.67Z"/><path class="cls-9" d="M177.26,347.29l-.14.21.15.21c-.31.87-.62,1.74-.94,2.61l-.17.18.11.23-2.22,3.47-5.87,7.4c-16.7,5.38-30-2-42.78-11.39-2.13-1.56-4.1-3.35-6.15-5q-.8-6-1.6-11.9a6.49,6.49,0,0,0,.86-.16l.07.12.93.9c6.94,5,13.37,11.09,20.93,14.9,13.87,7,26.83,1.19,31-12.67l6.64,4.21a2.55,2.55,0,0,0,.4.72l-.66,2.8C177.66,345.16,177.46,346.23,177.26,347.29Z"/><path class="cls-4" d="M168.18,361.6q2.94-3.71,5.87-7.4c.09,4.23,1.45,6.36,6.39,5.2,2.5-.59,5.41.55,8.14.9l1.89,7q1.5,4.13,3,8.25l1,2.78c-.91.32-1.84,1-2.73.91-6.32-.36-10.69,2.25-13.06,8.15l-4.34-3.27c-1.75-6.1.11-13.26-5.58-18.27C167.91,365.13,168.33,363,168.18,361.6Z"/><path class="cls-1" d="M128,427.37c7.73,5.25,15.6,4.5,23.52.47,1.32-.67,2.55-1.52,3.83-2.28-1.36,1.89-2.31,4.43-4.14,5.56-10,6.12-20.86,5.07-29.89-2.71-5.62-4.83-11.22-9.73-16.37-15-1.55-1.59-1.59-4.66-2.32-7.05,1.64,1.56,3.24,3.17,4.94,4.67,5.5,4.86,11,9.72,16.59,14.47A17.18,17.18,0,0,0,128,427.37Z"/><path class="cls-20" d="M178.63,387.38c2.37-5.9,6.74-8.51,13.06-8.15.89,0,1.82-.59,2.73-.91l1.49-2.26c-.78,5.09,3.3,7.73,5.45,11.16l-2.07,4.31a14.32,14.32,0,0,0-3.16.56C190.29,394.54,182.85,392.58,178.63,387.38Z"/><path class="cls-1" d="M178.63,387.38c4.22,5.2,11.66,7.16,17.5,4.71a14.32,14.32,0,0,1,3.16-.56,63.39,63.39,0,0,1-5.69,3.41c-1.29.62-2.89.54-4.26,1-2.26.82-4.89,3.14-6.56,2.55-4.11-1.46-7.87-4.08-11.52-6.6-.55-.38,0-2.81.48-4.09a19.59,19.59,0,0,1,2.55-3.73Z"/><path class="cls-21" d="M217.25,355.28q1.51,6.06,3,12.12l-2.64,8.79-1.44-.36c3.73-11.31-.95-19.94-8.53-27.69a23.28,23.28,0,0,1-2.15-3l8,3.33Z"/><path class="cls-11" d="M197.68,336.29l1.8-3.79c.23-.38.45-.76.67-1.14l1.28-1.74a1.11,1.11,0,0,0,.85.2l1.29,4.44c.25,3.32.51,6.64.76,9.95-.26.13-.53.24-.8.35h-1.19L196.59,342c.15-.66.31-1.32.46-2Z"/><path class="cls-9" d="M203.57,334.26l-1.29-4.44c.33-.22.66-.44,1-.65a29.7,29.7,0,0,1,3.34,3.49c1.72,2.47,3.22,5.11,4.8,7.67l6.13,6.15-4.08,2-8-3.33a3.5,3.5,0,0,0-.17-.71l3.39-2.56Z"/><path class="cls-20" d="M190.47,367.29l-1.89-7,.85-3c.39-1.31.77-2.63,1.16-3.94,1.67,3.87,3.35,7.74,5.28,12.22Z"/><path class="cls-6" d="M195.91,376.06l-1.49,2.26-1-2.78,8.1-14.2,4.21-.9c-1.07,1.71-1.7,2.73-2.33,3.75-1.85,2.46-3.81,4.85-5.52,7.41A28.09,28.09,0,0,0,195.91,376.06Z"/><path class="cls-1" d="M203.44,364.19c.63-1,1.26-2,2.33-3.75l-4.21.9c-.3-.74-.6-1.49-.91-2.23.34-.81.67-1.63,1-2.45l2.85-.5,1.54,1.07,2.39,3c.19,1.42.37,2.83.56,4.25l-2.56,3.3Z"/><path class="cls-21" d="M209,364.47c-.19-1.42-.37-2.83-.56-4.25.54-.21,1.49-.71,1.56-.6,2.39,3.45,4.69,6.95,7,10.44l-1.47.95Z"/><path class="cls-11" d="M206.05,357.23l-1.54-1.07q-1.17-3.59-2.33-7.17L204,348l3.72,5.88,2.28-.14.31.86Q208.18,355.95,206.05,357.23Z"/><path class="cls-11" d="M201.66,356.66c-.34.82-.67,1.64-1,2.45l-7-5.54C198.92,351.17,199.52,355.39,201.66,356.66Z"/><path class="cls-1" d="M203.57,334.26l5.16,7.61-3.39,2.56-1-.22C204.08,340.9,203.82,337.58,203.57,334.26Z"/><path class="cls-2" d="M190.48,351.33l.85-2C191,350,190.76,350.65,190.48,351.33Z"/><path class="cls-21" d="M202.34,344.55h0Z"/><path class="cls-15" d="M280.28,348.54c11.15-1.16,20.73,2.78,29,9.76,20.3,17.19,32.34,38.7,32,65.85-.12,9.45-3.12,18.25-12.74,22.6-6.93,3.14-14,2.28-20.78-.8-14.35-6.53-24.39-17.71-32.28-30.94-7-11.74-11.41-24.45-11.72-38.22-.25-11.2,3.28-20.91,13.09-27.48l.57,7.51c-4.26,5.34-8.95,10.45-6.47,18.31.31,1-1.52,2.68-2.35,4.05q2.07,10.62,4.15,21.23l.79.9a67.7,67.7,0,0,0,26.19,34.94c3,2.12,7.17,2.7,10.8,4,1.76.2,3.71,0,5.23.66,4.5,2.08,8.26.62,12.09-1.68,9-5.43,9.66-14.41,9.05-23.24-1.37-20-10.53-36.56-24.92-50.19-5.35-5.08-11.43-9.41-19.57-10.68,1.85,8.77,3.57,17,5.3,25.15l-1.29,1c-2.26-7.23-4.83-14.39-6.66-21.73-1-4.13-2.73-6-7-5Z"/><path class="cls-11" d="M280.28,348.54l2.45,5.93c2.4,9.09,4.71,18.22,7.31,27.25.39,1.34,2.2,2.27,3.35,3.39l6.12,7.1,1.25,1.19,2.72,1.84h0c-.36,2.11,1.58,5.62-3.1,5.09l0,0-1.37-2-7.72-9c-3.34-4.44-7-8.61-7.89-14.53a94.44,94.44,0,0,0-3.49-13.41c-.49-1.62-1.67-3-2.53-4.55l-.57-7.51-4.26-12.95q-1.08-6-2.15-11.92l2.83-.35,3.48,10.19c.16.67.33,1.34.5,2Z"/><path class="cls-4" d="M223.89,326.43c1.07,2.88,2.15,5.77,3.36,9-6.41-1.4-11.71,0-15.83,4.86-1.58-2.56-3.08-5.2-4.8-7.67a29.7,29.7,0,0,0-3.34-3.49c0-1.26,0-2.52,0-3.78.24-.07.47-.13.71-.18Z"/><path class="cls-22" d="M220.68,314.41l1.47,6.7-15.81,0c0-.61.07-1.21.11-1.82h0l1.08-2-.05.07c.23-.36.47-.71.71-1.06a.74.74,0,0,0,.31-.76l1.12-1.23,1.8-1.19h7a.58.58,0,0,0,.71.22l1.33.88Z"/><path class="cls-2" d="M206.45,319.32c0,.61-.07,1.21-.11,1.82l-1.82,1.42Z"/><path class="cls-7" d="M259,253.07l3.38,7.34-1.94,1.88c-.37,1.78-.74,3.55-1.12,5.33-1-.63-2.68-1.08-2.93-1.93-.87-3.07-1.27-6.28-1.85-9.44Z"/><path class="cls-22" d="M118.51,333.11a6.49,6.49,0,0,1-.86.16q-.5-6.51-1-13c5.22,5.09,10.52,10.09,15.58,15.33,1.07,1.1,1.26,3.05,1.86,4.61l-15.4-10.84C118.63,330.87,118.57,332,118.51,333.11Z"/><path class="cls-15" d="M118.51,333.11c.06-1.12.12-2.24.2-3.77l15.4,10.84c.32.39.65.77,1,1.15l7.67,2.79c1.49-.23,3.19-1.05,4.43-.6a15.12,15.12,0,0,0,18.24-6.36c.75-1.27,1.39-2.61,2.08-3.91l4,3.11c-4.2,13.86-17.16,19.65-31,12.67-7.56-3.81-14-9.86-20.93-14.9l-.93-.9Z"/><path class="cls-14" d="M134.37,315.34c-3.62-1.09-6.88-2.53-6.9-7.11l4.23,2.95,1.17-1.35q-4.43-4.77-8.84-9.53c-4.66-4.58-2.87-12.26,3.51-15l9.91,4h-4c.32,2.36.63,4.6.93,6.83l-3.84,2.29c-5.52-1.68-5.5-5.62-4.15-10.11l.26-.41-.23.44c-5,5.68-3.67,9.49,4.07,11.94l6,6.94c-.65,2.66-1.31,5.33-2,8Z"/><path class="cls-13" d="M171.47,336.36l-4-3.11-.06-1.06c-.41-.6-.83-1.19-1.25-1.78l.05.1-2.74-2.24-3.16-2.75-1.11-1.12.08.09-1.13-1,.08.1-1.75-1.3-2.15-1.85,2-2.1,2.12,1.85,1.21,1,9.19,6.38,4.31,4.75,5.55,5c.12.68.23,1.35.35,2l-.95,1.26Z"/><path class="cls-14" d="M140.39,308.37l2.12,1.9,1.92,1.74a.78.78,0,0,0,.64.39l1.47,1.52.22.32c-.09.29-.18.59-.26.88-3.6,4.38-8.33,4.47-12.13.22l.15-.15,6.95.91c-5.55-2.54-5.55-2.54-2.85-8.46Z"/><path class="cls-21" d="M137.45,289.27l-9.91-4c1.58-.49,3.38-1.74,4.71-1.36,6.37,1.84,11.4,5.43,13.43,12.19l-1.2.28-4-4.13Z"/><path class="cls-21" d="M124,300.3q4.43,4.76,8.84,9.53l-1.17,1.35-4.23-2.95c-.35-.65-.7-1.3-1-2q-1-2-2.05-4C124.26,301.63,124.15,301,124,300.3Z"/><path class="cls-22" d="M142.75,344.12l-7.67-2.79c.15-1,.29-1.93.73-4.75Z"/><path class="cls-13" d="M145.07,312.4a.78.78,0,0,1-.64-.39l0-1.71,0,0,3.16,0,4.92,4.83c.16.48.32,1,.49,1.44a2.79,2.79,0,0,1,.75.21l-4.24-.45-2.16-1.41a1.72,1.72,0,0,0-.59-.61l-.22-.32Z"/><path class="cls-11" d="M149.51,316.26l4.23.46,2.59,1.59-2,2.1Z"/><path class="cls-14" d="M124.38,302.3q1,2,2.05,4Z"/><path class="cls-11" d="M163.5,328.27l2.74,2.24Z"/><path class="cls-11" d="M156.51,322.26l1.75,1.3Z"/><path class="cls-11" d="M166.19,330.41c.42.59.84,1.18,1.25,1.78C167,331.59,166.61,331,166.19,330.41Z"/><path class="cls-11" d="M158.18,323.46l1.13,1Z"/><path class="cls-11" d="M146.76,314.24a1.72,1.72,0,0,1,.59.61,1.51,1.51,0,0,1-.85.27C146.58,314.83,146.67,314.53,146.76,314.24Z"/><path class="cls-11" d="M159.23,324.4l1.11,1.12Z"/><path class="cls-1" d="M185,309.27l0,.29.27.11-.75,1.6-.45,2.8a1.61,1.61,0,0,0-.65.27l-2-1q-2.53-9.27-5.08-18.53l8.53-2.49,2.37,6.93c0,.84,0,1.68,0,2.53-.31.83-.62,1.66-.92,2.49a.84.84,0,0,0-.31.82Z"/><path class="cls-9" d="M178.71,337.29l-5.55-5q.22-8,.46-15.94l8.61,2.88.18,2-.18,1.55c-.26,1.15-.52,2.3-.77,3.45-.06.8-.12,1.6-.17,2.4-.4,1.57-.79,3.14-1.18,4.71l.15.28c-.24.86-.49,1.72-.73,2.58Z"/><path class="cls-21" d="M202.55,285.29c-2,3.57-3.86,7.23-6,10.69-1.35,2.16-3.19,2.8-4.93.19L190.35,295l-.15-1.82,2.48-3.91c.08-.1.25-.22.23-.29a4.08,4.08,0,0,0-.31-.63l-.15-1.18a2.55,2.55,0,0,0,.08-.87l-.05.06,7-9.17,3.68.32a1.25,1.25,0,0,1,.51.64c-.06.74-.12,1.48-.19,2.22C203.15,282,202.85,283.65,202.55,285.29Z"/><path class="cls-9" d="M176.34,294.85q2.53,9.27,5.08,18.53l-9.77-3.21q-1.56-6.92-3.11-13.83Z"/><path class="cls-1" d="M189.25,277.31c-.05-1-.57-2.53-.07-3,4.3-4.45,8.79-8.71,13.22-13-.35,2-.69,4-1,6l-2,4h0c-2.53,2.75-1.94,8.38-7.6,8.24Z"/><path class="cls-15" d="M173.62,316.4q-.24,8-.46,15.94l-4.31-4.75q0-6.1,0-12.2Z"/><path class="cls-22" d="M191.81,279.52c5.66.14,5.07-5.49,7.6-8.24l3.78,2-1.25,1.2-2.5,2.76-7,9.17C192.26,284.09,192,281.81,191.81,279.52Z"/><path class="cls-15" d="M167.11,309.06q-1.37-5.34-2.72-10.68l4.15-2q1.56,6.92,3.11,13.83Z"/><path class="cls-1" d="M130.55,298.39l3.84-2.29,1.87,1.71,2,1-5.56,2.2,4.7,5.74-.9.4q-3-3.48-6-6.94C130.52,299.63,130.53,299,130.55,298.39Z"/><path class="cls-21" d="M136.48,307.19l.9-.4,1.59.46a1,1,0,0,0-.35.39c-2.7,5.92-2.7,5.92,2.85,8.46l-6.95-.91C135.17,312.52,135.83,309.85,136.48,307.19Z"/><path class="cls-14" d="M138.24,298.85l-2-1,4.18-5.56,4,4.13Z"/><path class="cls-11" d="M151.41,309.17l-3.82,1.06-3.16,0c-.24-.95-.47-1.9-1-4.19Z"/><path class="cls-2" d="M182.41,321.29l-.18-2q.59-2.47,1.18-4.94a1.61,1.61,0,0,1,.65-.27C186.8,316,186.65,316.67,182.41,321.29Z"/><path class="cls-11" d="M188.32,283.54l-.93-4.25Z"/><path class="cls-11" d="M144.41,310.3l0,1.71-1.92-1.74Z"/><path class="cls-11" d="M138.62,307.64a1,1,0,0,1,.35-.39l1.42,1.12Z"/><path class="cls-22" d="M192.53,286.32a2.55,2.55,0,0,1-.08.87l-.36-.66Z"/><path class="cls-22" d="M192.6,288.37a4.08,4.08,0,0,1,.31.63c0,.07-.15.19-.23.29A4.77,4.77,0,0,1,192.6,288.37Z"/><path class="cls-15" d="M166.38,291.48l1.05-.18Z"/><path class="cls-15" d="M201.36,267.27c.35-2,.69-4,1-6v0l1-1,0,0,0-.94-.12-1.2.05.11,7.77-2.13c0,.38,0,.77,0,1.15-.91.65-1.82,1.3-2.72,2l-.89,1.14,0-.06-1.05,1.05,0-.05-3.93,9Z"/><path class="cls-1" d="M203.41,260.26l-1,1Z"/><path class="cls-1" d="M203.41,259.34l0,.94A1.87,1.87,0,0,1,203.41,259.34Z"/><path class="cls-11" d="M211.11,256.12l-7.77,2.13,5.07-4.28C209,255.05,212.43,252.63,211.11,256.12Z"/><path class="cls-11" d="M202.56,270.32l3.93-9q-1.68,8.12-3.37,16.22l-3.68-.32,2.5-2.76,1.25-1.2-3.78-2h0Z"/><path class="cls-2" d="M220,272c.46,1.41.92,2.83,1.37,4.24q-1.54-1.71-3.11-3.41Z"/><path class="cls-2" d="M208.23,277l-.9,1.82-.91-1.48Z"/><path class="cls-11" d="M207.46,260.37l.89-1.14Z"/><path class="cls-11" d="M206.45,261.36l1.05-1.05Z"/><path class="cls-2" d="M217.41,273.34l-1.41.84Z"/><path class="cls-2" d="M215.4,274.34l-1.54.84Z"/><path class="cls-2" d="M209.38,276.47l-1.15.69Z"/><path class="cls-1" d="M245.43,263.27l-.22.24-.32,0a8.1,8.1,0,0,0-1.47-.08c-2.62.31-6.7,1.85-7.57.78-2.77-3.44-4.36-7.84-6.4-11.86.31-1.95.63-3.89,1-5.84l18-10.71c1.08,8.12,2,14.86,2.86,21.6l-.75,3h0l-2.06,1.1.11-.12-1.15.91,0,0Z"/><path class="cls-1" d="M259,253.07l-4.46,3.18c-.45-3.8-1-7.59-1.31-11.39,0-.47.74-1,1.14-1.52Z"/><path class="cls-5" d="M250.48,260.36l.75-3Z"/><path class="cls-5" d="M248.44,261.45l2.06-1.1a7,7,0,0,1-.08.8Z"/><path class="cls-11" d="M201.57,88.36c1.34,1,2.63,2.78,4,2.86,3.58.22,7.21-.31,10.81-.55-4.84.41-9.68.82-14.54,1.06C201.82,91.74,201.67,89.53,201.57,88.36Z"/><path class="cls-11" d="M219.43,90.69l3.95.55-1,1.07Z"/><path class="cls-10" d="M222.41,92.31l1-1.07c.73.66,1.46,1.32,2.2,2l-3.16.06C222.42,93,222.42,92.63,222.41,92.31Z"/><path class="cls-11" d="M202.8,86.41l-1.26,2Z"/><path class="cls-8" d="M211.44,312.3c1.39-3.15,2.72-6.34,4.2-9.44,2.43-5.08,5-10.11,7.89-15.07.93,4.33-.32,8.28-2.44,12s-4.46,7.63-6.69,11.43Z"/><path class="cls-2" d="M189.43,357.29l-.85,3c-2.73-.35-5.64-1.49-8.14-.9-4.94,1.16-6.3-1-6.39-5.2l2.22-3.47c-.11,4.47.37,7.92,6.51,5.86C184.7,355.94,187.2,357,189.43,357.29Z"/><path class="cls-2" d="M197.68,336.29l-.63,3.73-3.46-.71Z"/><path class="cls-2" d="M211.44,312.3l3-1,4,1.91h-7A8.23,8.23,0,0,1,211.44,312.3Z"/><path class="cls-2" d="M185,309.27l1-4.14C188.14,307.11,188.24,308.6,185,309.27Z"/><path class="cls-2" d="M202.55,285.29c.3-1.64.6-3.27.89-4.9C203.15,282,202.85,283.65,202.55,285.29Z"/><path class="cls-2" d="M203.29,325.39c0,1.26,0,2.52,0,3.78-.34.21-.67.43-1,.65a1.11,1.11,0,0,1-.85-.2Z"/><path class="cls-2" d="M177.26,347.29c.2-1.06.4-2.13.59-3.2C180,345.59,179.89,346.68,177.26,347.29Z"/><path class="cls-2" d="M181.46,326.29c.25-1.15.51-2.3.77-3.45C182,324,181.71,325.14,181.46,326.29Z"/><path class="cls-2" d="M180.11,333.4c.39-1.57.78-3.14,1.18-4.71C180.89,330.26,180.5,331.83,180.11,333.4Z"/><path class="cls-2" d="M178.11,340.57l.95-1.26,1,1.23-1.51.75A2.55,2.55,0,0,1,178.11,340.57Z"/><path class="cls-2" d="M189.28,297.33l1.07-2.31,1.25,1.15Z"/><path class="cls-2" d="M207.53,317.33l-1.08,2Z"/><path class="cls-2" d="M186.36,304.31c.3-.83.61-1.66.92-2.49C187,302.65,186.66,303.48,186.36,304.31Z"/><path class="cls-2" d="M179.53,336.26c.24-.86.49-1.72.73-2.58C180,334.54,179.77,335.4,179.53,336.26Z"/><path class="cls-2" d="M176.33,350.32c.32-.87.63-1.74.94-2.61C177,348.58,176.65,349.45,176.33,350.32Z"/><path class="cls-5" d="M245.43,263.27l1.93-1Z"/><path class="cls-5" d="M247.4,262.24l1.15-.91Z"/><path class="cls-2" d="M184.51,311.27l.75-1.6Z"/><path class="cls-2" d="M208.19,316.34c-.24.35-.48.7-.71,1.06C207.71,317,208,316.69,208.19,316.34Z"/><path class="cls-2" d="M209.62,314.35l-1.12,1.23Z"/><path class="cls-2" d="M221.45,278.28c0,.35,0,.69,0,1C221.48,279,221.46,278.63,221.45,278.28Z"/><path class="cls-2" d="M200.15,331.36c-.22.38-.44.76-.67,1.14C199.71,332.12,199.93,331.74,200.15,331.36Z"/><path class="cls-2" d="M220.41,314.27l-1.33-.88Z"/><path class="cls-14" d="M127.55,395.31l.79,1.08Z"/><path class="cls-22" d="M118.58,333.23l.93.9Z"/><path class="cls-22" d="M273.51,401.31c1.51,1.11,3.42,1.94,4.45,3.39a90,90,0,0,1,5.5,9.48c4.47,8.41,11.71,14.22,18.82,20.14,1.42,1.19,3.53,1.53,5.09,2.6a20.55,20.55,0,0,1,3.13,3.31c-3.63-1.28-7.76-1.86-10.8-4A67.7,67.7,0,0,1,273.51,401.31Z"/><path class="cls-14" d="M293.39,385.11l3-3.88,1.28-1a3.67,3.67,0,0,1,.66.05,24.75,24.75,0,0,0,2.66,2.38c5.82,3.89,11.05,8.2,12.46,15.6-2.16-1.79-4.13-5-7.08-1l-2.91-2.08h0c0-.34,0-.69,0-1-.47-2.84-.85-5.7-1.48-8.5-.1-.47-1.59-1.16-1.89-.95a3.19,3.19,0,0,0-1.44,2.2,35.3,35.3,0,0,0,.88,5.25Z"/><path class="cls-22" d="M268.57,379.18c.57.3,1.52.49,1.64.92,1.79,6.25,3.49,12.53,5,18.85.07.26-1.64,1-2.53,1.46Z"/><path class="cls-14" d="M292.18,398.35c-2.2-2.83-4.6-5.63-.88-9l7.72,9,1.37,2,0,0,4.12,4.54,2.22-3.47,1.77,1.85c-1,1.67-2.18,3.27-3,5a13.51,13.51,0,0,0-.66,3.3c1.24.19,3,1,3.59.46,1.32-1.24,2.07-3.11,3.05-4.72,2.56.11,2.65-.26.95-4,.42-1.38.85-2.75,1.28-4.12l1.77,12.12,0-.05-1.05,1.28c-4,4-11,3.64-15.72-1.27-2.18-2.26-3.42-5.43-5.09-8.18l6,5a33.9,33.9,0,0,0-4.94-9.28C294.29,398.35,293,398.5,292.18,398.35Z"/><path class="cls-21" d="M299.51,392.21a35.3,35.3,0,0,1-.88-5.25,3.19,3.19,0,0,1,1.44-2.2c.3-.21,1.79.48,1.89.95.63,2.8,1,5.66,1.48,8.5l-2.68-.81Z"/><path class="cls-1" d="M306.7,401.39l-2.22,3.47-4.12-4.54c4.68.53,2.74-3,3.1-5.09l2.92,2.08.42,1.82C306.77,399.88,306.73,400.63,306.7,401.39Z"/><path class="cls-1" d="M300.76,393.4l2.68.81c0,.34,0,.69,0,1Z"/><path class="cls-1" d="M300.39,400.35l-1.37-2Z"/><path class="cls-20" d="M140.44,292.25l-4.18,5.56-1.87-1.71c-.3-2.23-.61-4.47-.93-6.83h4Z"/><path class="cls-21" d="M130.55,298.39c0,.62,0,1.24-.05,1.86-7.74-2.45-9-6.26-4.07-11.94l0,0C125.05,292.77,125,296.71,130.55,298.39Z"/><path class="cls-21" d="M126.43,288.31l.23-.44-.26.41Z"/><path class="cls-11" d="M158.45,320.16l1.21,1Z"/><path class="cls-11" d="M145.07,312.4l1.47,1.52Z"/><path class="cls-11" d="M152.51,315.06c.16.48.31,1,.48,1.44Z"/><path class="cls-22" d="M202.56,270.32l-3.15,1,2-4Z"/><path class="cls-21" d="M315.42,411.33q-.89-6.06-1.78-12.12a7.27,7.27,0,0,1-.18-.93c-1.41-7.4-6.64-11.71-12.46-15.6a24.75,24.75,0,0,1-2.66-2.38c11.69,3.18,19.75,13.91,19.05,25.67C317.28,407.79,316.1,409.54,315.42,411.33Z"/><path class="cls-21" d="M292.18,398.35c.85.15,2.11,0,2.47.5a33.9,33.9,0,0,1,4.94,9.28l-6-5Z"/><path class="cls-21" d="M314.4,412.56l1.05-1.28Z"/><path class="cls-23" d="M313.46,398.28a7.27,7.27,0,0,0,.18.93c-.42,1.37-.85,2.74-1.27,4.12l-5.57-4.2-.42-1.82C309.33,393.31,311.3,396.49,313.46,398.28Z"/><path class="cls-20" d="M311.42,407.29c-1,1.61-1.73,3.48-3.05,4.72-.56.52-2.35-.27-3.59-.46a13.51,13.51,0,0,1,.66-3.3c.85-1.74,2-3.34,3-5h0c1,1.35,2,2.69,3,4Z"/><path class="cls-21" d="M306.8,399.13l5.57,4.2c1.7,3.7,1.61,4.07-.95,4h0c-1-1.35-2-2.69-3-4h0l-1.77-1.85C306.73,400.63,306.77,399.88,306.8,399.13Z"/><path class="cls-14" d="M308.46,403.25c1,1.35,2,2.69,3,4C310.43,405.94,309.44,404.6,308.46,403.25Z"/></g></g></svg>